SplineFontDB: 3.0
FontName: Muli-Medium
FullName: Muli Medium
FamilyName: Muli
Weight: Medium
Copyright: 2013 (c) vernon adams
Version: x
ItalicAngle: 0
UnderlinePosition: 0
UnderlineWidth: 0
Ascent: 1638
Descent: 410
sfntRevision: 0x00010000
LayerCount: 2
Layer: 0 1 "Back"  1
Layer: 1 1 "Fore"  0
XUID: [1021 913 -2060267417 1673176]
FSType: 0
OS2Version: 4
OS2_WeightWidthSlopeOnly: 0
OS2_UseTypoMetrics: 1
CreationTime: 1363067206
ModificationTime: 1363268574
PfmFamily: 17
TTFWeight: 500
TTFWidth: 5
LineGap: 0
VLineGap: 0
Panose: 2 0 6 3 0 0 0 0 0 0
OS2TypoAscent: 1978
OS2TypoAOffset: 0
OS2TypoDescent: -679
OS2TypoDOffset: 0
OS2TypoLinegap: 0
OS2WinAscent: 1978
OS2WinAOffset: 0
OS2WinDescent: 679
OS2WinDOffset: 0
HheadAscent: 1978
HheadAOffset: 0
HheadDescent: -679
HheadDOffset: 0
OS2SubXSize: 1331
OS2SubYSize: 1433
OS2SubXOff: 0
OS2SubYOff: 286
OS2SupXSize: 1331
OS2SupYSize: 1433
OS2SupXOff: 0
OS2SupYOff: 983
OS2StrikeYSize: 102
OS2StrikeYPos: 530
OS2Vendor: 'newt'
OS2CodePages: 20000093.00000000
OS2UnicodeRanges: a00000ef.4000204b.00000000.00000000
Lookup: 4 0 1 "'liga' Standard Ligatures lookup 0"  {"'liga' Standard Ligatures lookup 0 subtable"  } ['liga' ('DFLT' <'dflt' > 'grek' <'dflt' > 'latn' <'dflt' > ) ]
Lookup: 260 0 0 "'mark' Mark Positioning lookup 0"  {"'mark' Mark Positioning lookup 0 subtable"  } ['mark' ('DFLT' <'dflt' > 'grek' <'dflt' > 'latn' <'dflt' > ) ]
Lookup: 258 0 0 "'kern' Horizontal Kerning in Latin lookup 1"  {"'kern' Horizontal Kerning in Latin lookup 1 per glyph data 0"  "'kern' Horizontal Kerning in Latin lookup 1 kerning class 1"  } ['kern' ('DFLT' <'dflt' > 'latn' <'dflt' > ) ]
MarkAttachClasses: 1
DEI: 91125
KernClass2: 22 30 "'kern' Horizontal Kerning in Latin lookup 1 kerning class 1" 
 89 A Agrave Aacute Acircumflex Atilde Adieresis Aring Amacron Abreve Aogonek uni0200 uni0202
 9 B uni1E02
 16 D Dcaron uni1E0A
 9 F uni1E1E
 9 K uni0136
 23 L Lacute uni013B Lcaron

StartChar: .notdef
Encoding: 65536 -1 0
Width: 748
Flags: W
LayerCount: 2
UndoRedoHistory
Layer: 1
Undoes
EndUndoes
Redoes
EndRedoes
EndUndoRedoHistory
Fore
SplineSet
136 68 m 1,0,-1
 544 68 l 1,1,-1
 544 1297 l 1,2,-1
 136 1297 l 1,3,-1
 136 68 l 1,0,-1
68 0 m 1,4,-1
 68 1365 l 1,5,-1
 612 1365 l 1,6,-1
 612 0 l 1,7,-1
 68 0 l 1,4,-1
EndSplineSet
EndChar

StartChar: exclam
Encoding: 33 33 4
Width: 590
GlyphClass: 2
Flags: W
LayerCount: 2
UndoRedoHistory
Layer: 1
Undoes
EndUndoes
Redoes
EndRedoes
EndUndoRedoHistory
Fore
SplineSet
241 377 m 1,0,-1
 184 1456 l 1,1,-1
 408 1456 l 1,2,-1
 351 377 l 1,3,-1
 241 377 l 1,0,-1
176 0 m 1,4,-1
 176 226 l 1,5,-1
 413 226 l 1,6,-1
 413 0 l 1,7,-1
 176 0 l 1,4,-1
EndSplineSet
EndChar

StartChar: quotedbl
Encoding: 34 34 5
Width: 785
GlyphClass: 2
Flags: W
LayerCount: 2
UndoRedoHistory
Layer: 1
Undoes
EndUndoes
Redoes
EndRedoes
EndUndoRedoHistory
Fore
SplineSet
493 962 m 1,0,-1
 449 1456 l 1,1,-1
 647 1456 l 1,2,-1
 615 962 l 1,3,-1
 493 962 l 1,0,-1
182 962 m 1,4,-1
 138 1456 l 1,5,-1
 336 1456 l 1,6,-1
 303 962 l 1,7,-1
 182 962 l 1,4,-1
EndSplineSet
EndChar

StartChar: numbersign
Encoding: 35 35 6
Width: 1295
GlyphClass: 2
Flags: W
LayerCount: 2
UndoRedoHistory
Layer: 1
Undoes
EndUndoes
Redoes
EndRedoes
EndUndoRedoHistory
Fore
SplineSet
504 610 m 1,0,-1
 746 610 l 1,1,-1
 797 881 l 1,2,-1
 558 881 l 1,3,-1
 504 610 l 1,0,-1
237 39 m 1,4,-1
 323 474 l 1,5,-1
 75 474 l 1,6,-1
 86 610 l 1,7,-1
 349 610 l 1,8,9
 355 645 355 645 376 755.5 c 128,-1,10
 397 866 397 866 400 881 c 1,11,-1
 137 881 l 1,12,-1
 149 1016 l 1,13,-1
 425 1016 l 1,14,-1
 505 1433 l 1,15,-1
 664 1433 l 1,16,-1
 584 1016 l 1,17,-1
 824 1016 l 1,18,-1
 902 1433 l 1,19,-1
 1061 1433 l 1,20,-1
 980 1016 l 1,21,-1
 1216 1016 l 1,22,-1
 1204 881 l 1,23,-1
 955 881 l 1,24,-1
 903 610 l 1,25,-1
 1155 610 l 1,26,-1
 1143 474 l 1,27,-1
 878 474 l 1,28,-1
 793 39 l 1,29,-1
 636 39 l 1,30,-1
 719 474 l 1,31,-1
 480 474 l 1,32,-1
 395 39 l 1,33,-1
 237 39 l 1,4,-1
EndSplineSet
EndChar

StartChar: dollar
Encoding: 36 36 7
Width: 1200
GlyphClass: 2
Flags: W
LayerCount: 2
UndoRedoHistory
Layer: 1
Undoes
EndUndoes
Redoes
EndRedoes
EndUndoRedoHistory
Fore
SplineSet
685 151 m 1,0,1
 768 165 768 165 820 207 c 0,2,3
 896 269 896 269 897 382 c 0,4,5
 897 461 897 461 870 508 c 0,6,7
 843 554 843 554 767 594 c 0,8,9
 734 611 734 611 685 630 c 1,10,-1
 685 151 l 1,0,1
685 1480 m 1,11,12
 935 1466 935 1466 1072 1329 c 1,13,-1
 974 1196 l 1,14,15
 922 1242 922 1242 838 1278 c 0,16,17
 768 1308 768 1308 685 1314 c 1,18,-1
 685 828 l 1,19,20
 800 792 800 792 876 753 c 0,21,22
 960 711 960 711 1010.5 656 c 128,-1,23
 1061 601 1061 601 1081.5 536.5 c 128,-1,24
 1102 472 1102 472 1102 382 c 0,25,26
 1102 282 1102 282 1062.5 203.5 c 128,-1,27
 1023 125 1023 125 954 76.5 c 128,-1,28
 885 28 885 28 796 3 c 0,29,30
 743 -12 743 -12 685 -18 c 1,31,-1
 685 -200 l 1,32,-1
 572 -200 l 1,33,-1
 572 -21 l 1,34,35
 500 -18 500 -18 431 -4 c 0,36,37
 346 14 346 14 286 42.5 c 128,-1,38
 226 71 226 71 186 96 c 128,-1,39
 146 121 146 121 126 142 c 1,40,-1
 213 284 l 1,41,42
 276 236 276 236 380 190 c 0,43,44
 472 150 472 150 572 146 c 1,45,-1
 572 669 l 1,46,47
 555 674 555 674 537 679 c 0,48,49
 329 739 329 739 234 831 c 128,-1,50
 139 923 139 923 139 1097 c 0,51,52
 139 1191 139 1191 177 1265 c 128,-1,53
 215 1339 215 1339 281.5 1386 c 0,54,55
 348 1434 348 1434 436 1458 c 0,56,57
 500 1476 500 1476 572 1480 c 1,58,-1
 572 1632 l 1,59,-1
 685 1632 l 1,60,-1
 685 1480 l 1,11,12
572 1310 m 1,61,62
 488 1299 488 1299 430 1262 c 0,63,64
 346 1209 346 1209 347 1104 c 0,65,66
 347 1064 347 1064 351.5 1036 c 128,-1,67
 356 1008 356 1008 371 983 c 128,-1,68
 386 958 386 958 406.5 940.5 c 128,-1,69
 427 923 427 923 465.5 904.5 c 128,-1,70
 504 886 504 886 548 870 c 0,71,72
 559 866 559 866 572 863 c 1,73,-1
 572 1310 l 1,61,62
EndSplineSet
EndChar

StartChar: percent
Encoding: 37 37 8
Width: 1769
GlyphClass: 2
Flags: W
LayerCount: 2
UndoRedoHistory
Layer: 1
Undoes
EndUndoes
Redoes
EndRedoes
EndUndoRedoHistory
Fore
SplineSet
1332 -25 m 128,-1,1
 1171 -25 1171 -25 1080.5 79.5 c 128,-1,2
 990 184 990 184 990 347 c 0,3,4
 990 508 990 508 1082.5 615 c 128,-1,5
 1175 722 1175 722 1336 722 c 0,6,7
 1499 722 1499 722 1588.5 617.5 c 128,-1,8
 1678 513 1678 513 1678 350 c 128,-1,9
 1678 187 1678 187 1585.5 81 c 128,-1,0
 1493 -25 1493 -25 1332 -25 c 128,-1,1
1334 101 m 0,10,11
 1515 101 1515 101 1515 350 c 0,12,13
 1515 596 1515 596 1336 596 c 0,14,15
 1154 596 1154 596 1154 346 c 0,16,17
 1154 101 1154 101 1334 101 c 0,10,11
351 0 m 1,18,-1
 1270 1456 l 1,19,-1
 1432 1456 l 1,20,-1
 513 0 l 1,21,-1
 351 0 l 1,18,-1
434 736 m 0,22,23
 271 736 271 736 181 837.5 c 128,-1,24
 91 939 91 939 91 1107 c 0,25,26
 91 1272 91 1272 183.5 1377 c 128,-1,27
 276 1482 276 1482 438 1482 c 0,28,29
 602 1482 602 1482 691 1379.5 c 128,-1,30
 780 1277 780 1277 780 1110 c 0,31,32
 780 944 780 944 688 840 c 128,-1,33
 596 736 596 736 434 736 c 0,22,23
436 862 m 0,34,35
 616 862 616 862 616 1111 c 0,36,37
 616 1357 616 1357 437 1357 c 0,38,39
 255 1357 255 1357 255 1108 c 0,40,41
 255 862 255 862 436 862 c 0,34,35
EndSplineSet
EndChar

StartChar: ampersand
Encoding: 38 38 9
Width: 1539
GlyphClass: 2
Flags: W
LayerCount: 2
UndoRedoHistory
Layer: 1
Undoes
EndUndoes
Redoes
EndRedoes
EndUndoRedoHistory
Fore
SplineSet
596 923 m 1,0,1
 797 1046 797 1046 797 1174 c 0,2,3
 797 1248 797 1248 749 1285 c 128,-1,4
 701 1322 701 1322 637 1322 c 0,5,6
 566 1322 566 1322 521 1283.5 c 128,-1,7
 476 1245 476 1245 476 1173 c 0,8,9
 476 1043 476 1043 596 923 c 1,0,1
627 141 m 0,10,11
 734 141 734 141 813.5 180.5 c 128,-1,12
 893 220 893 220 965 294 c 1,13,-1
 561 727 l 1,14,15
 506 696 506 696 468.5 669 c 128,-1,16
 431 642 431 642 395 604.5 c 128,-1,17
 359 567 359 567 341 519 c 128,-1,18
 323 471 323 471 323 413 c 0,19,20
 323 294 323 294 407.5 217.5 c 128,-1,21
 492 141 492 141 627 141 c 0,10,11
629 -24 m 0,22,23
 486 -24 486 -24 373.5 27 c 128,-1,24
 261 78 261 78 195 178 c 128,-1,25
 129 278 129 278 129 412 c 0,26,27
 129 476 129 476 147.5 532.5 c 128,-1,28
 166 589 166 589 194 630.5 c 128,-1,29
 222 672 222 672 268.5 713.5 c 128,-1,30
 315 755 315 755 356 783 c 128,-1,31
 397 811 397 811 456 846 c 1,32,33
 375 936 375 936 334.5 1011 c 128,-1,34
 294 1086 294 1086 294 1178 c 0,35,36
 294 1320 294 1320 389 1398 c 128,-1,37
 484 1476 484 1476 630 1476 c 0,38,39
 697 1476 697 1476 758 1458 c 128,-1,40
 819 1440 819 1440 869 1405.5 c 128,-1,41
 919 1371 919 1371 949 1313.5 c 128,-1,42
 979 1256 979 1256 979 1184 c 0,43,44
 979 1075 979 1075 902.5 981.5 c 128,-1,45
 826 888 826 888 706 815 c 1,46,-1
 1061 427 l 1,47,48
 1120 525 1120 525 1153.5 652 c 128,-1,49
 1187 779 1187 779 1187 905 c 1,50,-1
 1362 876 l 1,51,52
 1358 722 1358 722 1310.5 566.5 c 128,-1,53
 1263 411 1263 411 1183 294 c 1,54,55
 1242 234 1242 234 1323.5 179.5 c 128,-1,56
 1405 125 1405 125 1496 102 c 1,57,-1
 1370 -10 l 1,58,59
 1234 11 1234 11 1075 173 c 1,60,61
 887 -24 887 -24 629 -24 c 0,22,23
EndSplineSet
EndChar

StartChar: quotesingle
Encoding: 39 39 10
Width: 507
GlyphClass: 2
Flags: W
LayerCount: 2
UndoRedoHistory
Layer: 1
Undoes
EndUndoes
Redoes
EndRedoes
EndUndoRedoHistory
Fore
SplineSet
198 948 m 1,0,-1
 158 1456 l 1,1,-1
 362 1456 l 1,2,-1
 334 948 l 1,3,-1
 198 948 l 1,0,-1
EndSplineSet
EndChar

StartChar: parenleft
Encoding: 40 40 11
Width: 639
GlyphClass: 2
Flags: W
LayerCount: 2
UndoRedoHistory
Layer: 1
Undoes
EndUndoes
Redoes
EndRedoes
EndUndoRedoHistory
Fore
SplineSet
412 -173 m 1,0,1
 286 19 286 19 211 234 c 128,-1,2
 136 449 136 449 136 663 c 0,3,4
 136 1088 136 1088 407 1516 c 1,5,-1
 590 1516 l 1,6,7
 325 1097 325 1097 325 664 c 0,8,9
 325 463 325 463 396.5 242 c 128,-1,10
 468 21 468 21 591 -173 c 1,11,-1
 412 -173 l 1,0,1
EndSplineSet
EndChar

StartChar: parenright
Encoding: 41 41 12
Width: 639
GlyphClass: 2
Flags: W
LayerCount: 2
UndoRedoHistory
Layer: 1
Undoes
EndUndoes
Redoes
EndRedoes
EndUndoRedoHistory
Fore
SplineSet
228 1496 m 1,0,1
 354 1305 354 1305 428.5 1089.5 c 128,-1,2
 503 874 503 874 503 660 c 0,3,4
 503 234 503 234 233 -193 c 1,5,-1
 50 -193 l 1,6,7
 315 226 315 226 315 659 c 0,8,9
 315 860 315 860 243.5 1081 c 128,-1,10
 172 1302 172 1302 49 1496 c 1,11,-1
 228 1496 l 1,0,1
EndSplineSet
EndChar

StartChar: asterisk
Encoding: 42 42 13
Width: 1107
GlyphClass: 2
Flags: W
LayerCount: 2
UndoRedoHistory
Layer: 1
Undoes
EndUndoes
Redoes
EndRedoes
EndUndoRedoHistory
Fore
SplineSet
714 708 m 1,0,-1
 552 970 l 1,1,-1
 393 713 l 1,2,-1
 251 804 l 1,3,-1
 447 1042 l 1,4,-1
 176 1132 l 1,5,-1
 233 1277 l 1,6,-1
 486 1156 l 1,7,-1
 456 1457 l 1,8,-1
 631 1457 l 1,9,-1
 614 1156 l 1,10,-1
 850 1277 l 1,11,-1
 920 1132 l 1,12,-1
 655 1042 l 1,13,-1
 858 797 l 1,14,-1
 714 708 l 1,0,-1
EndSplineSet
EndChar

StartChar: plus
Encoding: 43 43 14
Width: 1206
GlyphClass: 2
Flags: W
LayerCount: 2
UndoRedoHistory
Layer: 1
Undoes
EndUndoes
Redoes
EndRedoes
EndUndoRedoHistory
Fore
SplineSet
515 102 m 1,0,-1
 515 515 l 1,1,-1
 131 515 l 1,2,-1
 131 675 l 1,3,-1
 515 675 l 1,4,-1
 515 1075 l 1,5,-1
 691 1075 l 1,6,-1
 691 675 l 1,7,-1
 1076 675 l 1,8,-1
 1076 515 l 1,9,-1
 691 515 l 1,10,-1
 691 102 l 1,11,-1
 515 102 l 1,0,-1
EndSplineSet
EndChar

StartChar: comma
Encoding: 44 44 15
Width: 491
GlyphClass: 2
Flags: W
LayerCount: 2
UndoRedoHistory
Layer: 1
Undoes
EndUndoes
Redoes
EndRedoes
EndUndoRedoHistory
Fore
SplineSet
70 -281 m 1,0,-1
 179 225 l 1,1,-1
 393 225 l 1,2,-1
 225 -281 l 1,3,-1
 70 -281 l 1,0,-1
EndSplineSet
EndChar

StartChar: hyphen
Encoding: 45 45 16
Width: 684
GlyphClass: 2
Flags: W
LayerCount: 2
UndoRedoHistory
Layer: 1
Undoes
EndUndoes
Redoes
EndRedoes
EndUndoRedoHistory
Fore
SplineSet
62 484 m 1,0,-1
 62 632 l 1,1,-1
 622 632 l 1,2,-1
 622 484 l 1,3,-1
 62 484 l 1,0,-1
EndSplineSet
EndChar

StartChar: period
Encoding: 46 46 17
Width: 543
GlyphClass: 2
Flags: W
LayerCount: 2
UndoRedoHistory
Layer: 1
Undoes
EndUndoes
Redoes
EndRedoes
EndUndoRedoHistory
Fore
SplineSet
148 0 m 1,0,-1
 148 228 l 1,1,-1
 387 228 l 1,2,-1
 387 0 l 1,3,-1
 148 0 l 1,0,-1
EndSplineSet
EndChar

StartChar: slash
Encoding: 47 47 18
Width: 1058
GlyphClass: 2
Flags: W
LayerCount: 2
UndoRedoHistory
Layer: 1
Undoes
EndUndoes
Redoes
EndRedoes
EndUndoRedoHistory
Fore
SplineSet
166 -98 m 1,0,-1
 718 1456 l 1,1,-1
 901 1456 l 1,2,-1
 344 -98 l 1,3,-1
 166 -98 l 1,0,-1
EndSplineSet
EndChar

StartChar: zero
Encoding: 48 48 19
Width: 1234
GlyphClass: 2
Flags: W
LayerCount: 2
UndoRedoHistory
Layer: 1
Undoes
EndUndoes
Redoes
EndRedoes
EndUndoRedoHistory
Fore
SplineSet
621 -23 m 0,0,1
 460 -23 460 -23 347 74 c 128,-1,2
 234 171 234 171 179 339.5 c 128,-1,3
 124 508 124 508 124 733 c 0,4,5
 124 1089 124 1089 251 1286 c 128,-1,6
 378 1483 378 1483 623 1483 c 0,7,8
 866 1483 866 1483 988 1285 c 128,-1,9
 1110 1087 1110 1087 1110 732 c 0,10,11
 1110 505 1110 505 1058.5 338 c 128,-1,12
 1007 171 1007 171 895.5 74 c 128,-1,13
 784 -23 784 -23 621 -23 c 0,0,1
624 145 m 0,14,15
 904 145 904 145 904 732 c 0,16,17
 904 1314 904 1314 623 1314 c 0,18,19
 543 1314 543 1314 484.5 1270 c 128,-1,20
 426 1226 426 1226 392 1145 c 128,-1,21
 358 1064 358 1064 342 962 c 128,-1,22
 326 860 326 860 326 733 c 0,23,24
 326 603 326 603 342 499 c 128,-1,25
 358 395 358 395 392.5 314 c 128,-1,26
 427 233 427 233 485.5 189 c 128,-1,27
 544 145 544 145 624 145 c 0,14,15
EndSplineSet
EndChar

StartChar: one
Encoding: 49 49 20
Width: 1234
GlyphClass: 2
Flags: W
LayerCount: 2
UndoRedoHistory
Layer: 1
Undoes
EndUndoes
Redoes
EndRedoes
EndUndoRedoHistory
Fore
SplineSet
283 0 m 1,0,-1
 283 152 l 1,1,-1
 557 152 l 1,2,-1
 557 1245 l 1,3,4
 455 1190 455 1190 260 1118 c 1,5,-1
 260 1296 l 1,6,7
 428 1355 428 1355 598 1456 c 1,8,-1
 753 1456 l 1,9,-1
 753 152 l 1,10,-1
 1017 152 l 1,11,-1
 1017 0 l 1,12,-1
 283 0 l 1,0,-1
EndSplineSet
EndChar

StartChar: two
Encoding: 50 50 21
Width: 1234
GlyphClass: 2
Flags: W
LayerCount: 2
UndoRedoHistory
Layer: 1
Undoes
EndUndoes
Redoes
EndRedoes
EndUndoRedoHistory
Fore
SplineSet
598 1482 m 0,0,1
 725 1482 725 1482 825 1426 c 128,-1,2
 925 1370 925 1370 980.5 1271.5 c 128,-1,3
 1036 1173 1036 1173 1036 1049 c 0,4,5
 1036 977 1036 977 1021 916.5 c 128,-1,6
 1006 856 1006 856 967.5 789.5 c 128,-1,7
 929 723 929 723 881.5 661.5 c 128,-1,8
 834 600 834 600 752 507 c 1,9,-1
 439 164 l 1,10,-1
 1031 164 l 1,11,-1
 1031 0 l 1,12,-1
 208 0 l 1,13,-1
 208 158 l 1,14,-1
 637 643 l 1,15,16
 759 789 759 789 801 869.5 c 128,-1,17
 843 950 843 950 843 1040 c 0,18,19
 843 1098 843 1098 825.5 1148.5 c 128,-1,20
 808 1199 808 1199 776 1236 c 128,-1,21
 744 1273 744 1273 695 1294 c 128,-1,22
 646 1315 646 1315 586 1315 c 0,23,24
 528 1315 528 1315 470 1302 c 128,-1,25
 412 1289 412 1289 370 1270.5 c 128,-1,26
 328 1252 328 1252 294 1233 c 128,-1,27
 260 1214 260 1214 243 1201 c 2,28,-1
 226 1188 l 1,29,-1
 164 1341 l 1,30,31
 171 1347 171 1347 184 1356.5 c 128,-1,32
 197 1366 197 1366 240 1390 c 128,-1,33
 283 1414 283 1414 330 1433 c 128,-1,34
 377 1452 377 1452 450 1467 c 128,-1,35
 523 1482 523 1482 598 1482 c 0,0,1
EndSplineSet
EndChar

StartChar: three
Encoding: 51 51 22
Width: 1234
GlyphClass: 2
Flags: W
LayerCount: 2
UndoRedoHistory
Layer: 1
Undoes
EndUndoes
Redoes
EndRedoes
EndUndoRedoHistory
Fore
SplineSet
582 -23 m 0,0,1
 517 -23 517 -23 452 -12 c 128,-1,2
 387 -1 387 -1 344.5 11.5 c 128,-1,3
 302 24 302 24 258.5 42.5 c 128,-1,4
 215 61 215 61 203 67.5 c 128,-1,5
 191 74 191 74 178 82 c 1,6,-1
 233 235 l 1,7,8
 404 145 404 145 569 145 c 0,9,10
 710 145 710 145 796.5 216 c 128,-1,11
 883 287 883 287 883 410 c 0,12,13
 883 550 883 550 779.5 616.5 c 128,-1,14
 676 683 676 683 488 681 c 2,15,-1
 417 680 l 1,16,-1
 415 846 l 1,17,-1
 479 846 l 2,18,19
 665 846 665 846 756.5 904 c 128,-1,20
 848 962 848 962 848 1106 c 0,21,22
 848 1207 848 1207 763.5 1262 c 128,-1,23
 679 1317 679 1317 561 1317 c 0,24,25
 373 1317 373 1317 225 1187 c 1,26,-1
 135 1318 l 1,27,28
 218 1402 218 1402 327 1442.5 c 128,-1,29
 436 1483 436 1483 585 1483 c 0,30,31
 672 1483 672 1483 753 1458.5 c 128,-1,32
 834 1434 834 1434 898.5 1388.5 c 128,-1,33
 963 1343 963 1343 1002 1270.5 c 128,-1,34
 1041 1198 1041 1198 1041 1109 c 0,35,36
 1041 979 1041 979 972.5 888.5 c 128,-1,37
 904 798 904 798 776 766 c 1,38,39
 918 737 918 737 997.5 641 c 128,-1,40
 1077 545 1077 545 1077 404 c 0,41,42
 1077 210 1077 210 935.5 93.5 c 128,-1,43
 794 -23 794 -23 582 -23 c 0,0,1
EndSplineSet
EndChar

StartChar: four
Encoding: 52 52 23
Width: 1234
GlyphClass: 2
Flags: W
LayerCount: 2
UndoRedoHistory
Layer: 1
Undoes
EndUndoes
Redoes
EndRedoes
EndUndoRedoHistory
Fore
SplineSet
302 521 m 1,0,-1
 750 521 l 1,1,-1
 750 1285 l 1,2,-1
 595 1006 l 1,3,-1
 302 521 l 1,0,-1
749 0 m 1,4,-1
 749 385 l 1,5,-1
 105 385 l 1,6,-1
 105 504 l 1,7,-1
 707 1456 l 1,8,-1
 937 1456 l 1,9,-1
 937 521 l 1,10,-1
 1157 521 l 1,11,-1
 1157 385 l 1,12,-1
 939 385 l 1,13,-1
 939 0 l 1,14,-1
 749 0 l 1,4,-1
EndSplineSet
EndChar

StartChar: five
Encoding: 53 53 24
Width: 1234
GlyphClass: 2
Flags: W
LayerCount: 2
UndoRedoHistory
Layer: 1
Undoes
EndUndoes
Redoes
EndRedoes
EndUndoRedoHistory
Fore
SplineSet
610 -23 m 0,0,1
 333 -23 333 -23 165 149 c 1,2,-1
 260 295 l 1,3,4
 394 145 394 145 607 145 c 0,5,6
 750 145 750 145 829 236.5 c 128,-1,7
 908 328 908 328 908 473 c 0,8,9
 908 602 908 602 839 689 c 128,-1,10
 770 776 770 776 647 776 c 0,11,12
 580 776 580 776 516 750 c 128,-1,13
 452 724 452 724 423 680 c 1,14,-1
 238 690 l 1,15,-1
 238 1456 l 1,16,-1
 1025 1456 l 1,17,-1
 1025 1287 l 1,18,-1
 420 1287 l 1,19,-1
 406 852 l 1,20,21
 450 900 450 900 520 924.5 c 128,-1,22
 590 949 590 949 666 949 c 0,23,24
 798 949 798 949 900 885.5 c 128,-1,25
 1002 822 1002 822 1056 713 c 128,-1,26
 1110 604 1110 604 1110 469 c 0,27,28
 1110 250 1110 250 973 113.5 c 128,-1,29
 836 -23 836 -23 610 -23 c 0,0,1
EndSplineSet
EndChar

StartChar: six
Encoding: 54 54 25
Width: 1234
GlyphClass: 2
Flags: W
LayerCount: 2
UndoRedoHistory
Layer: 1
Undoes
EndUndoes
Redoes
EndRedoes
EndUndoRedoHistory
Fore
SplineSet
660 145 m 0,0,1
 787 145 787 145 861 234.5 c 128,-1,2
 935 324 935 324 935 463 c 0,3,4
 935 605 935 605 864 693.5 c 128,-1,5
 793 782 793 782 658 782 c 0,6,7
 528 782 528 782 445 702.5 c 128,-1,8
 362 623 362 623 362 499 c 0,9,10
 362 333 362 333 441 239 c 128,-1,11
 520 145 520 145 660 145 c 0,0,1
658 -23 m 0,12,13
 486 -23 486 -23 368 68.5 c 128,-1,14
 250 160 250 160 195 318.5 c 128,-1,15
 140 477 140 477 140 694 c 0,16,17
 140 825 140 825 162.5 942 c 128,-1,18
 185 1059 185 1059 231 1158.5 c 128,-1,19
 277 1258 277 1258 343.5 1330 c 128,-1,20
 410 1402 410 1402 503.5 1442.5 c 128,-1,21
 597 1483 597 1483 709 1483 c 0,22,23
 920 1483 920 1483 1054 1366 c 1,24,-1
 987 1223 l 1,25,26
 872 1314 872 1314 711 1314 c 0,27,28
 643 1314 643 1314 586 1288 c 128,-1,29
 529 1262 529 1262 488 1217 c 128,-1,30
 447 1172 447 1172 417 1109.5 c 128,-1,31
 387 1047 387 1047 370.5 975 c 128,-1,32
 354 903 354 903 348 822 c 0,33,34
 346 802 346 802 346 760 c 1,35,36
 465 942 465 942 693 942 c 0,37,38
 889 942 889 942 1013.5 812.5 c 128,-1,39
 1138 683 1138 683 1138 468 c 0,40,41
 1138 254 1138 254 1007.5 115.5 c 128,-1,42
 877 -23 877 -23 658 -23 c 0,12,13
EndSplineSet
EndChar

StartChar: seven
Encoding: 55 55 26
Width: 1234
GlyphClass: 2
Flags: W
LayerCount: 2
UndoRedoHistory
Layer: 1
Undoes
EndUndoes
Redoes
EndRedoes
EndUndoRedoHistory
Fore
SplineSet
346 0 m 1,0,-1
 849 1292 l 1,1,-1
 165 1292 l 1,2,-1
 165 1456 l 1,3,-1
 1071 1456 l 1,4,-1
 1071 1309 l 1,5,-1
 558 0 l 1,6,-1
 346 0 l 1,0,-1
EndSplineSet
EndChar

StartChar: eight
Encoding: 56 56 27
Width: 1234
GlyphClass: 2
Flags: W
LayerCount: 2
UndoRedoHistory
Layer: 1
Undoes
EndUndoes
Redoes
EndRedoes
EndUndoRedoHistory
Fore
SplineSet
616 843 m 1,0,1
 741 870 741 870 807.5 936.5 c 128,-1,2
 874 1003 874 1003 874 1106 c 0,3,4
 874 1206 874 1206 800 1263 c 128,-1,5
 726 1320 726 1320 616 1320 c 128,-1,6
 506 1320 506 1320 433 1263.5 c 128,-1,7
 360 1207 360 1207 360 1103 c 0,8,9
 360 1002 360 1002 426.5 936 c 128,-1,10
 493 870 493 870 616 843 c 1,0,1
616 144 m 0,11,12
 747 144 747 144 824.5 208.5 c 128,-1,13
 902 273 902 273 902 394 c 0,14,15
 902 503 902 503 824 579 c 128,-1,16
 746 655 746 655 618 683 c 1,17,18
 489 656 489 656 410.5 580.5 c 128,-1,19
 332 505 332 505 332 393 c 0,20,21
 332 274 332 274 409.5 209 c 128,-1,22
 487 144 487 144 616 144 c 0,11,12
618 -23 m 0,23,24
 520 -23 520 -23 433 4 c 128,-1,25
 346 31 346 31 279.5 81.5 c 128,-1,26
 213 132 213 132 174.5 209.5 c 128,-1,27
 136 287 136 287 136 381 c 0,28,29
 136 514 136 514 211 613.5 c 128,-1,30
 286 713 286 713 424 763 c 1,31,32
 303 811 303 811 235.5 899 c 128,-1,33
 168 987 168 987 168 1109 c 0,34,35
 168 1224 168 1224 228 1309.5 c 128,-1,36
 288 1395 288 1395 388.5 1439 c 128,-1,37
 489 1483 489 1483 616 1483 c 0,38,39
 745 1483 745 1483 847 1438.5 c 128,-1,40
 949 1394 949 1394 1007.5 1307.5 c 128,-1,41
 1066 1221 1066 1221 1066 1106 c 0,42,43
 1066 983 1066 983 999 895 c 128,-1,44
 932 807 932 807 812 762 c 1,45,46
 946 713 946 713 1022 611.5 c 128,-1,47
 1098 510 1098 510 1098 378 c 0,48,49
 1098 284 1098 284 1059 206.5 c 128,-1,50
 1020 129 1020 129 953 79.5 c 128,-1,51
 886 30 886 30 799.5 3.5 c 128,-1,52
 713 -23 713 -23 618 -23 c 0,23,24
EndSplineSet
EndChar

StartChar: nine
Encoding: 57 57 28
Width: 1234
GlyphClass: 2
Flags: W
LayerCount: 2
UndoRedoHistory
Layer: 1
Undoes
EndUndoes
Redoes
EndRedoes
EndUndoRedoHistory
Fore
SplineSet
326 1006 m 0,0,1
 326 939 326 939 341 884.5 c 128,-1,2
 356 830 356 830 387.5 787.5 c 128,-1,3
 419 745 419 745 471.5 722 c 128,-1,4
 524 699 524 699 594 699 c 0,5,6
 679 699 679 699 744 734 c 128,-1,7
 809 769 809 769 845.5 837 c 128,-1,8
 882 905 882 905 882 998 c 0,9,10
 882 1060 882 1060 864.5 1116 c 128,-1,11
 847 1172 847 1172 813 1217 c 128,-1,12
 779 1262 779 1262 724 1288 c 128,-1,13
 669 1314 669 1314 600 1314 c 0,14,15
 473 1314 473 1314 399.5 1228.5 c 128,-1,16
 326 1143 326 1143 326 1006 c 0,0,1
554 -24 m 0,17,18
 375 -24 375 -24 196 68 c 1,19,-1
 258 223 l 1,20,21
 397 145 397 145 540 145 c 0,22,23
 703 145 703 145 797.5 273.5 c 128,-1,24
 892 402 892 402 892 649 c 2,25,-1
 892 702 l 1,26,27
 800 536 800 536 570 536 c 0,28,29
 434 536 434 536 333 595.5 c 128,-1,30
 232 655 232 655 180 759.5 c 128,-1,31
 128 864 128 864 128 1000 c 0,32,33
 128 1102 128 1102 160.5 1190.5 c 128,-1,34
 193 1279 193 1279 253 1344 c 128,-1,35
 313 1409 313 1409 403.5 1446 c 128,-1,36
 494 1483 494 1483 604 1483 c 0,37,38
 843 1483 843 1483 965.5 1302 c 128,-1,39
 1088 1121 1088 1121 1088 773 c 0,40,41
 1088 574 1088 574 1049 421 c 128,-1,42
 1010 268 1010 268 939 171 c 128,-1,43
 868 74 868 74 771 25 c 128,-1,44
 674 -24 674 -24 554 -24 c 0,17,18
EndSplineSet
EndChar

StartChar: colon
Encoding: 58 58 29
Width: 544
GlyphClass: 2
Flags: W
LayerCount: 2
UndoRedoHistory
Layer: 1
Undoes
EndUndoes
Redoes
EndRedoes
EndUndoRedoHistory
Fore
SplineSet
151 797 m 1,0,-1
 151 1026 l 1,1,-1
 393 1026 l 1,2,-1
 393 797 l 1,3,-1
 151 797 l 1,0,-1
151 0 m 1,4,-1
 151 228 l 1,5,-1
 393 228 l 1,6,-1
 393 0 l 1,7,-1
 151 0 l 1,4,-1
EndSplineSet
EndChar

StartChar: semicolon
Encoding: 59 59 30
Width: 543
GlyphClass: 2
Flags: W
LayerCount: 2
UndoRedoHistory
Layer: 1
Undoes
EndUndoes
Redoes
EndRedoes
EndUndoRedoHistory
Fore
SplineSet
166 798 m 1,0,-1
 166 1026 l 1,1,-1
 393 1026 l 1,2,-1
 393 798 l 1,3,-1
 166 798 l 1,0,-1
87 -281 m 1,4,-1
 196 225 l 1,5,-1
 410 225 l 1,6,-1
 242 -281 l 1,7,-1
 87 -281 l 1,4,-1
EndSplineSet
EndChar

StartChar: less
Encoding: 60 60 31
Width: 1267
GlyphClass: 2
Flags: W
LayerCount: 2
UndoRedoHistory
Layer: 1
Undoes
EndUndoes
Redoes
EndRedoes
EndUndoRedoHistory
Fore
SplineSet
1049 65 m 1,0,-1
 108 532 l 1,1,-1
 108 629 l 1,2,-1
 1053 1075 l 1,3,-1
 1053 899 l 1,4,-1
 347 578 l 1,5,-1
 1049 239 l 1,6,-1
 1049 65 l 1,0,-1
EndSplineSet
EndChar

StartChar: equal
Encoding: 61 61 32
Width: 1303
GlyphClass: 2
Flags: W
LayerCount: 2
UndoRedoHistory
Layer: 1
Undoes
EndUndoes
Redoes
EndRedoes
EndUndoRedoHistory
Fore
SplineSet
174 682 m 1,0,-1
 174 839 l 1,1,-1
 1128 839 l 1,2,-1
 1128 682 l 1,3,-1
 174 682 l 1,0,-1
175 290 m 1,4,-1
 175 446 l 1,5,-1
 1130 446 l 1,6,-1
 1130 290 l 1,7,-1
 175 290 l 1,4,-1
EndSplineSet
EndChar

StartChar: greater
Encoding: 62 62 33
Width: 1268
GlyphClass: 2
Flags: W
LayerCount: 2
UndoRedoHistory
Layer: 1
Undoes
EndUndoes
Redoes
EndRedoes
EndUndoRedoHistory
Fore
SplineSet
214 66 m 1,0,-1
 214 244 l 1,1,-1
 915 561 l 1,2,-1
 219 903 l 1,3,-1
 219 1078 l 1,4,-1
 1161 603 l 1,5,-1
 1161 504 l 1,6,-1
 214 66 l 1,0,-1
EndSplineSet
EndChar

StartChar: question
Encoding: 63 63 34
Width: 1055
GlyphClass: 2
Flags: W
LayerCount: 2
UndoRedoHistory
Layer: 1
Undoes
EndUndoes
Redoes
EndRedoes
EndUndoRedoHistory
Fore
SplineSet
307 -7 m 1,0,-1
 307 221 l 1,1,-1
 545 221 l 1,2,-1
 545 -7 l 1,3,-1
 307 -7 l 1,0,-1
341 381 m 1,4,-1
 341 523 l 2,5,6
 341 592 341 592 379.5 658 c 128,-1,7
 418 724 418 724 473 777.5 c 128,-1,8
 528 831 528 831 583 884 c 128,-1,9
 638 937 638 937 676.5 999 c 128,-1,10
 715 1061 715 1061 715 1123 c 0,11,12
 715 1222 715 1222 647 1269 c 128,-1,13
 579 1316 579 1316 468 1316 c 0,14,15
 388 1316 388 1316 308 1292.5 c 128,-1,16
 228 1269 228 1269 178 1243 c 1,17,-1
 178 1411 l 1,18,19
 236 1440 236 1440 321 1460 c 128,-1,20
 406 1480 406 1480 489 1480 c 0,21,22
 678 1480 678 1480 794.5 1390 c 128,-1,23
 911 1300 911 1300 911 1130 c 0,24,25
 911 1069 911 1069 888 1012.5 c 128,-1,26
 865 956 865 956 828 911.5 c 128,-1,27
 791 867 791 867 746.5 824 c 128,-1,28
 702 781 702 781 658 741 c 128,-1,29
 614 701 614 701 577 661 c 128,-1,30
 540 621 540 621 517 573.5 c 128,-1,31
 494 526 494 526 494 477 c 2,32,-1
 494 381 l 1,33,-1
 341 381 l 1,4,-1
EndSplineSet
EndChar

StartChar: at
Encoding: 64 64 35
Width: 1771
GlyphClass: 2
Flags: W
LayerCount: 2
UndoRedoHistory
Layer: 1
Undoes
EndUndoes
Redoes
EndRedoes
EndUndoRedoHistory
Fore
SplineSet
815 411 m 0,0,1
 928 411 928 411 1013 539 c 128,-1,2
 1098 667 1098 667 1098 825 c 0,3,4
 1098 906 1098 906 1057.5 957 c 128,-1,5
 1017 1008 1017 1008 946 1008 c 0,6,7
 867 1008 867 1008 798 941.5 c 128,-1,8
 729 875 729 875 692.5 780 c 128,-1,9
 656 685 656 685 656 592 c 0,10,11
 656 511 656 511 700 461 c 128,-1,12
 744 411 744 411 815 411 c 0,0,1
927 -89 m 0,13,14
 696 -89 696 -89 511 3 c 128,-1,15
 326 95 326 95 216.5 271.5 c 128,-1,16
 107 448 107 448 107 680 c 0,17,18
 107 860 107 860 174.5 1012 c 128,-1,19
 242 1164 242 1164 356 1265 c 128,-1,20
 470 1366 470 1366 620.5 1422.5 c 128,-1,21
 771 1479 771 1479 937 1479 c 0,22,23
 1089 1479 1089 1479 1223 1428 c 128,-1,24
 1357 1377 1357 1377 1454 1287.5 c 128,-1,25
 1551 1198 1551 1198 1607.5 1071 c 128,-1,26
 1664 944 1664 944 1664 797 c 0,27,28
 1664 653 1664 653 1610.5 526.5 c 128,-1,29
 1557 400 1557 400 1469 326.5 c 128,-1,30
 1381 253 1381 253 1284 253 c 0,31,32
 1086 253 1086 253 1086 458 c 1,33,34
 1052 376 1052 376 972.5 321 c 128,-1,35
 893 266 893 266 796 266 c 0,36,37
 737 266 737 266 680.5 289.5 c 128,-1,38
 624 313 624 313 578 356.5 c 128,-1,39
 532 400 532 400 505 470 c 128,-1,40
 478 540 478 540 481 625 c 0,41,42
 484 729 484 729 525 825.5 c 128,-1,43
 566 922 566 922 629 990.5 c 128,-1,44
 692 1059 692 1059 771.5 1100 c 128,-1,45
 851 1141 851 1141 930 1141 c 0,46,47
 1010 1141 1010 1141 1069.5 1107 c 128,-1,48
 1129 1073 1129 1073 1148 1004 c 1,49,-1
 1173 1114 l 1,50,-1
 1332 1114 l 1,51,-1
 1226 606 l 2,52,53
 1202 495 1202 495 1202 446 c 0,54,55
 1202 410 1202 410 1219.5 386 c 128,-1,56
 1237 362 1237 362 1274 362 c 0,57,58
 1335 362 1335 362 1394.5 421 c 128,-1,59
 1454 480 1454 480 1492.5 583.5 c 128,-1,60
 1531 687 1531 687 1531 802 c 0,61,62
 1531 966 1531 966 1450.5 1092.5 c 128,-1,63
 1370 1219 1370 1219 1236 1285 c 128,-1,64
 1102 1351 1102 1351 938 1351 c 0,65,66
 829 1351 829 1351 729.5 1323 c 128,-1,67
 630 1295 630 1295 545.5 1238 c 128,-1,68
 461 1181 461 1181 398.5 1101.5 c 128,-1,69
 336 1022 336 1022 301 913.5 c 128,-1,70
 266 805 266 805 266 679 c 0,71,72
 266 555 266 555 301.5 449.5 c 128,-1,73
 337 344 337 344 399 269 c 128,-1,74
 461 194 461 194 546 141 c 128,-1,75
 631 88 631 88 730 62 c 128,-1,76
 829 36 829 36 937 36 c 0,77,78
 1072 36 1072 36 1204 76 c 128,-1,79
 1336 116 1336 116 1432 194 c 1,80,-1
 1503 109 l 1,81,82
 1405 12 1405 12 1250.5 -38.5 c 128,-1,83
 1096 -89 1096 -89 927 -89 c 0,13,14
EndSplineSet
EndChar

StartChar: A
Encoding: 65 65 36
Width: 1401
GlyphClass: 2
Flags: W
AnchorPoint: "Anchor-2" 700 1480 basechar 0
AnchorPoint: "Anchor-1" 826 0 basechar 0
AnchorPoint: "Anchor-0" 1260 0 basechar 0
LayerCount: 2
UndoRedoHistory
Layer: 1
Undoes
EndUndoes
Redoes
EndRedoes
EndUndoRedoHistory
Fore
SplineSet
26 0 m 1,0,-1
 596 1456 l 1,1,-1
 803 1456 l 1,2,-1
 1376 0 l 1,3,-1
 1162 0 l 1,4,-1
 1014 380 l 1,5,-1
 383 380 l 1,6,-1
 237 0 l 1,7,-1
 26 0 l 1,0,-1
445 552 m 1,8,-1
 946 552 l 1,9,-1
 696 1256 l 1,10,-1
 445 552 l 1,8,-1
EndSplineSet
EndChar

StartChar: B
Encoding: 66 66 37
Width: 1353
GlyphClass: 2
Flags: W
AnchorPoint: "Anchor-2" 660 1456 basechar 0
AnchorPoint: "Anchor-1" 833 0 basechar 0
LayerCount: 2
UndoRedoHistory
Layer: 1
Undoes
EndUndoes
Redoes
EndRedoes
EndUndoRedoHistory
Fore
SplineSet
392 844 m 1,0,-1
 627 844 l 2,1,2
 961 844 961 844 961 1076 c 0,3,4
 961 1129 961 1129 943.5 1167.5 c 128,-1,5
 926 1206 926 1206 897 1229 c 128,-1,6
 868 1252 868 1252 821 1265 c 128,-1,7
 774 1278 774 1278 724.5 1282.5 c 128,-1,8
 675 1287 675 1287 606 1287 c 2,9,-1
 392 1287 l 1,10,-1
 392 844 l 1,0,-1
393 169 m 1,11,-1
 679 169 l 2,12,13
 850 169 850 169 939 231 c 128,-1,14
 1028 293 1028 293 1028 416 c 0,15,16
 1028 563 1028 563 941 621.5 c 128,-1,17
 854 680 854 680 651 680 c 2,18,-1
 393 680 l 1,19,-1
 393 169 l 1,11,-1
196 0 m 1,20,-1
 196 1456 l 1,21,-1
 566 1456 l 2,22,23
 631 1456 631 1456 684 1453.5 c 128,-1,24
 737 1451 737 1451 801.5 1442 c 128,-1,25
 866 1433 866 1433 915.5 1418 c 128,-1,26
 965 1403 965 1403 1014 1376.5 c 128,-1,27
 1063 1350 1063 1350 1095 1313.5 c 128,-1,28
 1127 1277 1127 1277 1147 1223.5 c 128,-1,29
 1167 1170 1167 1170 1167 1103 c 0,30,31
 1167 986 1167 986 1104.5 899 c 128,-1,32
 1042 812 1042 812 922 779 c 1,33,34
 1069 753 1069 753 1152.5 654.5 c 128,-1,35
 1236 556 1236 556 1236 411 c 0,36,37
 1236 233 1236 233 1100.5 116.5 c 128,-1,38
 965 0 965 0 715 0 c 2,39,-1
 196 0 l 1,20,-1
EndSplineSet
EndChar

StartChar: C
Encoding: 67 67 38
Width: 1394
GlyphClass: 2
Flags: W
AnchorPoint: "Anchor-2" 774 1456 basechar 0
AnchorPoint: "Anchor-1" 826 0 basechar 0
LayerCount: 2
UndoRedoHistory
Layer: 1
Undoes
EndUndoes
Redoes
EndRedoes
EndUndoRedoHistory
Fore
SplineSet
825 -22 m 0,0,1
 684 -22 684 -22 556.5 25 c 128,-1,2
 429 72 429 72 328 161 c 128,-1,3
 227 250 227 250 167 394 c 128,-1,4
 107 538 107 538 107 717 c 0,5,6
 107 935 107 935 197.5 1109.5 c 128,-1,7
 288 1284 288 1284 450 1383 c 128,-1,8
 612 1482 612 1482 816 1482 c 0,9,10
 1096 1482 1096 1482 1278 1332 c 1,11,-1
 1200 1198 l 1,12,13
 1040 1315 1040 1315 834 1315 c 0,14,15
 713 1315 713 1315 613.5 1266.5 c 128,-1,16
 514 1218 514 1218 449.5 1135.5 c 128,-1,17
 385 1053 385 1053 350 945.5 c 128,-1,18
 315 838 315 838 315 718 c 0,19,20
 315 453 315 453 460.5 299.5 c 128,-1,21
 606 146 606 146 835 146 c 0,22,23
 1051 146 1051 146 1246 291 c 1,24,-1
 1312 132 l 1,25,26
 1103 -22 1103 -22 825 -22 c 0,0,1
EndSplineSet
EndChar

StartChar: D
Encoding: 68 68 39
Width: 1533
GlyphClass: 2
Flags: W
AnchorPoint: "Anchor-2" 707 1456 basechar 0
AnchorPoint: "Anchor-1" 833 0 basechar 0
LayerCount: 2
UndoRedoHistory
Layer: 1
Undoes
EndUndoes
Redoes
EndRedoes
EndUndoRedoHistory
Fore
SplineSet
196 0 m 1,0,-1
 196 1456 l 1,1,-1
 531 1456 l 2,2,3
 740 1456 740 1456 900.5 1416.5 c 128,-1,4
 1061 1377 1061 1377 1181 1292 c 128,-1,5
 1301 1207 1301 1207 1363.5 1065.5 c 128,-1,6
 1426 924 1426 924 1426 728 c 0,7,8
 1426 384 1426 384 1217 192 c 128,-1,9
 1008 0 1008 0 620 0 c 2,10,-1
 196 0 l 1,0,-1
392 169 m 1,11,-1
 633 169 l 2,12,13
 926 169 926 169 1072 317 c 128,-1,14
 1218 465 1218 465 1218 726 c 0,15,16
 1218 1023 1218 1023 1057 1155 c 128,-1,17
 896 1287 896 1287 553 1287 c 2,18,-1
 392 1287 l 1,19,-1
 392 169 l 1,11,-1
EndSplineSet
EndChar

StartChar: E
Encoding: 69 69 40
Width: 1182
GlyphClass: 2
Flags: W
AnchorPoint: "Anchor-2" 663 1456 basechar 0
AnchorPoint: "Anchor-1" 833 0 basechar 0
AnchorPoint: "Anchor-0" 857 0 basechar 0
LayerCount: 2
UndoRedoHistory
Layer: 1
Undoes
EndUndoes
Redoes
EndRedoes
EndUndoRedoHistory
Fore
SplineSet
196 0 m 1,0,-1
 196 1456 l 1,1,-1
 1072 1456 l 1,2,-1
 1072 1287 l 1,3,-1
 392 1287 l 1,4,-1
 392 842 l 1,5,-1
 1034 842 l 1,6,-1
 1034 673 l 1,7,-1
 393 673 l 1,8,-1
 393 169 l 1,9,-1
 1102 169 l 1,10,-1
 1102 0 l 1,11,-1
 196 0 l 1,0,-1
EndSplineSet
EndChar

StartChar: F
Encoding: 70 70 41
Width: 1115
GlyphClass: 2
Flags: W
AnchorPoint: "Anchor-2" 675 1456 basechar 0
AnchorPoint: "Anchor-1" 833 0 basechar 0
LayerCount: 2
UndoRedoHistory
Layer: 1
Undoes
EndUndoes
Redoes
EndRedoes
EndUndoRedoHistory
Fore
SplineSet
196 0 m 1,0,-1
 196 1456 l 1,1,-1
 1040 1456 l 1,2,-1
 1040 1287 l 1,3,-1
 392 1287 l 1,4,-1
 392 833 l 1,5,-1
 996 833 l 1,6,-1
 996 664 l 1,7,-1
 392 664 l 1,8,-1
 392 0 l 1,9,-1
 196 0 l 1,0,-1
EndSplineSet
EndChar

StartChar: G
Encoding: 71 71 42
Width: 1528
GlyphClass: 2
Flags: W
AnchorPoint: "Anchor-2" 810 1456 basechar 0
AnchorPoint: "Anchor-1" 826 0 basechar 0
LayerCount: 2
UndoRedoHistory
Layer: 1
Undoes
EndUndoes
Redoes
EndRedoes
EndUndoRedoHistory
Fore
SplineSet
844 -22 m 0,0,1
 607 -22 607 -22 439.5 69 c 128,-1,2
 272 160 272 160 189.5 321.5 c 128,-1,3
 107 483 107 483 107 702 c 0,4,5
 107 872 107 872 164.5 1018 c 128,-1,6
 222 1164 222 1164 322.5 1265.5 c 128,-1,7
 423 1367 423 1367 562 1424.5 c 128,-1,8
 701 1482 701 1482 860 1482 c 0,9,10
 1146 1482 1146 1482 1341 1337 c 1,11,-1
 1262 1200 l 1,12,13
 1095 1315 1095 1315 866 1315 c 0,14,15
 625 1315 625 1315 468 1147 c 128,-1,16
 311 979 311 979 311 714 c 0,17,18
 311 586 311 586 343.5 483 c 128,-1,19
 376 380 376 380 441.5 304 c 128,-1,20
 507 228 507 228 611 186.5 c 128,-1,21
 715 145 715 145 852 145 c 0,22,23
 1024 145 1024 145 1163 197 c 1,24,-1
 1163 600 l 1,25,-1
 799 600 l 1,26,-1
 799 768 l 1,27,-1
 1360 768 l 1,28,-1
 1360 84 l 1,29,30
 1129 -22 1129 -22 844 -22 c 0,0,1
EndSplineSet
EndChar

StartChar: H
Encoding: 72 72 43
Width: 1550
GlyphClass: 2
Flags: W
AnchorPoint: "Anchor-2" 746 1456 basechar 0
AnchorPoint: "Anchor-1" 814 0 basechar 0
LayerCount: 2
UndoRedoHistory
Layer: 1
Undoes
EndUndoes
Redoes
EndRedoes
EndUndoRedoHistory
Fore
SplineSet
196 0 m 1,0,-1
 196 1456 l 1,1,-1
 392 1456 l 1,2,-1
 392 829 l 1,3,-1
 1158 829 l 1,4,-1
 1158 1456 l 1,5,-1
 1354 1456 l 1,6,-1
 1354 0 l 1,7,-1
 1160 0 l 1,8,-1
 1160 663 l 1,9,-1
 394 663 l 1,10,-1
 394 0 l 1,11,-1
 196 0 l 1,0,-1
EndSplineSet
EndChar

StartChar: I
Encoding: 73 73 44
Width: 588
GlyphClass: 2
Flags: W
AnchorPoint: "Anchor-2" 294 1456 basechar 0
AnchorPoint: "Anchor-1" 291 1 basechar 0
LayerCount: 2
UndoRedoHistory
Layer: 1
Undoes
EndUndoes
Redoes
EndRedoes
EndUndoRedoHistory
Fore
SplineSet
196 0 m 1,0,-1
 196 1456 l 1,1,-1
 392 1456 l 1,2,-1
 392 0 l 1,3,-1
 196 0 l 1,0,-1
EndSplineSet
EndChar

StartChar: J
Encoding: 74 74 45
Width: 738
GlyphClass: 2
Flags: W
AnchorPoint: "Anchor-2" 434 1456 basechar 0
AnchorPoint: "Anchor-1" 826 0 basechar 0
LayerCount: 2
UndoRedoHistory
Layer: 1
Undoes
EndUndoes
Redoes
EndRedoes
EndUndoRedoHistory
Fore
SplineSet
200 -330 m 0,0,1
 73 -330 73 -330 -52 -282 c 1,2,-1
 -24 -126 l 1,3,4
 90 -163 90 -163 174 -163 c 0,5,6
 275 -163 275 -163 310.5 -96 c 128,-1,7
 346 -29 346 -29 346 120 c 2,8,-1
 346 1456 l 1,9,-1
 542 1456 l 1,10,-1
 542 117 l 2,11,12
 542 -330 542 -330 200 -330 c 0,0,1
EndSplineSet
EndChar

StartChar: K
Encoding: 75 75 46
Width: 1296
GlyphClass: 2
Flags: W
AnchorPoint: "Anchor-2" 674 1456 basechar 0
AnchorPoint: "Anchor-1" 733 0 basechar 0
LayerCount: 2
UndoRedoHistory
Layer: 1
Undoes
EndUndoes
Redoes
EndRedoes
EndUndoRedoHistory
Fore
SplineSet
196 0 m 1,0,-1
 196 1456 l 1,1,-1
 392 1456 l 1,2,-1
 392 801 l 1,3,-1
 1015 1456 l 1,4,-1
 1258 1456 l 1,5,-1
 588 755 l 1,6,-1
 1306 0 l 1,7,-1
 1057 0 l 1,8,-1
 393 690 l 1,9,-1
 393 0 l 1,10,-1
 196 0 l 1,0,-1
EndSplineSet
EndChar

StartChar: L
Encoding: 76 76 47
Width: 1106
GlyphClass: 2
Flags: W
AnchorPoint: "Anchor-2" 587 1456 basechar 0
AnchorPoint: "Anchor-1" 703 0 basechar 0
LayerCount: 2
UndoRedoHistory
Layer: 1
Undoes
EndUndoes
Redoes
EndRedoes
EndUndoRedoHistory
Fore
SplineSet
196 0 m 1,0,-1
 196 1456 l 1,1,-1
 392 1456 l 1,2,-1
 392 169 l 1,3,-1
 1069 169 l 1,4,-1
 1069 0 l 1,5,-1
 196 0 l 1,0,-1
EndSplineSet
EndChar

StartChar: M
Encoding: 77 77 48
Width: 1919
GlyphClass: 2
Flags: W
AnchorPoint: "Anchor-2" 939 1456 basechar 0
AnchorPoint: "Anchor-1" 833 0 basechar 0
LayerCount: 2
UndoRedoHistory
Layer: 1
Undoes
EndUndoes
Redoes
EndRedoes
EndUndoRedoHistory
Fore
SplineSet
196 0 m 1,0,-1
 196 1456 l 1,1,-1
 436 1456 l 1,2,-1
 868 469 l 1,3,-1
 961 254 l 1,4,-1
 1054 473 l 1,5,-1
 1486 1456 l 1,6,-1
 1723 1456 l 1,7,-1
 1723 0 l 1,8,-1
 1537 0 l 1,9,-1
 1537 1138 l 1,10,-1
 1471 990 l 1,11,-1
 1032 0 l 1,12,-1
 887 0 l 1,13,-1
 456 974 l 1,14,-1
 386 1145 l 1,15,-1
 386 0 l 1,16,-1
 196 0 l 1,0,-1
EndSplineSet
EndChar

StartChar: N
Encoding: 78 78 49
Width: 1592
GlyphClass: 2
Flags: W
AnchorPoint: "Anchor-2" 776 1456 basechar 0
AnchorPoint: "Anchor-1" 811 0 basechar 0
LayerCount: 2
UndoRedoHistory
Layer: 1
Undoes
EndUndoes
Redoes
EndRedoes
EndUndoRedoHistory
Fore
SplineSet
196 0 m 1,0,-1
 196 1456 l 1,1,-1
 409 1456 l 1,2,-1
 1117 414 l 1,3,-1
 1210 275 l 1,4,-1
 1210 1456 l 1,5,-1
 1396 1456 l 1,6,-1
 1396 0 l 1,7,-1
 1183 0 l 1,8,-1
 470 1037 l 1,9,-1
 380 1175 l 1,10,-1
 380 0 l 1,11,-1
 196 0 l 1,0,-1
EndSplineSet
EndChar

StartChar: O
Encoding: 79 79 50
Width: 1630
GlyphClass: 2
Flags: W
AnchorPoint: "Anchor-2" 822 1456 basechar 0
AnchorPoint: "Anchor-1" 826 0 basechar 0
AnchorPoint: "Anchor-0" 873 0 basechar 0
LayerCount: 2
UndoRedoHistory
Layer: 1
Undoes
EndUndoes
Redoes
EndRedoes
EndUndoRedoHistory
Fore
SplineSet
818 -22 m 0,0,1
 485 -22 485 -22 296 180.5 c 128,-1,2
 107 383 107 383 107 730 c 0,3,4
 107 951 107 951 190 1120 c 128,-1,5
 273 1289 273 1289 435.5 1385.5 c 128,-1,6
 598 1482 598 1482 819 1482 c 0,7,8
 1033 1482 1033 1482 1194 1386 c 128,-1,9
 1355 1290 1355 1290 1439.5 1120 c 128,-1,10
 1524 950 1524 950 1524 730 c 0,11,12
 1524 384 1524 384 1336.5 181 c 128,-1,13
 1149 -22 1149 -22 818 -22 c 0,0,1
816 145 m 0,14,15
 1064 145 1064 145 1186.5 301 c 128,-1,16
 1309 457 1309 457 1309 730 c 0,17,18
 1309 856 1309 856 1279.5 961 c 128,-1,19
 1250 1066 1250 1066 1191.5 1146 c 128,-1,20
 1133 1226 1133 1226 1038 1270.5 c 128,-1,21
 943 1315 943 1315 818 1315 c 0,22,23
 656 1315 656 1315 541.5 1236.5 c 128,-1,24
 427 1158 427 1158 372.5 1028 c 128,-1,25
 318 898 318 898 318 730 c 0,26,27
 318 552 318 552 372 422.5 c 128,-1,28
 426 293 426 293 539 219 c 128,-1,29
 652 145 652 145 816 145 c 0,14,15
EndSplineSet
EndChar

StartChar: P
Encoding: 80 80 51
Width: 1259
GlyphClass: 2
Flags: W
AnchorPoint: "Anchor-2" 635 1456 basechar 0
AnchorPoint: "Anchor-1" 833 0 basechar 0
LayerCount: 2
UndoRedoHistory
Layer: 1
Undoes
EndUndoes
Redoes
EndRedoes
EndUndoRedoHistory
Fore
SplineSet
392 826 m 1,0,-1
 657 826 l 2,1,2
 826 826 826 826 908.5 875 c 128,-1,3
 991 924 991 924 991 1055 c 0,4,5
 991 1115 991 1115 974.5 1157 c 128,-1,6
 958 1199 958 1199 929.5 1224.5 c 128,-1,7
 901 1250 901 1250 852 1264 c 128,-1,8
 803 1278 803 1278 750 1282.5 c 128,-1,9
 697 1287 697 1287 618 1287 c 2,10,-1
 392 1287 l 1,11,-1
 392 826 l 1,0,-1
196 0 m 1,12,-1
 196 1456 l 1,13,-1
 613 1456 l 2,14,15
 704 1456 704 1456 774.5 1450 c 128,-1,16
 845 1444 845 1444 913.5 1428 c 128,-1,17
 982 1412 982 1412 1030 1383.5 c 128,-1,18
 1078 1355 1078 1355 1115.5 1311.5 c 128,-1,19
 1153 1268 1153 1268 1171.5 1204 c 128,-1,20
 1190 1140 1190 1140 1190 1057 c 0,21,22
 1190 945 1190 945 1152.5 866 c 128,-1,23
 1115 787 1115 787 1042.5 742.5 c 128,-1,24
 970 698 970 698 876.5 678 c 128,-1,25
 783 658 783 658 659 658 c 2,26,-1
 392 658 l 1,27,-1
 392 0 l 1,28,-1
 196 0 l 1,12,-1
EndSplineSet
EndChar

StartChar: Q
Encoding: 81 81 52
Width: 1628
GlyphClass: 2
Flags: W
AnchorPoint: "Anchor-2" 810 1456 basechar 0
AnchorPoint: "Anchor-1" 826 0 basechar 0
LayerCount: 2
UndoRedoHistory
Layer: 1
Undoes
EndUndoes
Redoes
EndRedoes
EndUndoRedoHistory
Fore
SplineSet
818 -22 m 0,0,1
 485 -22 485 -22 296 180.5 c 128,-1,2
 107 383 107 383 107 730 c 0,3,4
 107 951 107 951 190 1120 c 128,-1,5
 273 1289 273 1289 435.5 1385.5 c 128,-1,6
 598 1482 598 1482 819 1482 c 0,7,8
 1033 1482 1033 1482 1194 1386 c 128,-1,9
 1355 1290 1355 1290 1439.5 1120 c 128,-1,10
 1524 950 1524 950 1524 730 c 0,11,12
 1524 384 1524 384 1336 181 c 0,13,14
 1236 73 1236 73 1096 22 c 1,15,16
 1134 -56 1134 -56 1196 -136 c 0,17,18
 1258 -218 1258 -218 1302 -260 c 2,19,-1
 1345 -302 l 1,20,-1
 1225 -429 l 1,21,22
 1217 -421 1217 -421 1203 -407.5 c 128,-1,23
 1189 -394 1189 -394 1148.5 -349 c 128,-1,24
 1108 -304 1108 -304 1071 -257.5 c 128,-1,25
 1034 -211 1034 -211 990 -143 c 0,26,27
 948 -79 948 -79 917 -17 c 1,28,29
 869 -22 869 -22 818 -22 c 0,0,1
816 145 m 0,30,31
 1064 145 1064 145 1186.5 301 c 128,-1,32
 1309 457 1309 457 1309 730 c 0,33,34
 1309 856 1309 856 1279.5 961 c 128,-1,35
 1250 1066 1250 1066 1191.5 1146 c 128,-1,36
 1133 1226 1133 1226 1038 1270.5 c 128,-1,37
 943 1315 943 1315 818 1315 c 0,38,39
 656 1315 656 1315 541.5 1236.5 c 128,-1,40
 427 1158 427 1158 372.5 1028 c 128,-1,41
 318 898 318 898 318 730 c 0,42,43
 318 552 318 552 372 422.5 c 128,-1,44
 426 293 426 293 539 219 c 128,-1,45
 652 145 652 145 816 145 c 0,30,31
EndSplineSet
EndChar

StartChar: R
Encoding: 82 82 53
Width: 1348
GlyphClass: 2
Flags: W
AnchorPoint: "Anchor-2" 658 1456 basechar 0
AnchorPoint: "Anchor-1" 833 0 basechar 0
LayerCount: 2
UndoRedoHistory
Layer: 1
Undoes
EndUndoes
Redoes
EndRedoes
EndUndoRedoHistory
Fore
SplineSet
391 817 m 1,0,-1
 643 817 l 2,1,2
 697 817 697 817 740.5 823.5 c 128,-1,3
 784 830 784 830 823.5 846.5 c 128,-1,4
 863 863 863 863 889.5 889.5 c 128,-1,5
 916 916 916 916 931.5 958.5 c 128,-1,6
 947 1001 947 1001 947 1057 c 0,7,8
 947 1192 947 1192 880.5 1239.5 c 128,-1,9
 814 1287 814 1287 659 1287 c 2,10,-1
 391 1287 l 1,11,-1
 391 817 l 1,0,-1
196 0 m 1,12,-1
 196 1456 l 1,13,-1
 651 1456 l 2,14,15
 737 1456 737 1456 803 1448.5 c 128,-1,16
 869 1441 869 1441 938 1416.5 c 128,-1,17
 1007 1392 1007 1392 1052.5 1351 c 128,-1,18
 1098 1310 1098 1310 1126.5 1239.5 c 128,-1,19
 1155 1169 1155 1169 1155 1072 c 0,20,21
 1155 789 1155 789 880 722 c 1,22,23
 923 708 923 708 957.5 680 c 128,-1,24
 992 652 992 652 1020 607 c 128,-1,25
 1048 562 1048 562 1064.5 526 c 128,-1,26
 1081 490 1081 490 1107 427 c 2,27,-1
 1276 0 l 1,28,-1
 1064 0 l 1,29,-1
 901 433 l 2,30,31
 867 524 867 524 838.5 566.5 c 128,-1,32
 810 609 810 609 763.5 629.5 c 128,-1,33
 717 650 717 650 634 650 c 2,34,-1
 392 650 l 1,35,-1
 392 0 l 1,36,-1
 196 0 l 1,12,-1
EndSplineSet
EndChar

StartChar: S
Encoding: 83 83 54
Width: 1227
GlyphClass: 2
Flags: W
AnchorPoint: "Anchor-2" 609 1456 basechar 0
AnchorPoint: "Anchor-1" 587 -1 basechar 0
LayerCount: 2
UndoRedoHistory
Layer: 1
Undoes
EndUndoes
Redoes
EndRedoes
EndUndoRedoHistory
Fore
SplineSet
604 -22 m 0,0,1
 516 -22 516 -22 431 -3.5 c 128,-1,2
 346 15 346 15 286 43 c 128,-1,3
 226 71 226 71 186 96 c 128,-1,4
 146 121 146 121 126 142 c 1,5,-1
 213 284 l 1,6,7
 275 236 275 236 379.5 190.5 c 128,-1,8
 484 145 484 145 599 145 c 0,9,10
 744 145 744 145 820.5 207 c 128,-1,11
 897 269 897 269 897 382 c 0,12,13
 897 461 897 461 870 508 c 128,-1,14
 843 555 843 555 767 594.5 c 128,-1,15
 691 634 691 634 537 679 c 0,16,17
 329 739 329 739 234 831 c 128,-1,18
 139 923 139 923 139 1097 c 0,19,20
 139 1191 139 1191 177 1265 c 128,-1,21
 215 1339 215 1339 281.5 1386 c 128,-1,22
 348 1433 348 1433 435.5 1457.5 c 128,-1,23
 523 1482 523 1482 625 1482 c 0,24,25
 919 1482 919 1482 1072 1329 c 1,26,-1
 974 1196 l 1,27,28
 923 1242 923 1242 838.5 1278.5 c 128,-1,29
 754 1315 754 1315 650 1315 c 0,30,31
 514 1315 514 1315 430.5 1262 c 128,-1,32
 347 1209 347 1209 347 1104 c 0,33,34
 347 1064 347 1064 351.5 1036 c 128,-1,35
 356 1008 356 1008 371 983 c 128,-1,36
 386 958 386 958 406.5 940.5 c 128,-1,37
 427 923 427 923 465.5 904.5 c 128,-1,38
 504 886 504 886 548.5 870.5 c 128,-1,39
 593 855 593 855 664 834 c 0,40,41
 793 795 793 795 876.5 753 c 128,-1,42
 960 711 960 711 1010.5 656 c 128,-1,43
 1061 601 1061 601 1081.5 536.5 c 128,-1,44
 1102 472 1102 472 1102 382 c 0,45,46
 1102 282 1102 282 1062.5 203.5 c 128,-1,47
 1023 125 1023 125 954 76.5 c 128,-1,48
 885 28 885 28 796 3 c 128,-1,49
 707 -22 707 -22 604 -22 c 0,0,1
EndSplineSet
EndChar

StartChar: T
Encoding: 84 84 55
Width: 1147
GlyphClass: 2
Flags: W
AnchorPoint: "Anchor-2" 560 1456 basechar 0
AnchorPoint: "Anchor-1" 563 0 basechar 0
LayerCount: 2
UndoRedoHistory
Layer: 1
Undoes
EndUndoes
Redoes
EndRedoes
EndUndoRedoHistory
Fore
SplineSet
473 0 m 1,0,-1
 473 1287 l 1,1,-1
 10 1287 l 1,2,-1
 10 1456 l 1,3,-1
 1137 1456 l 1,4,-1
 1137 1287 l 1,5,-1
 669 1287 l 1,6,-1
 669 0 l 1,7,-1
 473 0 l 1,0,-1
EndSplineSet
EndChar

StartChar: U
Encoding: 85 85 56
Width: 1496
GlyphClass: 2
Flags: W
AnchorPoint: "Anchor-2" 726 1456 basechar 0
AnchorPoint: "Anchor-1" 826 0 basechar 0
AnchorPoint: "Anchor-0" 850 0 basechar 0
LayerCount: 2
UndoRedoHistory
Layer: 1
Undoes
EndUndoes
Redoes
EndRedoes
EndUndoRedoHistory
Fore
SplineSet
743 -22 m 0,0,1
 615 -22 615 -22 516 7 c 128,-1,2
 417 36 417 36 352.5 87 c 128,-1,3
 288 138 288 138 246.5 212.5 c 128,-1,4
 205 287 205 287 187.5 372 c 128,-1,5
 170 457 170 457 170 561 c 2,6,-1
 170 1456 l 1,7,-1
 366 1456 l 1,8,-1
 366 561 l 2,9,10
 366 349 366 349 459.5 247 c 128,-1,11
 553 145 553 145 748 145 c 0,12,13
 1131 145 1131 145 1131 554 c 2,14,-1
 1131 1456 l 1,15,-1
 1326 1456 l 1,16,-1
 1326 565 l 2,17,18
 1326 431 1326 431 1292.5 325.5 c 128,-1,19
 1259 220 1259 220 1190.5 141 c 128,-1,20
 1122 62 1122 62 1008.5 20 c 128,-1,21
 895 -22 895 -22 743 -22 c 0,0,1
EndSplineSet
EndChar

StartChar: V
Encoding: 86 86 57
Width: 1320
GlyphClass: 2
Flags: W
AnchorPoint: "Anchor-2" 660 1456 basechar 0
AnchorPoint: "Anchor-1" 826 0 basechar 0
LayerCount: 2
UndoRedoHistory
Layer: 1
Undoes
EndUndoes
Redoes
EndRedoes
EndUndoRedoHistory
Fore
SplineSet
559 0 m 1,0,-1
 13 1456 l 1,1,-1
 233 1456 l 1,2,-1
 602 413 l 1,3,-1
 665 234 l 1,4,-1
 729 414 l 1,5,-1
 1101 1456 l 1,6,-1
 1307 1456 l 1,7,-1
 764 0 l 1,8,-1
 559 0 l 1,0,-1
EndSplineSet
EndChar

StartChar: W
Encoding: 87 87 58
Width: 1988
GlyphClass: 2
Flags: W
AnchorPoint: "Anchor-2" 975 1456 basechar 0
AnchorPoint: "Anchor-1" 826 0 basechar 0
LayerCount: 2
UndoRedoHistory
Layer: 1
Undoes
EndUndoes
Redoes
EndRedoes
EndUndoRedoHistory
Fore
SplineSet
420 0 m 1,0,-1
 20 1456 l 1,1,-1
 232 1456 l 1,2,-1
 486 457 l 1,3,-1
 540 223 l 1,4,-1
 602 450 l 1,5,-1
 903 1456 l 1,6,-1
 1101 1456 l 1,7,-1
 1404 450 l 1,8,-1
 1467 225 l 1,9,-1
 1515 442 l 1,10,-1
 1766 1456 l 1,11,-1
 1968 1456 l 1,12,-1
 1580 0 l 1,13,-1
 1350 0 l 1,14,-1
 998 1193 l 1,15,-1
 646 0 l 1,16,-1
 420 0 l 1,0,-1
EndSplineSet
EndChar

StartChar: X
Encoding: 88 88 59
Width: 1257
GlyphClass: 2
Flags: W
AnchorPoint: "Anchor-2" 643 1456 basechar 0
AnchorPoint: "Anchor-1" 826 0 basechar 0
LayerCount: 2
UndoRedoHistory
Layer: 1
Undoes
EndUndoes
Redoes
EndRedoes
EndUndoRedoHistory
Fore
SplineSet
1018 0 m 1,0,-1
 625 585 l 1,1,-1
 233 0 l 1,2,-1
 6 0 l 1,3,-1
 513 741 l 1,4,-1
 24 1456 l 1,5,-1
 262 1456 l 1,6,-1
 633 904 l 1,7,-1
 1007 1456 l 1,8,-1
 1230 1456 l 1,9,-1
 744 749 l 1,10,-1
 1252 0 l 1,11,-1
 1018 0 l 1,0,-1
EndSplineSet
EndChar

StartChar: Y
Encoding: 89 89 60
Width: 1225
GlyphClass: 2
Flags: W
AnchorPoint: "Anchor-2" 606 1456 basechar 0
AnchorPoint: "Anchor-1" 826 0 basechar 0
LayerCount: 2
UndoRedoHistory
Layer: 1
Undoes
EndUndoes
Redoes
EndRedoes
EndUndoRedoHistory
Fore
SplineSet
509 0 m 1,0,-1
 509 574 l 1,1,-1
 6 1456 l 1,2,-1
 224 1456 l 1,3,-1
 611 746 l 1,4,-1
 1000 1456 l 1,5,-1
 1219 1456 l 1,6,-1
 705 577 l 1,7,-1
 705 0 l 1,8,-1
 509 0 l 1,0,-1
EndSplineSet
EndChar

StartChar: Z
Encoding: 90 90 61
Width: 1179
GlyphClass: 2
Flags: W
AnchorPoint: "Anchor-2" 623 1456 basechar 0
AnchorPoint: "Anchor-1" 656 0 basechar 0
LayerCount: 2
UndoRedoHistory
Layer: 1
Undoes
EndUndoes
Redoes
EndRedoes
EndUndoRedoHistory
Fore
SplineSet
90 0 m 1,0,-1
 90 105 l 1,1,-1
 825 1287 l 1,2,-1
 121 1287 l 1,3,-1
 121 1456 l 1,4,-1
 1092 1456 l 1,5,-1
 1092 1355 l 1,6,-1
 353 169 l 1,7,-1
 1086 169 l 1,8,-1
 1086 0 l 1,9,-1
 90 0 l 1,0,-1
EndSplineSet
EndChar

StartChar: bracketleft
Encoding: 91 91 62
Width: 657
GlyphClass: 2
Flags: W
LayerCount: 2
UndoRedoHistory
Layer: 1
Undoes
EndUndoes
Redoes
EndRedoes
EndUndoRedoHistory
Fore
SplineSet
169 -225 m 1,0,-1
 169 1470 l 1,1,-1
 580 1470 l 1,2,-1
 580 1328 l 1,3,-1
 358 1328 l 1,4,-1
 358 -83 l 1,5,-1
 581 -83 l 1,6,-1
 581 -225 l 1,7,-1
 169 -225 l 1,0,-1
EndSplineSet
EndChar

StartChar: backslash
Encoding: 92 92 63
Width: 735
GlyphClass: 2
Flags: W
LayerCount: 2
UndoRedoHistory
Layer: 1
Undoes
EndUndoes
Redoes
EndRedoes
EndUndoRedoHistory
Fore
SplineSet
563 -28 m 1,0,-1
 -28 1456 l 1,1,-1
 168 1456 l 1,2,-1
 756 -28 l 1,3,-1
 563 -28 l 1,0,-1
EndSplineSet
EndChar

StartChar: bracketright
Encoding: 93 93 64
Width: 657
GlyphClass: 2
Flags: W
LayerCount: 2
UndoRedoHistory
Layer: 1
Undoes
EndUndoes
Redoes
EndRedoes
EndUndoRedoHistory
Fore
SplineSet
124 -225 m 1,0,-1
 124 -83 l 1,1,-1
 344 -83 l 1,2,-1
 344 1328 l 1,3,-1
 123 1328 l 1,4,-1
 123 1470 l 1,5,-1
 533 1470 l 1,6,-1
 533 -225 l 1,7,-1
 124 -225 l 1,0,-1
EndSplineSet
EndChar

StartChar: asciicircum
Encoding: 94 94 65
Width: 1623
GlyphClass: 2
Flags: W
LayerCount: 2
UndoRedoHistory
Layer: 1
Undoes
EndUndoes
Redoes
EndRedoes
EndUndoRedoHistory
Fore
SplineSet
265 561 m 1,0,-1
 749 1456 l 1,1,-1
 867 1456 l 1,2,-1
 1358 561 l 1,3,-1
 1175 561 l 1,4,-1
 806 1251 l 1,5,-1
 451 561 l 1,6,-1
 265 561 l 1,0,-1
EndSplineSet
EndChar

StartChar: underscore
Encoding: 95 95 66
Width: 946
GlyphClass: 2
Flags: W
LayerCount: 2
UndoRedoHistory
Layer: 1
Undoes
EndUndoes
Redoes
EndRedoes
EndUndoRedoHistory
Fore
SplineSet
-6 -267 m 1,0,-1
 -6 -119 l 1,1,-1
 952 -119 l 1,2,-1
 952 -267 l 1,3,-1
 -6 -267 l 1,0,-1
EndSplineSet
EndChar

StartChar: grave
Encoding: 96 96 67
Width: 597
GlyphClass: 4
Flags: W
AnchorPoint: "Anchor-2" 448 1000 mark 0
LayerCount: 2
UndoRedoHistory
Layer: 1
Undoes
EndUndoes
Redoes
EndRedoes
EndUndoRedoHistory
Fore
SplineSet
379 1174 m 1,0,-1
 42 1587 l 1,1,-1
 287 1587 l 1,2,-1
 538 1174 l 1,3,-1
 379 1174 l 1,0,-1
EndSplineSet
EndChar

StartChar: a
Encoding: 97 97 68
Width: 1275
GlyphClass: 2
Flags: W
AnchorPoint: "Anchor-2" 637 1026 basechar 0
AnchorPoint: "Anchor-1" 826 0 basechar 0
AnchorPoint: "Anchor-0" 994 0 basechar 0
LayerCount: 2
UndoRedoHistory
Layer: 1
Undoes
EndUndoes
Redoes
EndRedoes
EndUndoRedoHistory
Fore
SplineSet
618 898 m 0,0,1
 534 898 534 898 470.5 868 c 128,-1,2
 407 838 407 838 370 784.5 c 128,-1,3
 333 731 333 731 314.5 663.5 c 128,-1,4
 296 596 296 596 296 516 c 0,5,6
 296 437 296 437 314.5 369.5 c 128,-1,7
 333 302 333 302 371 248 c 128,-1,8
 409 194 409 194 472.5 163 c 128,-1,9
 536 132 536 132 620 132 c 0,10,11
 769 132 769 132 849.5 238 c 128,-1,12
 930 344 930 344 930 522 c 0,13,14
 930 686 930 686 849.5 792 c 128,-1,15
 769 898 769 898 618 898 c 0,0,1
923 862 m 1,16,-1
 923 1026 l 1,17,-1
 1111 1026 l 1,18,-1
 1111 0 l 1,19,-1
 922 0 l 1,20,-1
 922 196 l 1,21,22
 886 120 886 120 818 63 c 0,23,24
 716 -22 716 -22 588 -22 c 0,25,26
 497 -22 497 -22 418.5 6.5 c 128,-1,27
 340 35 340 35 282.5 85 c 128,-1,28
 225 135 225 135 184.5 202.5 c 128,-1,29
 144 270 144 270 123.5 349 c 128,-1,30
 103 428 103 428 103 513 c 0,31,32
 103 661 103 661 163 784 c 128,-1,33
 223 907 223 907 333.5 979.5 c 128,-1,34
 444 1052 444 1052 582 1052 c 0,35,36
 655 1052 655 1052 727 1022.5 c 0,37,38
 798 993 798 993 850 948 c 0,39,40
 894 909 894 909 923 862 c 1,16,-1
EndSplineSet
EndChar

StartChar: b
Encoding: 98 98 69
Width: 1274
GlyphClass: 2
Flags: W
AnchorPoint: "Anchor-2" 728 1026 basechar 0
AnchorPoint: "Anchor-1" 826 0 basechar 0
LayerCount: 2
UndoRedoHistory
Layer: 1
Undoes
EndUndoes
Redoes
EndRedoes
EndUndoRedoHistory
Fore
SplineSet
683 132 m 0,0,1
 825 132 825 132 900.5 238 c 128,-1,2
 976 344 976 344 976 531 c 0,3,4
 976 694 976 694 896 796 c 128,-1,5
 816 898 816 898 678 898 c 0,6,7
 531 898 531 898 444 792.5 c 128,-1,8
 357 687 357 687 357 515 c 0,9,10
 357 340 357 340 444.5 236 c 128,-1,11
 532 132 532 132 683 132 c 0,0,1
707 -22 m 0,12,13
 583 -22 583 -22 491 33.5 c 128,-1,14
 399 89 399 89 360 170 c 1,15,-1
 360 0 l 1,16,-1
 166 0 l 1,17,18
 173 262 173 262 173 271 c 2,19,-1
 173 1482 l 1,20,-1
 363 1482 l 1,21,-1
 363 859 l 1,22,23
 403 939 403 939 493 995.5 c 128,-1,24
 583 1052 583 1052 708 1052 c 0,25,26
 919 1052 919 1052 1046 910.5 c 128,-1,27
 1173 769 1173 769 1173 531 c 0,28,29
 1173 279 1173 279 1043 128.5 c 128,-1,30
 913 -22 913 -22 707 -22 c 0,12,13
EndSplineSet
EndChar

StartChar: c
Encoding: 99 99 70
Width: 1036
GlyphClass: 2
Flags: W
AnchorPoint: "Anchor-2" 598 1026 basechar 0
AnchorPoint: "Anchor-1" 600 0 basechar 0
LayerCount: 2
UndoRedoHistory
Layer: 1
Undoes
EndUndoes
Redoes
EndRedoes
EndUndoRedoHistory
Fore
SplineSet
622 -22 m 0,0,1
 387 -22 387 -22 244 125 c 128,-1,2
 101 272 101 272 101 506 c 0,3,4
 101 751 101 751 246.5 901.5 c 128,-1,5
 392 1052 392 1052 627 1052 c 0,6,7
 838 1052 838 1052 961 929 c 1,8,-1
 894 804 l 1,9,10
 787 897 787 897 639 897 c 0,11,12
 568 897 568 897 507.5 873.5 c 128,-1,13
 447 850 447 850 399.5 803.5 c 128,-1,14
 352 757 352 757 324.5 681 c 128,-1,15
 297 605 297 605 297 507 c 0,16,17
 297 334 297 334 387.5 233 c 128,-1,18
 478 132 478 132 633 132 c 0,19,20
 789 132 789 132 910 224 c 1,21,-1
 969 88 l 1,22,23
 825 -22 825 -22 622 -22 c 0,0,1
EndSplineSet
EndChar

StartChar: d
Encoding: 100 100 71
Width: 1265
GlyphClass: 2
Flags: W
AnchorPoint: "Anchor-2" 526 1026 basechar 0
AnchorPoint: "Anchor-1" 826 0 basechar 0
LayerCount: 2
UndoRedoHistory
Layer: 1
Undoes
EndUndoes
Redoes
EndRedoes
EndUndoRedoHistory
Fore
SplineSet
600 132 m 0,0,1
 747 132 747 132 827.5 237 c 128,-1,2
 908 342 908 342 908 525 c 0,3,4
 908 690 908 690 827.5 794 c 128,-1,5
 747 898 747 898 606 898 c 0,6,7
 462 898 462 898 380 792 c 128,-1,8
 298 686 298 686 298 510 c 0,9,10
 298 339 298 339 378 235.5 c 128,-1,11
 458 132 458 132 600 132 c 0,0,1
574 -22 m 0,12,13
 366 -22 366 -22 233.5 122.5 c 128,-1,14
 101 267 101 267 101 507 c 0,15,16
 101 751 101 751 230.5 901.5 c 128,-1,17
 360 1052 360 1052 583 1052 c 0,18,19
 700 1052 700 1052 786 1000.5 c 128,-1,20
 872 949 872 949 904 879 c 1,21,-1
 904 1482 l 1,22,-1
 1094 1482 l 1,23,-1
 1094 262 l 1,24,25
 1095 175 1095 175 1101 0 c 1,26,-1
 909 0 l 1,27,-1
 905 168 l 1,28,29
 873 90 873 90 787.5 34 c 128,-1,30
 702 -22 702 -22 574 -22 c 0,12,13
EndSplineSet
EndChar

StartChar: e
Encoding: 101 101 72
Width: 1160
GlyphClass: 2
Flags: W
AnchorPoint: "Anchor-2" 607 1026 basechar 0
AnchorPoint: "Anchor-1" 823 0 basechar 0
AnchorPoint: "Anchor-0" 865 56 basechar 0
LayerCount: 2
UndoRedoHistory
Layer: 1
Undoes
EndUndoes
Redoes
EndRedoes
EndUndoRedoHistory
Fore
SplineSet
306 617 m 1,0,-1
 882 617 l 1,1,2
 869 755 869 755 796.5 828 c 128,-1,3
 724 901 724 901 610 901 c 0,4,5
 490 901 490 901 408 826 c 128,-1,6
 326 751 326 751 306 617 c 1,0,-1
634 -22 m 0,7,8
 392 -22 392 -22 249 123 c 128,-1,9
 106 268 106 268 106 511 c 0,10,11
 106 749 106 749 244.5 900.5 c 128,-1,12
 383 1052 383 1052 606 1052 c 0,13,14
 816 1052 816 1052 931.5 909.5 c 128,-1,15
 1047 767 1047 767 1047 535 c 0,16,17
 1047 531 1047 531 1044 486 c 1,18,-1
 301 486 l 1,19,20
 304 316 304 316 397.5 224 c 128,-1,21
 491 132 491 132 643 132 c 0,22,23
 827 132 827 132 963 246 c 1,24,-1
 1020 106 l 1,25,26
 864 -22 864 -22 634 -22 c 0,7,8
EndSplineSet
EndChar

StartChar: f
Encoding: 102 102 73
Width: 733
GlyphClass: 2
Flags: W
AnchorPoint: "Anchor-2" 572 1455 basechar 0
AnchorPoint: "Anchor-1" 826 0 basechar 0
LayerCount: 2
UndoRedoHistory
Layer: 1
Undoes
EndUndoes
Redoes
EndRedoes
EndUndoRedoHistory
Fore
SplineSet
252 0 m 1,0,-1
 252 901 l 1,1,-1
 69 901 l 1,2,-1
 69 1026 l 1,3,-1
 252 1026 l 1,4,-1
 252 1108 l 2,5,6
 252 1180 252 1180 257 1228 c 128,-1,7
 262 1276 262 1276 276.5 1323 c 128,-1,8
 291 1370 291 1370 318 1398 c 128,-1,9
 345 1426 345 1426 389 1448 c 128,-1,10
 433 1470 433 1470 497 1479.5 c 128,-1,11
 561 1489 561 1489 649 1489 c 2,12,-1
 697 1489 l 1,13,-1
 694 1342 l 1,14,15
 634 1342 634 1342 593.5 1338.5 c 128,-1,16
 553 1335 553 1335 524 1323.5 c 128,-1,17
 495 1312 495 1312 479.5 1298.5 c 128,-1,18
 464 1285 464 1285 455 1257.5 c 128,-1,19
 446 1230 446 1230 444 1202 c 128,-1,20
 442 1174 442 1174 442 1125 c 2,21,-1
 442 1026 l 1,22,-1
 685 1026 l 1,23,-1
 685 901 l 1,24,-1
 442 901 l 1,25,-1
 442 0 l 1,26,-1
 252 0 l 1,0,-1
EndSplineSet
EndChar

StartChar: g
Encoding: 103 103 74
Width: 1250
GlyphClass: 2
Flags: W
AnchorPoint: "Anchor-2" 622 1026 basechar 0
LayerCount: 2
UndoRedoHistory
Layer: 1
Undoes
EndUndoes
Redoes
EndRedoes
EndUndoRedoHistory
Fore
SplineSet
594 179 m 0,0,1
 748 179 748 179 828 276 c 128,-1,2
 908 373 908 373 908 545 c 0,3,4
 908 707 908 707 828.5 802.5 c 128,-1,5
 749 898 749 898 609 898 c 0,6,7
 464 898 464 898 381 795 c 128,-1,8
 298 692 298 692 298 520 c 0,9,10
 298 354 298 354 375 266.5 c 128,-1,11
 452 179 452 179 594 179 c 0,0,1
905 877 m 1,12,-1
 908 1026 l 1,13,-1
 1102 1026 l 1,14,15
 1092 863 1092 863 1092 746 c 2,16,-1
 1092 147 l 2,17,18
 1092 23 1092 23 1061 -77.5 c 128,-1,19
 1030 -178 1030 -178 968 -253 c 128,-1,20
 906 -328 906 -328 806.5 -369 c 128,-1,21
 707 -410 707 -410 576 -410 c 0,22,23
 371 -410 371 -410 189 -319 c 1,24,-1
 219 -154 l 1,25,26
 311 -209 311 -209 392.5 -234.5 c 128,-1,27
 474 -260 474 -260 569 -260 c 0,28,29
 731 -260 731 -260 817.5 -170.5 c 128,-1,30
 904 -81 904 -81 904 95 c 2,31,-1
 904 202 l 1,32,33
 888 174 888 174 858 142 c 0,34,35
 828 109 828 109 790.5 85 c 128,-1,36
 753 61 753 61 698.5 45 c 128,-1,37
 644 29 644 29 581 29 c 0,38,39
 480 29 480 29 392.5 62.5 c 128,-1,40
 305 96 305 96 240.5 157 c 128,-1,41
 176 218 176 218 138.5 311 c 128,-1,42
 101 404 101 404 101 517 c 0,43,44
 101 759 101 759 228.5 905.5 c 128,-1,45
 356 1052 356 1052 582 1052 c 0,46,47
 796 1052 796 1052 905 877 c 1,12,-1
EndSplineSet
EndChar

StartChar: h
Encoding: 104 104 75
Width: 1236
GlyphClass: 2
Flags: W
AnchorPoint: "Anchor-2" 735 1216 basechar 0
LayerCount: 2
UndoRedoHistory
Layer: 1
Undoes
EndUndoes
Redoes
EndRedoes
EndUndoRedoHistory
Fore
SplineSet
168 0 m 1,0,-1
 168 1482 l 1,1,-1
 358 1482 l 1,2,-1
 358 868 l 1,3,4
 403 951 403 951 499 1001.5 c 128,-1,5
 595 1052 595 1052 704 1052 c 0,6,7
 801 1052 801 1052 875.5 1017.5 c 128,-1,8
 950 983 950 983 994.5 922 c 128,-1,9
 1039 861 1039 861 1061.5 784 c 128,-1,10
 1084 707 1084 707 1084 616 c 2,11,-1
 1084 0 l 1,12,-1
 894 0 l 1,13,-1
 894 612 l 2,14,15
 894 762 894 762 841.5 830 c 128,-1,16
 789 898 789 898 673 898 c 0,17,18
 550 898 550 898 454 814 c 128,-1,19
 358 730 358 730 358 622 c 2,20,-1
 358 0 l 1,21,-1
 168 0 l 1,0,-1
EndSplineSet
EndChar

StartChar: i
Encoding: 105 105 76
Width: 573
GlyphClass: 2
Flags: W
AnchorPoint: "Anchor-1" 300 0 basechar 0
LayerCount: 2
UndoRedoHistory
Layer: 1
Undoes
EndUndoes
Redoes
EndRedoes
EndUndoRedoHistory
Fore
SplineSet
204 1282 m 1,0,-1
 204 1456 l 1,1,-1
 391 1456 l 1,2,-1
 391 1282 l 1,3,-1
 204 1282 l 1,0,-1
201 0 m 1,4,-1
 201 1026 l 1,5,-1
 391 1026 l 1,6,-1
 391 0 l 1,7,-1
 201 0 l 1,4,-1
EndSplineSet
EndChar

StartChar: j
Encoding: 106 106 77
Width: 577
GlyphClass: 2
Flags: W
AnchorPoint: "Anchor-2" 849 1026 basechar 0
AnchorPoint: "Anchor-1" 851 0 basechar 0
LayerCount: 2
UndoRedoHistory
Layer: 1
Undoes
EndUndoes
Redoes
EndRedoes
EndUndoRedoHistory
Fore
SplineSet
209 1282 m 1,0,-1
 209 1456 l 1,1,-1
 399 1456 l 1,2,-1
 399 1282 l 1,3,-1
 209 1282 l 1,0,-1
84 -398 m 0,4,5
 4 -398 4 -398 -84 -376 c 1,6,-1
 -67 -236 l 1,7,-1
 -50 -241 l 2,8,9
 -32 -246 -32 -246 -0.5 -250.5 c 128,-1,10
 31 -255 31 -255 59 -255 c 0,11,12
 148 -255 148 -255 178.5 -201 c 128,-1,13
 209 -147 209 -147 209 4 c 2,14,-1
 209 1026 l 1,15,-1
 399 1026 l 1,16,-1
 399 -4 l 2,17,18
 399 -216 399 -216 327 -307 c 128,-1,19
 255 -398 255 -398 84 -398 c 0,4,5
EndSplineSet
EndChar

StartChar: k
Encoding: 107 107 78
Width: 1078
GlyphClass: 2
Flags: W
AnchorPoint: "Anchor-2" 765 1026 basechar 0
AnchorPoint: "Anchor-1" 636 -1 basechar 0
LayerCount: 2
UndoRedoHistory
Layer: 1
Undoes
EndUndoes
Redoes
EndRedoes
EndUndoRedoHistory
Fore
SplineSet
168 0 m 1,0,-1
 168 1482 l 1,1,-1
 358 1482 l 1,2,-1
 358 593 l 1,3,-1
 795 1026 l 1,4,-1
 1055 1026 l 1,5,-1
 537 538 l 1,6,-1
 1091 0 l 1,7,-1
 839 0 l 1,8,-1
 358 484 l 1,9,-1
 358 0 l 1,10,-1
 168 0 l 1,0,-1
EndSplineSet
EndChar

StartChar: l
Encoding: 108 108 79
Width: 528
GlyphClass: 2
Flags: W
AnchorPoint: "Anchor-2" 270 1481 basechar 0
AnchorPoint: "Anchor-1" 268 0 basechar 0
LayerCount: 2
UndoRedoHistory
Layer: 1
Undoes
EndUndoes
Redoes
EndRedoes
EndUndoRedoHistory
Fore
SplineSet
172 0 m 1,0,-1
 172 1482 l 1,1,-1
 362 1482 l 1,2,-1
 362 0 l 1,3,-1
 172 0 l 1,0,-1
EndSplineSet
EndChar

StartChar: m
Encoding: 109 109 80
Width: 1871
GlyphClass: 2
Flags: W
AnchorPoint: "Anchor-2" 986 1026 basechar 0
AnchorPoint: "Anchor-1" 825 0 basechar 0
LayerCount: 2
UndoRedoHistory
Layer: 1
Undoes
EndUndoes
Redoes
EndRedoes
EndUndoRedoHistory
Fore
SplineSet
176 0 m 1,0,-1
 176 741 l 2,1,2
 176 839 176 839 166 1026 c 1,3,-1
 364 1026 l 1,4,-1
 364 861 l 1,5,6
 404 950 404 950 496 1001 c 128,-1,7
 588 1052 588 1052 690 1052 c 0,8,9
 796 1052 796 1052 878 993.5 c 128,-1,10
 960 935 960 935 998 831 c 1,11,12
 1055 934 1055 934 1151 993 c 128,-1,13
 1247 1052 1247 1052 1368 1052 c 0,14,15
 1539 1052 1539 1052 1629 940.5 c 128,-1,16
 1719 829 1719 829 1719 630 c 2,17,-1
 1719 0 l 1,18,-1
 1529 0 l 1,19,-1
 1529 610 l 2,20,21
 1529 898 1529 898 1346 898 c 0,22,23
 1229 898 1229 898 1137.5 806 c 128,-1,24
 1046 714 1046 714 1046 585 c 2,25,-1
 1046 0 l 1,26,-1
 856 0 l 1,27,-1
 856 633 l 2,28,29
 856 753 856 753 808 825.5 c 128,-1,30
 760 898 760 898 656 898 c 0,31,32
 536 898 536 898 451 810 c 128,-1,33
 366 722 366 722 366 608 c 2,34,-1
 366 0 l 1,35,-1
 176 0 l 1,0,-1
EndSplineSet
EndChar

StartChar: n
Encoding: 110 110 81
Width: 1242
GlyphClass: 2
Flags: W
AnchorPoint: "Anchor-2" 697 1026 basechar 0 {150-150 -6} {}
AnchorPoint: "Anchor-1" 676 0 basechar 0
LayerCount: 2
UndoRedoHistory
Layer: 1
Undoes
EndUndoes
Redoes
EndRedoes
EndUndoRedoHistory
Fore
SplineSet
176 0 m 1,0,-1
 176 736 l 2,1,2
 176 807 176 807 173.5 879.5 c 128,-1,3
 171 952 171 952 168 989 c 2,4,-1
 166 1026 l 1,5,-1
 364 1026 l 1,6,-1
 364 871 l 1,7,8
 416 955 416 955 510 1003.5 c 128,-1,9
 604 1052 604 1052 708 1052 c 0,10,11
 910 1052 910 1052 1000 927.5 c 128,-1,12
 1090 803 1090 803 1090 560 c 2,13,-1
 1090 0 l 1,14,-1
 900 0 l 1,15,-1
 900 552 l 2,16,17
 900 640 900 640 891 699 c 128,-1,18
 882 758 882 758 857.5 805.5 c 128,-1,19
 833 853 833 853 787.5 875.5 c 128,-1,20
 742 898 742 898 672 898 c 0,21,22
 553 898 553 898 460 813 c 128,-1,23
 367 728 367 728 366 641 c 1,24,-1
 366 0 l 1,25,-1
 176 0 l 1,0,-1
EndSplineSet
EndChar

StartChar: o
Encoding: 111 111 82
Width: 1259
GlyphClass: 2
Flags: W
AnchorPoint: "Anchor-2" 619 1026 basechar 0
AnchorPoint: "Anchor-1" 826 0 basechar 0
AnchorPoint: "Anchor-0" 726 0 basechar 0
LayerCount: 2
UndoRedoHistory
Layer: 1
Undoes
EndUndoes
Redoes
EndRedoes
EndUndoRedoHistory
Fore
SplineSet
632 -22 m 0,0,1
 383 -22 383 -22 242 124.5 c 128,-1,2
 101 271 101 271 101 512 c 0,3,4
 101 756 101 756 243.5 904 c 128,-1,5
 386 1052 386 1052 635 1052 c 0,6,7
 881 1052 881 1052 1019.5 904.5 c 128,-1,8
 1158 757 1158 757 1158 512 c 0,9,10
 1158 272 1158 272 1018 125 c 128,-1,11
 878 -22 878 -22 632 -22 c 0,0,1
634 132 m 0,12,13
 792 132 792 132 875.5 235 c 128,-1,14
 959 338 959 338 959 512 c 0,15,16
 959 688 959 688 874 793 c 128,-1,17
 789 898 789 898 631 898 c 0,18,19
 472 898 472 898 386 793 c 128,-1,20
 300 688 300 688 300 511 c 0,21,22
 300 337 300 337 386 234.5 c 128,-1,23
 472 132 472 132 634 132 c 0,12,13
EndSplineSet
EndChar

StartChar: p
Encoding: 112 112 83
Width: 1261
GlyphClass: 2
Flags: W
AnchorPoint: "Anchor-2" 717 1026 basechar 0
AnchorPoint: "Anchor-1" 826 0 basechar 0
LayerCount: 2
UndoRedoHistory
Layer: 1
Undoes
EndUndoes
Redoes
EndRedoes
EndUndoRedoHistory
Fore
SplineSet
665 132 m 0,0,1
 806 132 806 132 883.5 237.5 c 128,-1,2
 961 343 961 343 961 519 c 0,3,4
 961 691 961 691 884 794.5 c 128,-1,5
 807 898 807 898 669 898 c 0,6,7
 525 898 525 898 443 789.5 c 128,-1,8
 361 681 361 681 361 501 c 0,9,10
 361 333 361 333 441 232.5 c 128,-1,11
 521 132 521 132 665 132 c 0,0,1
177 -418 m 1,12,-1
 177 735 l 2,13,14
 177 839 177 839 166 1026 c 1,15,-1
 365 1026 l 1,16,-1
 365 850 l 1,17,18
 395 933 395 933 491.5 992.5 c 128,-1,19
 588 1052 588 1052 699 1052 c 0,20,21
 909 1052 909 1052 1034.5 906 c 128,-1,22
 1160 760 1160 760 1160 526 c 0,23,24
 1160 284 1160 284 1033 131 c 128,-1,25
 906 -22 906 -22 697 -22 c 0,26,27
 581 -22 581 -22 487 33 c 128,-1,28
 393 88 393 88 365 161 c 1,29,-1
 365 -418 l 1,30,-1
 177 -418 l 1,12,-1
EndSplineSet
EndChar

StartChar: q
Encoding: 113 113 84
Width: 1255
GlyphClass: 2
Flags: W
AnchorPoint: "Anchor-2" 636 1026 basechar 0
AnchorPoint: "Anchor-1" 827 0 basechar 0
LayerCount: 2
UndoRedoHistory
Layer: 1
Undoes
EndUndoes
Redoes
EndRedoes
EndUndoRedoHistory
Fore
SplineSet
598 132 m 0,0,1
 744 132 744 132 822.5 239.5 c 128,-1,2
 901 347 901 347 901 530 c 0,3,4
 901 696 901 696 822.5 797 c 128,-1,5
 744 898 744 898 605 898 c 0,6,7
 462 898 462 898 381 792 c 128,-1,8
 300 686 300 686 300 510 c 0,9,10
 300 338 300 338 378.5 235 c 128,-1,11
 457 132 457 132 598 132 c 0,0,1
897 -418 m 1,12,-1
 897 146 l 1,13,14
 848 76 848 76 766 27 c 128,-1,15
 684 -22 684 -22 576 -22 c 0,16,17
 359 -22 359 -22 230 127 c 128,-1,18
 101 276 101 276 101 513 c 0,19,20
 101 754 101 754 231.5 903 c 128,-1,21
 362 1052 362 1052 583 1052 c 0,22,23
 683 1052 683 1052 765.5 1007.5 c 128,-1,24
 848 963 848 963 898 886 c 1,25,-1
 898 1026 l 1,26,-1
 1093 1026 l 1,27,28
 1085 898 1085 898 1085 788 c 2,29,-1
 1085 -418 l 1,30,-1
 897 -418 l 1,12,-1
EndSplineSet
EndChar

StartChar: r
Encoding: 114 114 85
Width: 818
GlyphClass: 2
Flags: W
AnchorPoint: "Anchor-2" 486 1026 basechar 0
AnchorPoint: "Anchor-1" 338 -3 basechar 0
LayerCount: 2
UndoRedoHistory
Layer: 1
Undoes
EndUndoes
Redoes
EndRedoes
EndUndoRedoHistory
Fore
SplineSet
178 0 m 1,0,-1
 178 775 l 1,1,-1
 166 1026 l 1,2,-1
 366 1026 l 1,3,-1
 366 868 l 1,4,5
 412 956 412 956 481.5 1003.5 c 128,-1,6
 551 1051 551 1051 636 1051 c 0,7,8
 693 1051 693 1051 742 1038 c 1,9,-1
 742 870 l 1,10,11
 682 887 682 887 626 887 c 0,12,13
 510 887 510 887 439 803 c 128,-1,14
 368 719 368 719 368 572 c 2,15,-1
 368 0 l 1,16,-1
 178 0 l 1,0,-1
EndSplineSet
EndChar

StartChar: s
Encoding: 115 115 86
Width: 973
GlyphClass: 2
Flags: W
AnchorPoint: "Anchor-2" 509 1026 basechar 0
AnchorPoint: "Anchor-1" 510 0 basechar 0
LayerCount: 2
UndoRedoHistory
Layer: 1
Undoes
EndUndoes
Redoes
EndRedoes
EndUndoRedoHistory
Fore
SplineSet
522 -22 m 0,0,1
 387 -22 387 -22 287.5 18.5 c 128,-1,2
 188 59 188 59 137 102 c 1,3,-1
 188 242 l 1,4,5
 245 199 245 199 332 165.5 c 128,-1,6
 419 132 419 132 507 132 c 0,7,8
 700 132 700 132 700 279 c 0,9,10
 700 342 700 342 657.5 371 c 128,-1,11
 615 400 615 400 493 443 c 0,12,13
 465 453 465 453 449 459 c 0,14,15
 403 476 403 476 378.5 485.5 c 128,-1,16
 354 495 354 495 315.5 512.5 c 128,-1,17
 277 530 277 530 256.5 545 c 128,-1,18
 236 560 236 560 210 583.5 c 128,-1,19
 184 607 184 607 171 632 c 128,-1,20
 158 657 158 657 149 691.5 c 128,-1,21
 140 726 140 726 140 766 c 0,22,23
 140 839 140 839 171.5 896 c 128,-1,24
 203 953 203 953 255.5 985.5 c 128,-1,25
 308 1018 308 1018 369.5 1034.5 c 128,-1,26
 431 1051 431 1051 498 1051 c 0,27,28
 702 1051 702 1051 839 961 c 1,29,-1
 786 826 l 1,30,31
 650 898 650 898 528 898 c 0,32,33
 433 898 433 898 380.5 865 c 128,-1,34
 328 832 328 832 328 771 c 0,35,36
 328 756 328 756 330.5 744 c 128,-1,37
 333 732 333 732 335.5 722.5 c 128,-1,38
 338 713 338 713 346.5 703.5 c 128,-1,39
 355 694 355 694 361 687.5 c 128,-1,40
 367 681 367 681 382.5 673 c 128,-1,41
 398 665 398 665 408 660 c 128,-1,42
 418 655 418 655 440.5 646 c 128,-1,43
 463 637 463 637 478 631.5 c 128,-1,44
 493 626 493 626 524 614.5 c 128,-1,45
 555 603 555 603 576 595 c 0,46,47
 621 578 621 578 648.5 567.5 c 128,-1,48
 676 557 676 557 712 539.5 c 128,-1,49
 748 522 748 522 769.5 506.5 c 128,-1,50
 791 491 791 491 814.5 468 c 128,-1,51
 838 445 838 445 850.5 419.5 c 128,-1,52
 863 394 863 394 871 360 c 128,-1,53
 879 326 879 326 879 286 c 0,54,55
 879 220 879 220 858.5 167 c 128,-1,56
 838 114 838 114 803.5 79.5 c 128,-1,57
 769 45 769 45 722.5 21.5 c 128,-1,58
 676 -2 676 -2 626 -12 c 128,-1,59
 576 -22 576 -22 522 -22 c 0,0,1
EndSplineSet
EndChar

StartChar: t
Encoding: 116 116 87
Width: 808
GlyphClass: 2
Flags: W
AnchorPoint: "Anchor-2" 505 1236 basechar 0
AnchorPoint: "Anchor-1" 501 0 basechar 0
LayerCount: 2
UndoRedoHistory
Layer: 1
Undoes
EndUndoes
Redoes
EndRedoes
EndUndoRedoHistory
Fore
SplineSet
717 0 m 1,0,-1
 624 0 l 2,1,2
 399 0 399 0 315 75.5 c 128,-1,3
 231 151 231 151 231 356 c 2,4,-1
 231 901 l 1,5,-1
 43 901 l 1,6,-1
 43 1026 l 1,7,-1
 234 1026 l 1,8,-1
 234 1289 l 1,9,-1
 421 1343 l 1,10,-1
 421 1026 l 1,11,-1
 718 1026 l 1,12,-1
 718 901 l 1,13,-1
 421 901 l 1,14,-1
 421 346 l 2,15,16
 421 293 421 293 430.5 258.5 c 128,-1,17
 440 224 440 224 458 201 c 128,-1,18
 476 178 476 178 513.5 166.5 c 128,-1,19
 551 155 551 155 597 151 c 128,-1,20
 643 147 643 147 717 147 c 1,21,-1
 717 0 l 1,0,-1
EndSplineSet
EndChar

StartChar: u
Encoding: 117 117 88
Width: 1230
GlyphClass: 2
Flags: W
AnchorPoint: "Anchor-2" 600 1026 basechar 0
AnchorPoint: "Anchor-1" 826 0 basechar 0
AnchorPoint: "Anchor-0" 947 0 basechar 0
LayerCount: 2
UndoRedoHistory
Layer: 1
Undoes
EndUndoes
Redoes
EndRedoes
EndUndoRedoHistory
Fore
SplineSet
551 -22 m 0,0,1
 446 -22 446 -22 367.5 10.5 c 128,-1,2
 289 43 289 43 243 101 c 128,-1,3
 197 159 197 159 174.5 231.5 c 128,-1,4
 152 304 152 304 152 391 c 2,5,-1
 152 1026 l 1,6,-1
 342 1026 l 1,7,-1
 342 391 l 2,8,9
 342 132 342 132 585 132 c 0,10,11
 716 132 716 132 789.5 208.5 c 128,-1,12
 863 285 863 285 863 417 c 2,13,-1
 863 1026 l 1,14,-1
 1053 1026 l 1,15,-1
 1053 255 l 2,16,17
 1053 124 1053 124 1062 0 c 1,18,-1
 868 0 l 1,19,-1
 864 162 l 1,20,21
 821 83 821 83 743.5 30.5 c 128,-1,22
 666 -22 666 -22 551 -22 c 0,0,1
EndSplineSet
EndChar

StartChar: v
Encoding: 118 118 89
Width: 1056
GlyphClass: 2
Flags: W
AnchorPoint: "Anchor-2" 528 1026 basechar 0
AnchorPoint: "Anchor-1" 826 0 basechar 0
LayerCount: 2
UndoRedoHistory
Layer: 1
Undoes
EndUndoes
Redoes
EndRedoes
EndUndoRedoHistory
Fore
SplineSet
438 0 m 1,0,-1
 9 1026 l 1,1,-1
 216 1026 l 1,2,-1
 466 385 l 1,3,-1
 536 195 l 1,4,-1
 602 385 l 1,5,-1
 847 1026 l 1,6,-1
 1049 1026 l 1,7,-1
 619 0 l 1,8,-1
 438 0 l 1,0,-1
EndSplineSet
EndChar

StartChar: w
Encoding: 119 119 90
Width: 1634
GlyphClass: 2
Flags: W
AnchorPoint: "Anchor-2" 808 1026 basechar 0
AnchorPoint: "Anchor-1" 826 0 basechar 0
LayerCount: 2
UndoRedoHistory
Layer: 1
Undoes
EndUndoes
Redoes
EndRedoes
EndUndoRedoHistory
Fore
SplineSet
545 0 m 1,0,-1
 370 0 l 1,1,-1
 27 1026 l 1,2,-1
 228 1026 l 1,3,-1
 436 341 l 1,4,-1
 472 222 l 1,5,-1
 510 334 l 1,6,-1
 744 1026 l 1,7,-1
 925 1026 l 1,8,-1
 1150 333 l 1,9,-1
 1187 220 l 1,10,-1
 1220 332 l 1,11,-1
 1424 1026 l 1,12,-1
 1607 1026 l 1,13,-1
 1262 0 l 1,14,-1
 1087 0 l 1,15,-1
 869 657 l 1,16,-1
 824 797 l 1,17,-1
 777 659 l 1,18,-1
 545 0 l 1,0,-1
EndSplineSet
EndChar

StartChar: x
Encoding: 120 120 91
Width: 1027
GlyphClass: 2
Flags: W
LayerCount: 2
UndoRedoHistory
Layer: 1
Undoes
EndUndoes
Redoes
EndRedoes
EndUndoRedoHistory
Fore
SplineSet
38 0 m 1,0,-1
 415 511 l 1,1,-1
 60 1026 l 1,2,-1
 263 1026 l 1,3,-1
 513 648 l 1,4,-1
 783 1026 l 1,5,-1
 981 1026 l 1,6,-1
 616 524 l 1,7,-1
 989 0 l 1,8,-1
 786 0 l 1,9,-1
 517 389 l 1,10,-1
 237 0 l 1,11,-1
 38 0 l 1,0,-1
EndSplineSet
EndChar

StartChar: y
Encoding: 121 121 92
Width: 1076
GlyphClass: 2
Flags: W
AnchorPoint: "Anchor-2" 534 1026 basechar 0
AnchorPoint: "Anchor-1" 826 0 basechar 0
LayerCount: 2
UndoRedoHistory
Layer: 1
Undoes
EndUndoes
Redoes
EndRedoes
EndUndoRedoHistory
Fore
SplineSet
214 -434 m 1,0,-1
 136 -305 l 1,1,2
 385 -221 385 -221 446 -38 c 1,3,-1
 462 11 l 1,4,-1
 42 1026 l 1,5,-1
 239 1026 l 1,6,-1
 555 211 l 1,7,-1
 849 1026 l 1,8,-1
 1040 1026 l 1,9,-1
 625 -55 l 1,10,11
 568 -200 568 -200 462 -299 c 128,-1,12
 356 -398 356 -398 214 -434 c 1,0,-1
EndSplineSet
EndChar

StartChar: z
Encoding: 122 122 93
Width: 971
GlyphClass: 2
Flags: W
AnchorPoint: "Anchor-2" 501 1026 basechar 0
AnchorPoint: "Anchor-1" 826 0 basechar 0
LayerCount: 2
UndoRedoHistory
Layer: 1
Undoes
EndUndoes
Redoes
EndRedoes
EndUndoRedoHistory
Fore
SplineSet
97 0 m 1,0,-1
 97 102 l 1,1,-1
 630 872 l 1,2,-1
 106 872 l 1,3,-1
 106 1026 l 1,4,-1
 874 1026 l 1,5,-1
 874 926 l 1,6,-1
 341 153 l 1,7,-1
 895 153 l 1,8,-1
 895 0 l 1,9,-1
 97 0 l 1,0,-1
EndSplineSet
EndChar

StartChar: braceleft
Encoding: 123 123 94
Width: 723
GlyphClass: 2
Flags: W
LayerCount: 2
UndoRedoHistory
Layer: 1
Undoes
EndUndoes
Redoes
EndRedoes
EndUndoRedoHistory
Fore
SplineSet
637 -224 m 1,0,1
 457 -220 457 -220 356 -144 c 128,-1,2
 255 -68 255 -68 255 77 c 2,3,-1
 255 323 l 2,4,5
 255 544 255 544 67 559 c 1,6,-1
 67 697 l 1,7,8
 153 702 153 702 203 758.5 c 128,-1,9
 253 815 253 815 254 910 c 1,10,-1
 254 1152 l 2,11,12
 254 1305 254 1305 349 1392 c 128,-1,13
 444 1479 444 1479 638 1479 c 1,14,-1
 638 1332 l 1,15,16
 547 1330 547 1330 497 1282.5 c 128,-1,17
 447 1235 447 1235 447 1138 c 2,18,-1
 447 870 l 2,19,20
 447 775 447 775 392.5 713 c 128,-1,21
 338 651 338 651 254 625 c 1,22,23
 339 593 339 593 393 519 c 128,-1,24
 447 445 447 445 447 362 c 2,25,-1
 447 126 l 2,26,27
 447 11 447 11 496.5 -33 c 128,-1,28
 546 -77 546 -77 637 -77 c 1,29,-1
 637 -224 l 1,0,1
EndSplineSet
EndChar

StartChar: bar
Encoding: 124 124 95
Width: 909
GlyphClass: 2
Flags: W
LayerCount: 2
UndoRedoHistory
Layer: 1
Undoes
EndUndoes
Redoes
EndRedoes
EndUndoRedoHistory
Fore
SplineSet
364 -480 m 1,0,-1
 364 1533 l 1,1,-1
 545 1533 l 1,2,-1
 545 -480 l 1,3,-1
 364 -480 l 1,0,-1
EndSplineSet
EndChar

StartChar: braceright
Encoding: 125 125 96
Width: 748
GlyphClass: 2
Flags: W
LayerCount: 2
UndoRedoHistory
Layer: 1
Undoes
EndUndoes
Redoes
EndRedoes
EndUndoRedoHistory
Fore
SplineSet
107 -224 m 1,0,-1
 107 -77 l 1,1,2
 197 -75 197 -75 247.5 -27 c 128,-1,3
 298 21 298 21 298 118 c 2,4,-1
 298 386 l 2,5,6
 298 481 298 481 352.5 543 c 128,-1,7
 407 605 407 605 491 631 c 1,8,9
 406 663 406 663 352 737 c 128,-1,10
 298 811 298 811 298 894 c 2,11,-1
 298 1130 l 2,12,13
 298 1245 298 1245 248.5 1289 c 128,-1,14
 199 1333 199 1333 108 1333 c 1,15,-1
 108 1479 l 1,16,17
 288 1475 288 1475 389 1399.5 c 128,-1,18
 490 1324 490 1324 490 1179 c 2,19,-1
 490 933 l 2,20,21
 490 712 490 712 678 697 c 1,22,-1
 678 559 l 1,23,24
 592 554 592 554 541.5 497.5 c 128,-1,25
 491 441 491 441 490 346 c 1,26,-1
 490 104 l 2,27,28
 490 -49 490 -49 395.5 -136.5 c 128,-1,29
 301 -224 301 -224 107 -224 c 1,0,-1
EndSplineSet
EndChar

StartChar: asciitilde
Encoding: 126 126 97
Width: 1271
GlyphClass: 2
Flags: W
LayerCount: 2
UndoRedoHistory
Layer: 1
Undoes
EndUndoes
Redoes
EndRedoes
EndUndoRedoHistory
Fore
SplineSet
249 370 m 1,0,-1
 110 437 l 1,1,2
 133 551 133 551 209.5 622 c 128,-1,3
 286 693 286 693 408 693 c 0,4,5
 493 693 493 693 670 618 c 0,6,7
 679 614 679 614 705.5 603.5 c 128,-1,8
 732 593 732 593 749 586.5 c 128,-1,9
 766 580 766 580 788.5 572 c 128,-1,10
 811 564 811 564 828.5 560 c 128,-1,11
 846 556 846 556 858 556 c 0,12,13
 913 556 913 556 952.5 607.5 c 128,-1,14
 992 659 992 659 1010 734 c 1,15,-1
 1161 687 l 1,16,17
 1132 557 1132 557 1054.5 479 c 128,-1,18
 977 401 977 401 858 401 c 0,19,20
 790 401 790 401 631 471 c 0,21,22
 629 472 629 472 601.5 483 c 128,-1,23
 574 494 574 494 562.5 498.5 c 128,-1,24
 551 503 551 503 524.5 512.5 c 128,-1,25
 498 522 498 522 481.5 526.5 c 128,-1,26
 465 531 465 531 445.5 535 c 128,-1,27
 426 539 426 539 412 539 c 0,28,29
 290 539 290 539 249 370 c 1,0,-1
EndSplineSet
EndChar

StartChar: cent
Encoding: 162 162 100
Width: 1033
GlyphClass: 2
Flags: W
LayerCount: 2
UndoRedoHistory
Layer: 1
Undoes
EndUndoes
Redoes
EndRedoes
EndUndoRedoHistory
Fore
SplineSet
674 1050 m 1,0,1
 852 1038 852 1038 961 929 c 1,2,-1
 894 804 l 1,3,4
 800 886 800 886 674 896 c 1,5,-1
 674 134 l 1,6,7
 805 145 805 145 910 224 c 1,8,-1
 969 88 l 1,9,10
 844 -8 844 -8 674 -20 c 1,11,-1
 674 -215 l 1,12,-1
 574 -215 l 1,13,-1
 574 -20 l 1,14,15
 372 -6 372 -6 244 125 c 0,16,17
 101 272 101 272 101 506 c 0,18,19
 100 752 100 752 246 902 c 0,20,21
 375 1035 375 1035 574 1050 c 1,22,-1
 574 1251 l 1,23,-1
 674 1251 l 1,24,-1
 674 1050 l 1,0,1
574 892 m 1,25,26
 540 886 540 886 508 874 c 0,27,28
 448 850 448 850 400 803.5 c 128,-1,29
 352 757 352 757 324.5 681 c 128,-1,30
 297 605 297 605 297 507 c 0,31,32
 298 334 298 334 388 233 c 0,33,34
 461 152 461 152 574 136 c 1,35,-1
 574 892 l 1,25,26
EndSplineSet
EndChar

StartChar: sterling
Encoding: 163 163 101
Width: 1207
GlyphClass: 2
Flags: W
LayerCount: 2
UndoRedoHistory
Layer: 1
Undoes
EndUndoes
Redoes
EndRedoes
EndUndoRedoHistory
Fore
SplineSet
148 0 m 1,0,-1
 148 152 l 1,1,2
 232 214 232 214 281.5 326 c 128,-1,3
 331 438 331 438 331 593 c 2,4,-1
 331 680 l 1,5,-1
 140 680 l 1,6,-1
 140 821 l 1,7,-1
 329 821 l 1,8,-1
 329 937 l 2,9,10
 329 1033 329 1033 341 1110.5 c 128,-1,11
 353 1188 353 1188 384 1258.5 c 128,-1,12
 415 1329 415 1329 465 1376.5 c 128,-1,13
 515 1424 515 1424 594 1452 c 128,-1,14
 673 1480 673 1480 778 1480 c 0,15,16
 967 1480 967 1480 1073 1406 c 1,17,-1
 1022 1262 l 1,18,19
 915 1325 915 1325 786 1321 c 0,20,21
 647 1317 647 1317 585 1233 c 128,-1,22
 523 1149 523 1149 523 980 c 2,23,-1
 523 821 l 1,24,-1
 883 821 l 1,25,-1
 883 680 l 1,26,-1
 524 680 l 1,27,-1
 524 591 l 2,28,29
 524 437 524 437 489.5 324 c 128,-1,30
 455 211 455 211 409 160 c 1,31,-1
 1088 160 l 1,32,-1
 1088 0 l 1,33,-1
 148 0 l 1,0,-1
EndSplineSet
EndChar

StartChar: currency
Encoding: 164 164 102
Width: 1218
GlyphClass: 2
Flags: W
LayerCount: 2
UndoRedoHistory
Layer: 1
Undoes
EndUndoes
Redoes
EndRedoes
EndUndoRedoHistory
Fore
SplineSet
609 711 m 128,-1,1
 738 711 738 711 824.5 801.5 c 128,-1,2
 911 892 911 892 911 1024 c 0,3,4
 911 1155 911 1155 825 1243.5 c 128,-1,5
 739 1332 739 1332 609 1332 c 128,-1,6
 479 1332 479 1332 393 1243.5 c 128,-1,7
 307 1155 307 1155 307 1024 c 0,8,9
 307 892 307 892 393.5 801.5 c 128,-1,0
 480 711 480 711 609 711 c 128,-1,1
1048 544 m 1,10,-1
 862 730 l 1,11,12
 753 640 753 640 610 640 c 128,-1,13
 467 640 467 640 358 731 c 1,14,-1
 171 544 l 1,15,-1
 120 595 l 1,16,-1
 307 782 l 1,17,18
 219 888 219 888 219 1025 c 0,19,20
 219 1169 219 1169 314 1277 c 1,21,-1
 119 1472 l 1,22,-1
 170 1523 l 1,23,-1
 367 1327 l 1,24,25
 472 1410 472 1410 610 1410 c 0,26,27
 745 1410 745 1410 853 1328 c 1,28,-1
 1048 1523 l 1,29,-1
 1099 1472 l 1,30,-1
 906 1279 l 1,31,32
 1002 1170 1002 1170 1002 1025 c 0,33,34
 1002 886 1002 886 913 780 c 1,35,-1
 1099 595 l 1,36,-1
 1048 544 l 1,10,-1
EndSplineSet
EndChar

StartChar: yen
Encoding: 165 165 103
Width: 1225
GlyphClass: 2
Flags: W
LayerCount: 2
UndoRedoHistory
Layer: 1
Undoes
EndUndoes
Redoes
EndRedoes
EndUndoRedoHistory
Fore
SplineSet
705 402 m 1,0,-1
 1033 402 l 1,1,-1
 1033 260 l 1,2,-1
 705 260 l 1,3,-1
 705 0 l 1,4,-1
 509 0 l 1,5,-1
 509 260 l 1,6,-1
 168 260 l 1,7,-1
 168 402 l 1,8,-1
 509 402 l 1,9,-1
 509 547 l 1,10,-1
 168 547 l 1,11,-1
 168 693 l 1,12,-1
 441 693 l 1,13,-1
 6 1456 l 1,14,-1
 224 1456 l 1,15,-1
 611 746 l 1,16,-1
 1000 1456 l 1,17,-1
 1219 1456 l 1,18,-1
 773 693 l 1,19,-1
 1032 693 l 1,20,-1
 1032 547 l 1,21,-1
 705 547 l 1,22,-1
 705 402 l 1,0,-1
EndSplineSet
EndChar

StartChar: brokenbar
Encoding: 166 166 104
Width: 500
GlyphClass: 2
Flags: W
LayerCount: 2
UndoRedoHistory
Layer: 1
Undoes
EndUndoes
Redoes
EndRedoes
EndUndoRedoHistory
Fore
SplineSet
152 643 m 1,0,-1
 152 1533 l 1,1,-1
 333 1533 l 1,2,-1
 333 643 l 1,3,-1
 152 643 l 1,0,-1
152 -480 m 1,4,-1
 152 400 l 1,5,-1
 334 400 l 1,6,-1
 334 -480 l 1,7,-1
 152 -480 l 1,4,-1
EndSplineSet
EndChar

StartChar: section
Encoding: 167 167 105
Width: 1071
GlyphClass: 2
Flags: W
LayerCount: 2
UndoRedoHistory
Layer: 1
Undoes
EndUndoes
Redoes
EndRedoes
EndUndoRedoHistory
Fore
SplineSet
500 -74 m 0,0,1
 334 -74 334 -74 201 -20 c 1,2,-1
 200 136 l 1,3,4
 345 71 345 71 494 71 c 0,5,6
 591 71 591 71 648.5 115 c 128,-1,7
 706 159 706 159 706 225 c 0,8,9
 706 249 706 249 695 269.5 c 128,-1,10
 684 290 684 290 663.5 308 c 128,-1,11
 643 326 643 326 605 347.5 c 128,-1,12
 567 369 567 369 524 389.5 c 128,-1,13
 481 410 481 410 414 441 c 0,14,15
 409 443 409 443 407 444 c 0,16,17
 298 493 298 493 241.5 558 c 128,-1,18
 185 623 185 623 185 713 c 0,19,20
 185 790 185 790 236 853 c 128,-1,21
 287 916 287 916 368 952 c 1,22,23
 210 1057 210 1057 210 1200 c 0,24,25
 210 1338 210 1338 319 1413 c 128,-1,26
 428 1488 428 1488 594 1488 c 0,27,28
 712 1488 712 1488 844 1446 c 1,29,-1
 844 1293 l 1,30,31
 707 1346 707 1346 603 1346 c 0,32,33
 518 1346 518 1346 461.5 1309 c 128,-1,34
 405 1272 405 1272 405 1207 c 0,35,36
 405 1152 405 1152 456.5 1106.5 c 128,-1,37
 508 1061 508 1061 629 1008 c 0,38,39
 694 979 694 979 738.5 953.5 c 128,-1,40
 783 928 783 928 824.5 893.5 c 128,-1,41
 866 859 866 859 886.5 816 c 128,-1,42
 907 773 907 773 907 721 c 0,43,44
 907 582 907 582 744 474 c 1,45,46
 816 436 816 436 858 375 c 128,-1,47
 900 314 900 314 900 233 c 0,48,49
 900 135 900 135 845 64.5 c 128,-1,50
 790 -6 790 -6 700.5 -40 c 128,-1,51
 611 -74 611 -74 500 -74 c 0,0,1
623 540 m 1,52,53
 720 607 720 607 720 700 c 0,54,55
 720 730 720 730 706.5 754.5 c 128,-1,56
 693 779 693 779 666 797.5 c 128,-1,57
 639 816 639 816 615 828 c 128,-1,58
 591 840 591 840 552 856.5 c 128,-1,59
 513 873 513 873 493 883 c 1,60,61
 364 809 364 809 364 727 c 0,62,63
 364 712 364 712 368 699 c 128,-1,64
 372 686 372 686 381.5 674 c 128,-1,65
 391 662 391 662 400 652.5 c 128,-1,66
 409 643 409 643 427 632 c 128,-1,67
 445 621 445 621 457.5 613.5 c 128,-1,68
 470 606 470 606 494.5 595 c 128,-1,69
 519 584 519 584 533.5 577.5 c 128,-1,70
 548 571 548 571 578 558.5 c 128,-1,71
 608 546 608 546 623 540 c 1,52,53
EndSplineSet
EndChar

StartChar: dieresis
Encoding: 168 168 106
Width: 743
GlyphClass: 4
Flags: W
AnchorPoint: "Anchor-2" 368 1000 mark 0
LayerCount: 2
UndoRedoHistory
Layer: 1
Undoes
EndUndoes
Redoes
EndRedoes
EndUndoRedoHistory
Fore
SplineSet
477 1197 m 1,0,-1
 477 1400 l 1,1,-1
 671 1400 l 1,2,-1
 671 1197 l 1,3,-1
 477 1197 l 1,0,-1
72 1197 m 1,4,-1
 72 1400 l 1,5,-1
 266 1400 l 1,6,-1
 266 1197 l 1,7,-1
 72 1197 l 1,4,-1
EndSplineSet
EndChar

StartChar: copyright
Encoding: 169 169 107
Width: 1727
GlyphClass: 2
Flags: W
LayerCount: 2
UndoRedoHistory
Layer: 1
Undoes
EndUndoes
Redoes
EndRedoes
EndUndoRedoHistory
Fore
SplineSet
864 74 m 0,0,1
 1037 74 1037 74 1184 162.5 c 128,-1,2
 1331 251 1331 251 1415.5 400.5 c 128,-1,3
 1500 550 1500 550 1500 725 c 128,-1,4
 1500 900 1500 900 1415.5 1049.5 c 128,-1,5
 1331 1199 1331 1199 1184 1287.5 c 128,-1,6
 1037 1376 1037 1376 864 1376 c 0,7,8
 690 1376 690 1376 543 1287.5 c 128,-1,9
 396 1199 396 1199 311 1049.5 c 128,-1,10
 226 900 226 900 226 725 c 128,-1,11
 226 550 226 550 311 400.5 c 128,-1,12
 396 251 396 251 543 162.5 c 128,-1,13
 690 74 690 74 864 74 c 0,0,1
863 1484 m 128,-1,15
 1016 1484 1016 1484 1156 1424 c 128,-1,16
 1296 1364 1296 1364 1398 1262.5 c 128,-1,17
 1500 1161 1500 1161 1560 1021 c 128,-1,18
 1620 881 1620 881 1620 728 c 128,-1,19
 1620 575 1620 575 1560 435 c 128,-1,20
 1500 295 1500 295 1398 193.5 c 128,-1,21
 1296 92 1296 92 1156 32 c 128,-1,22
 1016 -28 1016 -28 863 -28 c 128,-1,23
 710 -28 710 -28 570 32 c 128,-1,24
 430 92 430 92 328.5 193.5 c 128,-1,25
 227 295 227 295 167 435 c 128,-1,26
 107 575 107 575 107 728 c 128,-1,27
 107 881 107 881 167 1021 c 128,-1,28
 227 1161 227 1161 328.5 1262.5 c 128,-1,29
 430 1364 430 1364 570 1424 c 128,-1,14
 710 1484 710 1484 863 1484 c 128,-1,15
450 716 m 0,30,31
 450 920 450 920 571 1045 c 128,-1,32
 692 1170 692 1170 887 1170 c 0,33,34
 1063 1170 1063 1170 1165 1068 c 1,35,-1
 1110 965 l 1,36,37
 1019 1042 1019 1042 897 1042 c 0,38,39
 774 1042 774 1042 693.5 959.5 c 128,-1,40
 613 877 613 877 613 717 c 0,41,42
 613 658 613 658 628 608.5 c 128,-1,43
 643 559 643 559 669.5 524.5 c 128,-1,44
 696 490 696 490 731.5 466.5 c 128,-1,45
 767 443 767 443 807.5 431.5 c 128,-1,46
 848 420 848 420 893 420 c 0,47,48
 1017 420 1017 420 1123 502 c 1,49,-1
 1173 395 l 1,50,51
 1044 295 1044 295 886 295 c 0,52,53
 801 295 801 295 722 325.5 c 128,-1,54
 643 356 643 356 583 409.5 c 128,-1,55
 523 463 523 463 486.5 543 c 128,-1,56
 450 623 450 623 450 716 c 0,30,31
EndSplineSet
EndChar

StartChar: ordfeminine
Encoding: 170 170 108
Width: 797
GlyphClass: 2
Flags: W
LayerCount: 2
UndoRedoHistory
Layer: 1
Undoes
EndUndoes
Redoes
EndRedoes
EndUndoRedoHistory
Fore
SplineSet
349 863 m 0,0,1
 436 863 436 863 491 918 c 128,-1,2
 546 973 546 973 546 1061 c 2,3,-1
 546 1083 l 1,4,5
 476 1083 476 1083 445 1082.5 c 128,-1,6
 414 1082 414 1082 368.5 1079 c 128,-1,7
 323 1076 323 1076 305 1069 c 128,-1,8
 287 1062 287 1062 266 1049 c 128,-1,9
 245 1036 245 1036 238.5 1016.5 c 128,-1,10
 232 997 232 997 232 968 c 0,11,12
 232 918 232 918 264.5 890.5 c 128,-1,13
 297 863 297 863 349 863 c 0,0,1
334 755 m 0,14,15
 229 755 229 755 160.5 811.5 c 128,-1,16
 92 868 92 868 92 964 c 0,17,18
 92 1063 92 1063 163 1118 c 128,-1,19
 234 1173 234 1173 372 1173 c 2,20,-1
 547 1173 l 1,21,-1
 547 1204 l 2,22,23
 547 1284 547 1284 513 1319.5 c 128,-1,24
 479 1355 479 1355 405 1355 c 0,25,26
 353 1355 353 1355 291.5 1340 c 128,-1,27
 230 1325 230 1325 207.5 1316 c 128,-1,28
 185 1307 185 1307 172 1301 c 1,29,-1
 129 1410 l 1,30,-1
 164 1427 l 2,31,32
 198 1444 198 1444 270 1461 c 128,-1,33
 342 1478 342 1478 416 1478 c 0,34,35
 475 1478 475 1478 524.5 1464 c 128,-1,36
 574 1450 574 1450 613.5 1420.5 c 128,-1,37
 653 1391 653 1391 675.5 1340 c 128,-1,38
 698 1289 698 1289 698 1221 c 0,39,40
 698 1193 698 1193 697.5 1056.5 c 128,-1,41
 697 920 697 920 697 913 c 0,42,43
 698 867 698 867 705 778 c 1,44,-1
 560 778 l 1,45,-1
 551 873 l 1,46,47
 526 822 526 822 468.5 788.5 c 128,-1,48
 411 755 411 755 334 755 c 0,14,15
EndSplineSet
EndChar

StartChar: guillemotleft
Encoding: 171 171 109
Width: 1122
GlyphClass: 2
Flags: W
LayerCount: 2
UndoRedoHistory
Layer: 1
Undoes
EndUndoes
Redoes
EndRedoes
EndUndoRedoHistory
Fore
SplineSet
830 169 m 1,0,-1
 558 543 l 1,1,-1
 835 918 l 1,2,-1
 1001 918 l 1,3,-1
 753 543 l 1,4,-1
 993 169 l 1,5,-1
 830 169 l 1,0,-1
399 169 m 1,6,-1
 128 543 l 1,7,-1
 404 918 l 1,8,-1
 570 918 l 1,9,-1
 323 543 l 1,10,-1
 562 169 l 1,11,-1
 399 169 l 1,6,-1
EndSplineSet
EndChar

StartChar: logicalnot
Encoding: 172 172 110
Width: 1463
GlyphClass: 2
Flags: W
LayerCount: 2
UndoRedoHistory
Layer: 1
Undoes
EndUndoes
Redoes
EndRedoes
EndUndoRedoHistory
Fore
SplineSet
1073 233 m 1,0,-1
 1073 644 l 1,1,-1
 194 644 l 1,2,-1
 194 803 l 1,3,-1
 1248 803 l 1,4,-1
 1248 233 l 1,5,-1
 1073 233 l 1,0,-1
EndSplineSet
EndChar

StartChar: uni00AD
Encoding: 173 173 111
Width: 728
GlyphClass: 2
Flags: W
LayerCount: 2
UndoRedoHistory
Layer: 1
Undoes
EndUndoes
Redoes
EndRedoes
EndUndoRedoHistory
Fore
SplineSet
67 1188 m 1,0,-1
 66 1334 l 1,1,-1
 653 1334 l 1,2,-1
 654 1188 l 1,3,-1
 67 1188 l 1,0,-1
EndSplineSet
EndChar

StartChar: registered
Encoding: 174 174 112
Width: 1727
GlyphClass: 2
Flags: W
LayerCount: 2
UndoRedoHistory
Layer: 1
Undoes
EndUndoes
Redoes
EndRedoes
EndUndoRedoHistory
Fore
SplineSet
710 278 m 1,0,-1
 542 278 l 1,1,-1
 542 1186 l 1,2,-1
 828 1186 l 2,3,4
 1039 1186 1039 1186 1136 1121 c 128,-1,5
 1233 1056 1233 1056 1233 927 c 0,6,7
 1233 831 1233 831 1187.5 767.5 c 128,-1,8
 1142 704 1142 704 1027 680 c 1,9,-1
 1236 278 l 1,10,-1
 1048 278 l 1,11,-1
 866 658 l 1,12,-1
 710 658 l 1,13,-1
 710 278 l 1,0,-1
708 778 m 1,14,-1
 824 778 l 2,15,16
 950 778 950 778 1005 805.5 c 128,-1,17
 1060 833 1060 833 1060 913 c 0,18,19
 1060 1003 1060 1003 1015 1027 c 128,-1,20
 970 1051 970 1051 823 1051 c 2,21,-1
 708 1051 l 1,22,-1
 708 778 l 1,14,-1
864 74 m 0,23,24
 1037 74 1037 74 1184 162.5 c 128,-1,25
 1331 251 1331 251 1415.5 400.5 c 128,-1,26
 1500 550 1500 550 1500 725 c 128,-1,27
 1500 900 1500 900 1415.5 1049.5 c 128,-1,28
 1331 1199 1331 1199 1184 1287.5 c 128,-1,29
 1037 1376 1037 1376 864 1376 c 0,30,31
 690 1376 690 1376 543 1287.5 c 128,-1,32
 396 1199 396 1199 311 1049.5 c 128,-1,33
 226 900 226 900 226 725 c 128,-1,34
 226 550 226 550 311 400.5 c 128,-1,35
 396 251 396 251 543 162.5 c 128,-1,36
 690 74 690 74 864 74 c 0,23,24
863 1484 m 128,-1,38
 1016 1484 1016 1484 1156 1424 c 128,-1,39
 1296 1364 1296 1364 1398 1262.5 c 128,-1,40
 1500 1161 1500 1161 1560 1021 c 128,-1,41
 1620 881 1620 881 1620 728 c 128,-1,42
 1620 575 1620 575 1560 435 c 128,-1,43
 1500 295 1500 295 1398 193.5 c 128,-1,44
 1296 92 1296 92 1156 32 c 128,-1,45
 1016 -28 1016 -28 863 -28 c 128,-1,46
 710 -28 710 -28 570 32 c 128,-1,47
 430 92 430 92 328.5 193.5 c 128,-1,48
 227 295 227 295 167 435 c 128,-1,49
 107 575 107 575 107 728 c 128,-1,50
 107 881 107 881 167 1021 c 128,-1,51
 227 1161 227 1161 328.5 1262.5 c 128,-1,52
 430 1364 430 1364 570 1424 c 128,-1,37
 710 1484 710 1484 863 1484 c 128,-1,38
EndSplineSet
EndChar

StartChar: macron
Encoding: 175 175 113
Width: 723
GlyphClass: 4
Flags: W
AnchorPoint: "Anchor-2" 373 1000 mark 0
LayerCount: 2
UndoRedoHistory
Layer: 1
Undoes
EndUndoes
Redoes
EndRedoes
EndUndoRedoHistory
Fore
SplineSet
68 1207 m 1,0,-1
 68 1354 l 1,1,-1
 655 1354 l 1,2,-1
 655 1207 l 1,3,-1
 68 1207 l 1,0,-1
EndSplineSet
EndChar

StartChar: degree
Encoding: 176 176 114
Width: 856
GlyphClass: 2
Flags: W
LayerCount: 2
UndoRedoHistory
Layer: 1
Undoes
EndUndoes
Redoes
EndRedoes
EndUndoRedoHistory
Fore
SplineSet
428 968 m 128,-1,1
 509 968 509 968 558.5 1021.5 c 128,-1,2
 608 1075 608 1075 608 1153 c 0,3,4
 608 1230 608 1230 558 1282.5 c 128,-1,5
 508 1335 508 1335 428 1335 c 128,-1,6
 348 1335 348 1335 299 1282.5 c 128,-1,7
 250 1230 250 1230 250 1153 c 0,8,9
 250 1075 250 1075 298.5 1021.5 c 128,-1,0
 347 968 347 968 428 968 c 128,-1,1
428 1451 m 0,10,11
 557 1451 557 1451 645 1364 c 128,-1,12
 733 1277 733 1277 733 1152 c 0,13,14
 733 1028 733 1028 644.5 940.5 c 128,-1,15
 556 853 556 853 428 853 c 128,-1,16
 300 853 300 853 211.5 940.5 c 128,-1,17
 123 1028 123 1028 123 1152 c 128,-1,18
 123 1276 123 1276 211.5 1363.5 c 128,-1,19
 300 1451 300 1451 428 1451 c 0,10,11
EndSplineSet
EndChar

StartChar: plusminus
Encoding: 177 177 115
Width: 1234
GlyphClass: 2
Flags: W
LayerCount: 2
UndoRedoHistory
Layer: 1
Undoes
EndUndoes
Redoes
EndRedoes
EndUndoRedoHistory
Fore
SplineSet
184 0 m 1,0,-1
 184 143 l 1,1,-1
 1059 143 l 1,2,-1
 1059 0 l 1,3,-1
 184 0 l 1,0,-1
531 257 m 1,4,-1
 531 594 l 1,5,-1
 194 594 l 1,6,-1
 194 751 l 1,7,-1
 528 751 l 1,8,-1
 528 1090 l 1,9,-1
 703 1090 l 1,10,-1
 703 751 l 1,11,-1
 1038 751 l 1,12,-1
 1038 594 l 1,13,-1
 709 594 l 1,14,-1
 709 257 l 1,15,-1
 531 257 l 1,4,-1
EndSplineSet
EndChar

StartChar: uni00B2
Encoding: 178 178 116
Width: 1157
GlyphClass: 2
Flags: W
LayerCount: 2
UndoRedoHistory
Layer: 1
Undoes
EndUndoes
Redoes
EndRedoes
EndUndoRedoHistory
Fore
SplineSet
300 618 m 1,0,-1
 300 746 l 1,1,2
 521 938 521 938 616.5 1045.5 c 128,-1,3
 712 1153 712 1153 712 1220 c 0,4,5
 712 1269 712 1269 677 1296.5 c 128,-1,6
 642 1324 642 1324 582 1324 c 0,7,8
 524 1324 524 1324 471 1294 c 128,-1,9
 418 1264 418 1264 379 1212 c 1,10,-1
 301 1314 l 1,11,12
 348 1383 348 1383 424.5 1420.5 c 128,-1,13
 501 1458 501 1458 591 1458 c 0,14,15
 710 1458 710 1458 787 1395.5 c 128,-1,16
 864 1333 864 1333 864 1222 c 0,17,18
 864 1173 864 1173 844.5 1123 c 128,-1,19
 825 1073 825 1073 797.5 1032 c 128,-1,20
 770 991 770 991 718.5 939.5 c 128,-1,21
 667 888 667 888 625 851 c 128,-1,22
 583 814 583 814 514 757 c 1,23,-1
 859 757 l 1,24,-1
 859 618 l 1,25,-1
 300 618 l 1,0,-1
EndSplineSet
EndChar

StartChar: uni00B3
Encoding: 179 179 117
Width: 1111
GlyphClass: 2
Flags: W
LayerCount: 2
UndoRedoHistory
Layer: 1
Undoes
EndUndoes
Redoes
EndRedoes
EndUndoRedoHistory
Fore
SplineSet
555 592 m 0,0,1
 394 592 394 592 287 688 c 1,2,-1
 347 794 l 1,3,4
 443 717 443 717 547 717 c 0,5,6
 617 717 617 717 660 752.5 c 128,-1,7
 703 788 703 788 703 849 c 0,8,9
 703 913 703 913 651 944.5 c 128,-1,10
 599 976 599 976 505 976 c 2,11,-1
 438 976 l 1,12,-1
 438 1100 l 1,13,-1
 499 1100 l 2,14,15
 581 1100 581 1100 630 1128 c 128,-1,16
 679 1156 679 1156 679 1214 c 0,17,18
 679 1322 679 1322 550 1322 c 0,19,20
 445 1322 445 1322 342 1248 c 1,21,-1
 284 1352 l 1,22,23
 339 1396 339 1396 413.5 1422 c 128,-1,24
 488 1448 488 1448 561 1448 c 0,25,26
 674 1448 674 1448 750 1389 c 128,-1,27
 826 1330 826 1330 826 1224 c 0,28,29
 826 1082 826 1082 675 1044 c 1,30,31
 763 1024 763 1024 806.5 970.5 c 128,-1,32
 850 917 850 917 850 846 c 0,33,34
 850 727 850 727 765.5 659.5 c 128,-1,35
 681 592 681 592 555 592 c 0,0,1
EndSplineSet
EndChar

StartChar: acute
Encoding: 180 180 118
Width: 607
GlyphClass: 4
Flags: W
AnchorPoint: "Anchor-2" 172 1000 mark 0
LayerCount: 2
UndoRedoHistory
Layer: 1
Undoes
EndUndoes
Redoes
EndRedoes
EndUndoRedoHistory
Fore
SplineSet
70 1174 m 1,0,-1
 308 1587 l 1,1,-1
 552 1587 l 1,2,-1
 230 1174 l 1,3,-1
 70 1174 l 1,0,-1
EndSplineSet
EndChar

StartChar: paragraph
Encoding: 182 182 119
Width: 1211
GlyphClass: 2
Flags: W
LayerCount: 2
UndoRedoHistory
Layer: 1
Undoes
EndUndoes
Redoes
EndRedoes
EndUndoRedoHistory
Fore
SplineSet
462 -179 m 1,0,-1
 462 812 l 1,1,2
 312 817 312 817 216 901 c 128,-1,3
 120 985 120 985 120 1133 c 0,4,5
 120 1208 120 1208 142.5 1264 c 128,-1,6
 165 1320 165 1320 205 1356.5 c 128,-1,7
 245 1393 245 1393 305 1415.5 c 128,-1,8
 365 1438 365 1438 433.5 1447 c 128,-1,9
 502 1456 502 1456 589 1456 c 2,10,-1
 1043 1456 l 1,11,-1
 1043 1311 l 1,12,-1
 957 1311 l 1,13,-1
 957 -179 l 1,14,-1
 808 -179 l 1,15,-1
 808 1311 l 1,16,-1
 612 1311 l 1,17,-1
 612 -179 l 1,18,-1
 462 -179 l 1,0,-1
EndSplineSet
EndChar

StartChar: periodcentered
Encoding: 183 183 120
Width: 489
GlyphClass: 2
Flags: W
LayerCount: 2
UndoRedoHistory
Layer: 1
Undoes
EndUndoes
Redoes
EndRedoes
EndUndoRedoHistory
Fore
SplineSet
125 525 m 1,0,-1
 125 753 l 1,1,-1
 364 753 l 1,2,-1
 364 525 l 1,3,-1
 125 525 l 1,0,-1
EndSplineSet
EndChar

StartChar: cedilla
Encoding: 184 184 121
Width: 529
GlyphClass: 4
Flags: W
AnchorPoint: "Anchor-1" 280 0 mark 0
LayerCount: 2
UndoRedoHistory
Layer: 1
Undoes
EndUndoes
Redoes
EndRedoes
EndUndoRedoHistory
Fore
SplineSet
43 -436 m 1,0,-1
 56 -338 l 1,1,2
 121 -362 121 -362 204 -362 c 0,3,4
 254 -362 254 -362 287.5 -341 c 128,-1,5
 321 -320 321 -320 321 -280 c 0,6,7
 321 -243 321 -243 283.5 -212.5 c 128,-1,8
 246 -182 246 -182 162 -182 c 2,9,-1
 139 -182 l 1,10,-1
 172 22 l 1,11,-1
 270 22 l 1,12,-1
 251 -112 l 1,13,14
 357 -122 357 -122 418.5 -168.5 c 128,-1,15
 480 -215 480 -215 480 -285 c 0,16,17
 480 -370 480 -370 403 -415.5 c 128,-1,18
 326 -461 326 -461 216 -461 c 0,19,20
 121 -461 121 -461 43 -436 c 1,0,-1
EndSplineSet
EndChar

StartChar: uni00B9
Encoding: 185 185 122
Width: 1095
GlyphClass: 2
Flags: W
LayerCount: 2
UndoRedoHistory
Layer: 1
Undoes
EndUndoes
Redoes
EndRedoes
EndUndoRedoHistory
Fore
SplineSet
350 610 m 1,0,-1
 350 742 l 1,1,-1
 499 742 l 1,2,3
 499 885 499 885 498.5 1073 c 128,-1,4
 498 1261 498 1261 498 1271 c 1,5,6
 486 1264 486 1264 451 1251.5 c 128,-1,7
 416 1239 416 1239 376 1225 c 128,-1,8
 336 1211 336 1211 325 1207 c 1,9,-1
 325 1348 l 1,10,11
 366 1361 366 1361 434 1388 c 128,-1,12
 502 1415 502 1415 523 1427 c 1,13,-1
 643 1437 l 1,14,-1
 643 739 l 1,15,-1
 784 739 l 1,16,-1
 784 610 l 1,17,-1
 350 610 l 1,0,-1
EndSplineSet
EndChar

StartChar: ordmasculine
Encoding: 186 186 123
Width: 887
GlyphClass: 2
Flags: W
LayerCount: 2
UndoRedoHistory
Layer: 1
Undoes
EndUndoes
Redoes
EndRedoes
EndUndoRedoHistory
Fore
SplineSet
447 751 m 0,0,1
 270 751 270 751 173.5 851.5 c 128,-1,2
 77 952 77 952 77 1111 c 0,3,4
 77 1265 77 1265 175.5 1365.5 c 128,-1,5
 274 1466 274 1466 445 1466 c 0,6,7
 617 1466 617 1466 714 1364.5 c 128,-1,8
 811 1263 811 1263 811 1107 c 0,9,10
 811 954 811 954 714 852.5 c 128,-1,11
 617 751 617 751 447 751 c 0,0,1
447 880 m 0,12,13
 543 880 543 880 599.5 941 c 128,-1,14
 656 1002 656 1002 656 1104 c 0,15,16
 656 1211 656 1211 599.5 1272.5 c 128,-1,17
 543 1334 543 1334 445 1334 c 0,18,19
 350 1334 350 1334 292.5 1272.5 c 128,-1,20
 235 1211 235 1211 235 1108 c 0,21,22
 235 1001 235 1001 290.5 940.5 c 128,-1,23
 346 880 346 880 447 880 c 0,12,13
EndSplineSet
EndChar

StartChar: guillemotright
Encoding: 187 187 124
Width: 1122
GlyphClass: 2
Flags: W
LayerCount: 2
UndoRedoHistory
Layer: 1
Undoes
EndUndoes
Redoes
EndRedoes
EndUndoRedoHistory
Fore
SplineSet
299 916 m 1,0,-1
 571 543 l 1,1,-1
 294 167 l 1,2,-1
 128 167 l 1,3,-1
 375 543 l 1,4,-1
 136 916 l 1,5,-1
 299 916 l 1,0,-1
730 916 m 1,6,-1
 1001 543 l 1,7,-1
 724 167 l 1,8,-1
 559 167 l 1,9,-1
 806 543 l 1,10,-1
 567 916 l 1,11,-1
 730 916 l 1,6,-1
EndSplineSet
EndChar

StartChar: onequarter
Encoding: 188 188 125
Width: 2024
GlyphClass: 2
Flags: W
LayerCount: 2
UndoRedoHistory
Layer: 1
Undoes
EndUndoes
Redoes
EndRedoes
EndUndoRedoHistory
Fore
SplineSet
238 629 m 1,0,-1
 238 760 l 1,1,-1
 387 760 l 1,2,-1
 387 1290 l 1,3,4
 375 1283 375 1283 340 1270.5 c 128,-1,5
 305 1258 305 1258 264.5 1244 c 128,-1,6
 224 1230 224 1230 213 1226 c 1,7,-1
 213 1367 l 1,8,9
 254 1380 254 1380 322 1407 c 128,-1,10
 390 1434 390 1434 411 1446 c 1,11,-1
 531 1456 l 1,12,-1
 531 758 l 1,13,-1
 672 758 l 1,14,-1
 672 629 l 1,15,-1
 238 629 l 1,0,-1
499 0 m 1,16,-1
 1398 1456 l 1,17,-1
 1566 1456 l 1,18,-1
 669 0 l 1,19,-1
 499 0 l 1,16,-1
1305 329 m 1,20,-1
 1526 329 l 1,21,-1
 1526 641 l 1,22,-1
 1305 329 l 1,20,-1
1528 24 m 1,23,-1
 1528 214 l 1,24,-1
 1153 214 l 1,25,-1
 1153 311 l 1,26,-1
 1520 825 l 1,27,-1
 1668 825 l 1,28,-1
 1668 329 l 1,29,-1
 1779 329 l 1,30,-1
 1786 214 l 1,31,-1
 1667 214 l 1,32,-1
 1667 24 l 1,33,-1
 1528 24 l 1,23,-1
EndSplineSet
EndChar

StartChar: onehalf
Encoding: 189 189 126
Width: 2156
GlyphClass: 2
Flags: W
LayerCount: 2
UndoRedoHistory
Layer: 1
Undoes
EndUndoes
Redoes
EndRedoes
EndUndoRedoHistory
Fore
SplineSet
459 0 m 1,0,-1
 1358 1456 l 1,1,-1
 1527 1456 l 1,2,-1
 629 0 l 1,3,-1
 459 0 l 1,0,-1
1285 0 m 1,4,-1
 1285 128 l 1,5,6
 1506 320 1506 320 1601.5 427.5 c 128,-1,7
 1697 535 1697 535 1697 602 c 0,8,9
 1697 651 1697 651 1662 678.5 c 128,-1,10
 1627 706 1627 706 1567 706 c 0,11,12
 1509 706 1509 706 1456 676 c 128,-1,13
 1403 646 1403 646 1364 594 c 1,14,-1
 1286 696 l 1,15,16
 1333 765 1333 765 1409.5 803 c 128,-1,17
 1486 841 1486 841 1576 841 c 0,18,19
 1695 841 1695 841 1772 778 c 128,-1,20
 1849 715 1849 715 1849 604 c 0,21,22
 1849 555 1849 555 1829.5 505 c 128,-1,23
 1810 455 1810 455 1782.5 414 c 128,-1,24
 1755 373 1755 373 1703.5 321.5 c 128,-1,25
 1652 270 1652 270 1610 233 c 128,-1,26
 1568 196 1568 196 1499 139 c 1,27,-1
 1844 139 l 1,28,-1
 1844 0 l 1,29,-1
 1285 0 l 1,4,-1
230 629 m 1,30,-1
 230 760 l 1,31,-1
 379 760 l 1,32,-1
 379 1290 l 1,33,34
 367 1283 367 1283 332 1270.5 c 128,-1,35
 297 1258 297 1258 257 1244 c 128,-1,36
 217 1230 217 1230 206 1226 c 1,37,-1
 206 1367 l 1,38,39
 246 1380 246 1380 314 1407 c 128,-1,40
 382 1434 382 1434 403 1446 c 1,41,-1
 523 1456 l 1,42,-1
 523 758 l 1,43,-1
 664 758 l 1,44,-1
 664 629 l 1,45,-1
 230 629 l 1,30,-1
EndSplineSet
EndChar

StartChar: threequarters
Encoding: 190 190 127
Width: 2150
GlyphClass: 2
Flags: W
LayerCount: 2
UndoRedoHistory
Layer: 1
Undoes
EndUndoes
Redoes
EndRedoes
EndUndoRedoHistory
Fore
SplineSet
523 0 m 1,0,-1
 1422 1456 l 1,1,-1
 1591 1456 l 1,2,-1
 693 0 l 1,3,-1
 523 0 l 1,0,-1
1553 24 m 1,4,-1
 1553 214 l 1,5,-1
 1178 214 l 1,6,-1
 1178 311 l 1,7,-1
 1545 825 l 1,8,-1
 1693 825 l 1,9,-1
 1693 329 l 1,10,-1
 1804 329 l 1,11,-1
 1810 214 l 1,12,-1
 1691 214 l 1,13,-1
 1691 24 l 1,14,-1
 1553 24 l 1,4,-1
1330 329 m 1,15,-1
 1551 329 l 1,16,-1
 1551 641 l 1,17,-1
 1330 329 l 1,15,-1
477 602 m 0,18,19
 322 602 322 602 215 698 c 1,20,-1
 276 805 l 1,21,22
 372 728 372 728 468 728 c 0,23,24
 539 728 539 728 585 764 c 128,-1,25
 631 800 631 800 631 860 c 0,26,27
 631 986 631 986 433 986 c 1,28,-1
 366 985 l 1,29,-1
 366 1111 l 1,30,-1
 427 1111 l 2,31,32
 510 1111 510 1111 558.5 1139 c 128,-1,33
 607 1167 607 1167 607 1224 c 0,34,35
 607 1278 607 1278 570 1305.5 c 128,-1,36
 533 1333 533 1333 471 1333 c 0,37,38
 375 1333 375 1333 271 1258 c 1,39,-1
 212 1362 l 1,40,41
 267 1407 267 1407 339 1432.5 c 128,-1,42
 411 1458 411 1458 483 1458 c 0,43,44
 597 1458 597 1458 675.5 1398.5 c 128,-1,45
 754 1339 754 1339 754 1234 c 0,46,47
 754 1107 754 1107 635 1055 c 1,48,49
 706 1029 706 1029 742 977.5 c 128,-1,50
 778 926 778 926 778 857 c 0,51,52
 778 739 778 739 691 670.5 c 128,-1,53
 604 602 604 602 477 602 c 0,18,19
EndSplineSet
EndChar

StartChar: AE
Encoding: 198 198 135
Width: 2073
GlyphClass: 2
Flags: W
LayerCount: 2
UndoRedoHistory
Layer: 1
Undoes
EndUndoes
Redoes
EndRedoes
EndUndoRedoHistory
Fore
SplineSet
553 549 m 1,0,-1
 1072 549 l 1,1,-1
 1017 1288 l 1,2,-1
 970 1288 l 1,3,-1
 553 549 l 1,0,-1
25 0 m 1,4,-1
 869 1456 l 1,5,-1
 1893 1456 l 1,6,-1
 1893 1288 l 1,7,-1
 1206 1288 l 1,8,-1
 1245 830 l 1,9,-1
 1863 830 l 1,10,-1
 1863 669 l 1,11,-1
 1262 669 l 1,12,-1
 1308 167 l 1,13,-1
 1918 167 l 1,14,-1
 1918 0 l 1,15,-1
 1121 0 l 1,16,-1
 1086 398 l 1,17,-1
 476 398 l 1,18,-1
 250 0 l 1,19,-1
 25 0 l 1,4,-1
EndSplineSet
EndChar

StartChar: Eth
Encoding: 208 208 145
Width: 1505
GlyphClass: 2
Flags: W
LayerCount: 2
UndoRedoHistory
Layer: 1
Undoes
EndUndoes
Redoes
EndRedoes
EndUndoRedoHistory
Fore
SplineSet
392 169 m 1,0,-1
 633 169 l 2,1,2
 926 169 926 169 1072 317 c 128,-1,3
 1218 465 1218 465 1218 726 c 0,4,5
 1218 1023 1218 1023 1057 1155 c 128,-1,6
 896 1287 896 1287 553 1287 c 2,7,-1
 392 1287 l 1,8,-1
 392 813 l 1,9,-1
 688 813 l 1,10,-1
 688 685 l 1,11,-1
 392 685 l 1,12,-1
 392 169 l 1,0,-1
196 685 m 1,13,-1
 14 685 l 1,14,-1
 14 813 l 1,15,-1
 196 813 l 1,16,-1
 196 1456 l 1,17,-1
 531 1456 l 2,18,19
 740 1456 740 1456 900.5 1416.5 c 128,-1,20
 1061 1377 1061 1377 1181 1292 c 128,-1,21
 1301 1207 1301 1207 1363.5 1065.5 c 128,-1,22
 1426 924 1426 924 1426 728 c 0,23,24
 1426 384 1426 384 1217 192 c 128,-1,25
 1008 0 1008 0 620 0 c 2,26,-1
 196 0 l 1,27,-1
 196 685 l 1,13,-1
EndSplineSet
EndChar

StartChar: multiply
Encoding: 215 215 152
Width: 1234
GlyphClass: 2
Flags: W
LayerCount: 2
UndoRedoHistory
Layer: 1
Undoes
EndUndoes
Redoes
EndRedoes
EndUndoRedoHistory
Fore
SplineSet
328 143 m 1,0,-1
 208 263 l 1,1,-1
 496 552 l 1,2,-1
 208 840 l 1,3,-1
 328 961 l 1,4,-1
 617 672 l 1,5,-1
 905 961 l 1,6,-1
 1026 840 l 1,7,-1
 737 552 l 1,8,-1
 1026 264 l 1,9,-1
 905 143 l 1,10,-1
 617 431 l 1,11,-1
 328 143 l 1,0,-1
EndSplineSet
EndChar

StartChar: Oslash
Encoding: 216 216 153
Width: 1663
GlyphClass: 2
Flags: W
LayerCount: 2
UndoRedoHistory
Layer: 1
Undoes
EndUndoes
Redoes
EndRedoes
EndUndoRedoHistory
Fore
SplineSet
816 145 m 0,0,1
 1064 145 1064 145 1186.5 301 c 128,-1,2
 1309 457 1309 457 1309 730 c 0,3,4
 1309 856 1309 856 1279.5 961 c 128,-1,5
 1250 1066 1250 1066 1192 1146 c 0,6,7
 1168 1178 1168 1178 1138 1205 c 1,8,-1
 599 187 l 1,9,10
 693 145 693 145 816 145 c 0,0,1
434 -124 m 1,11,-1
 339 -74 l 1,12,-1
 420 79 l 1,13,14
 352 120 352 120 296 180 c 0,15,16
 107 382 107 382 107 730 c 0,17,18
 107 951 107 951 190 1120 c 128,-1,19
 273 1289 273 1289 435.5 1385.5 c 128,-1,20
 598 1482 598 1482 819 1482 c 0,21,22
 992 1482 992 1482 1130 1420 c 1,23,-1
 1204 1560 l 1,24,-1
 1299 1509 l 1,25,-1
 1224 1367 l 1,26,27
 1364 1274 1364 1274 1440 1120 c 0,28,29
 1524 950 1524 950 1524 730 c 0,30,31
 1524 384 1524 384 1336.5 181 c 128,-1,32
 1149 -22 1149 -22 818 -22 c 0,33,34
 648 -22 648 -22 516 31 c 1,35,-1
 434 -124 l 1,11,-1
1048 1266 m 1,36,37
 1043 1268 1043 1268 1038 1270 c 0,38,39
 943 1314 943 1314 818 1315 c 0,40,41
 656 1315 656 1315 541.5 1236.5 c 128,-1,42
 427 1158 427 1158 372.5 1028 c 128,-1,43
 318 898 318 898 318 730 c 0,44,45
 318 552 318 552 372 422 c 0,46,47
 418 312 418 312 506 242 c 1,48,-1
 1048 1266 l 1,36,37
EndSplineSet
EndChar

StartChar: Thorn
Encoding: 222 222 159
Width: 1281
GlyphClass: 2
Flags: W
LayerCount: 2
UndoRedoHistory
Layer: 1
Undoes
EndUndoes
Redoes
EndRedoes
EndUndoRedoHistory
Fore
SplineSet
395 510 m 1,0,-1
 649 510 l 2,1,2
 811 510 811 510 903.5 576 c 128,-1,3
 996 642 996 642 996 776 c 0,4,5
 996 857 996 857 969 911.5 c 128,-1,6
 942 966 942 966 887.5 995.5 c 128,-1,7
 833 1025 833 1025 765 1037 c 128,-1,8
 697 1049 697 1049 602 1049 c 2,9,-1
 395 1049 l 1,10,-1
 395 510 l 1,0,-1
199 0 m 1,11,-1
 199 1456 l 1,12,-1
 395 1456 l 1,13,-1
 395 1217 l 1,14,-1
 589 1217 l 2,15,16
 699 1217 699 1217 785 1206.5 c 128,-1,17
 871 1196 871 1196 952.5 1166.5 c 128,-1,18
 1034 1137 1034 1137 1087.5 1089 c 128,-1,19
 1141 1041 1141 1041 1173.5 962 c 128,-1,20
 1206 883 1206 883 1206 777 c 0,21,22
 1206 665 1206 665 1161.5 580 c 128,-1,23
 1117 495 1117 495 1037.5 443.5 c 128,-1,24
 958 392 958 392 856 366.5 c 128,-1,25
 754 341 754 341 632 341 c 2,26,-1
 395 341 l 1,27,-1
 395 0 l 1,28,-1
 199 0 l 1,11,-1
EndSplineSet
EndChar

StartChar: germandbls
Encoding: 223 223 160
Width: 1250
GlyphClass: 2
Flags: W
LayerCount: 2
UndoRedoHistory
Layer: 1
Undoes
EndUndoes
Redoes
EndRedoes
EndUndoRedoHistory
Fore
SplineSet
808 -23 m 0,0,1
 727 -23 727 -23 645 -8 c 128,-1,2
 563 7 563 7 522 22 c 2,3,-1
 481 37 l 1,4,-1
 511 185 l 1,5,6
 528 178 528 178 557.5 167.5 c 128,-1,7
 587 157 587 157 662.5 141.5 c 128,-1,8
 738 126 738 126 796 130 c 0,9,10
 874 135 874 135 927.5 188 c 128,-1,11
 981 241 981 241 981 331 c 0,12,13
 981 400 981 400 951.5 459.5 c 128,-1,14
 922 519 922 519 863 569.5 c 128,-1,15
 804 620 804 620 732 662.5 c 128,-1,16
 660 705 660 705 559 750 c 1,17,-1
 559 889 l 1,18,19
 702 948 702 948 761 1012.5 c 128,-1,20
 820 1077 820 1077 820 1173 c 0,21,22
 820 1256 820 1256 763 1304 c 128,-1,23
 706 1352 706 1352 604 1352 c 0,24,25
 481 1352 481 1352 416.5 1262 c 128,-1,26
 352 1172 352 1172 352 1026 c 2,27,-1
 352 0 l 1,28,-1
 166 0 l 1,29,-1
 165 1024 l 2,30,31
 165 1251 165 1251 281.5 1376 c 128,-1,32
 398 1501 398 1501 605 1501 c 0,33,34
 795 1501 795 1501 905.5 1413.5 c 128,-1,35
 1016 1326 1016 1326 1016 1179 c 0,36,37
 1016 1066 1016 1066 957.5 989 c 128,-1,38
 899 912 899 912 776 853 c 1,39,40
 745 836 745 836 715 826 c 1,41,42
 722 824 722 824 748.5 814.5 c 128,-1,43
 775 805 775 805 776 805 c 0,44,45
 842 778 842 778 896.5 749.5 c 128,-1,46
 951 721 951 721 1005.5 679.5 c 128,-1,47
 1060 638 1060 638 1097 591 c 128,-1,48
 1134 544 1134 544 1157 480.5 c 128,-1,49
 1180 417 1180 417 1180 345 c 0,50,51
 1180 181 1180 181 1071 79 c 128,-1,52
 962 -23 962 -23 808 -23 c 0,0,1
EndSplineSet
EndChar

StartChar: ae
Encoding: 230 230 167
Width: 1790
GlyphClass: 2
Flags: W
LayerCount: 2
UndoRedoHistory
Layer: 1
Undoes
EndUndoes
Redoes
EndRedoes
EndUndoRedoHistory
Fore
SplineSet
974 616 m 1,0,1
 1519 616 l 1,2,-1
 1517 630 l 1,3,4
 1502 756 1502 756 1433.5 828 c 128,-1,5
 1365 900 1365 900 1252 900 c 0,6,7
 1132 900 1132 900 1061 819.5 c 128,-1,8
 990 739 990 739 974 616 c 1,0,1
477 129 m 0,9,10
 556 129 556 129 616.5 159 c 128,-1,11
 677 189 677 189 712 241 c 128,-1,12
 747 293 747 293 764.5 354.5 c 128,-1,13
 782 416 782 416 782 485 c 1,14,15
 634 485 l 2,16,17
 269 485 269 485 269 294 c 0,18,19
 269 210 269 210 328 169.5 c 128,-1,20
 387 129 387 129 477 129 c 0,9,10
455 -26 m 0,21,22
 287 -26 287 -26 183 57.5 c 128,-1,23
 79 141 79 141 79 286 c 0,24,25
 79 349 79 349 97 398.5 c 128,-1,26
 115 448 115 448 144.5 482.5 c 128,-1,27
 174 517 174 517 223 542 c 128,-1,28
 272 567 272 567 324 581.5 c 128,-1,29
 376 596 376 596 449.5 604.5 c 128,-1,30
 523 613 523 613 590.5 615.5 c 128,-1,31
 658 618 658 618 748 618 c 2,32,-1
 781 618 l 1,33,34
 781 747 781 747 716.5 823.5 c 128,-1,35
 652 900 652 900 531 900 c 0,36,37
 470 900 470 900 396 882 c 128,-1,38
 322 864 322 864 280 848 c 128,-1,39
 238 832 238 832 206 817 c 1,40,-1
 150 952 l 1,41,42
 171 965 171 965 212.5 983.5 c 128,-1,43
 254 1002 254 1002 355 1027.5 c 128,-1,44
 456 1053 456 1053 555 1053 c 0,45,46
 661 1053 661 1053 758 998 c 128,-1,47
 855 943 855 943 893 845 c 1,48,49
 948 940 948 940 1037.5 995 c 128,-1,50
 1127 1050 1127 1050 1236 1053 c 128,-1,51
 1345 1056 1345 1056 1431 1017.5 c 128,-1,52
 1517 979 1517 979 1572.5 908 c 128,-1,53
 1628 837 1628 837 1657 739 c 128,-1,54
 1686 641 1686 641 1686 523 c 0,55,56
 1686 515 1686 515 1684 485 c 1,57,-1
 972 485 l 1,58,-1
 972 458 l 1,59,60
 977 313 977 313 1046.5 227 c 128,-1,61
 1116 141 1116 141 1259 132 c 0,62,63
 1315 128 1315 128 1371.5 138.5 c 128,-1,64
 1428 149 1428 149 1465 164 c 128,-1,65
 1502 179 1502 179 1536.5 199.5 c 128,-1,66
 1571 220 1571 220 1581.5 228 c 128,-1,67
 1592 236 1592 236 1598 241 c 1,68,-1
 1654 102 l 1,69,-1
 1638 88 l 2,70,71
 1623 75 1623 75 1588.5 56 c 128,-1,72
 1554 37 1554 37 1509 18.5 c 128,-1,73
 1464 0 1464 0 1396 -12 c 128,-1,74
 1328 -24 1328 -24 1254 -22 c 0,75,76
 1129 -18 1129 -18 1027 47 c 128,-1,77
 925 112 925 112 873 219 c 1,78,79
 815 108 815 108 707 41 c 128,-1,80
 599 -26 599 -26 455 -26 c 0,21,22
EndSplineSet
EndChar

StartChar: eth
Encoding: 240 240 177
Width: 1222
GlyphClass: 2
Flags: W
LayerCount: 2
UndoRedoHistory
Layer: 1
Undoes
EndUndoes
Redoes
EndRedoes
EndUndoRedoHistory
Fore
SplineSet
594 136 m 0,0,1
 738 136 738 136 817 228.5 c 128,-1,2
 896 321 896 321 896 468 c 0,3,4
 896 585 896 585 805 662 c 128,-1,5
 714 739 714 739 597 739 c 0,6,7
 465 739 465 739 384 658 c 128,-1,8
 303 577 303 577 303 444 c 0,9,10
 303 306 303 306 385.5 221 c 128,-1,11
 468 136 468 136 594 136 c 0,0,1
594 -23 m 0,12,13
 447 -23 447 -23 334.5 41 c 128,-1,14
 222 105 222 105 163 213 c 128,-1,15
 104 321 104 321 104 454 c 0,16,17
 104 652 104 652 236 775.5 c 128,-1,18
 368 899 368 899 578 899 c 0,19,20
 800 899 800 899 917 732 c 1,21,22
 917 748 917 748 914 760 c 1,23,24
 911 863 911 863 865 966.5 c 128,-1,25
 819 1070 819 1070 747 1152 c 0,26,27
 716 1187 716 1187 683 1220 c 1,28,-1
 454 1066 l 1,29,-1
 384 1168 l 1,30,-1
 587 1304 l 1,31,32
 500 1374 500 1374 413 1416 c 0,33,34
 326 1460 326 1460 251 1476 c 1,35,-1
 329 1604 l 1,36,37
 552 1554 552 1554 732 1406 c 0,38,39
 734 1404 734 1404 735 1403 c 1,40,-1
 946 1544 l 1,41,-1
 1016 1443 l 1,42,-1
 828 1317 l 1,43,44
 940 1200 940 1200 1010 1053 c 0,45,46
 1108 848 1108 848 1108 629 c 0,47,48
 1108 324 1108 324 972.5 150.5 c 128,-1,49
 837 -23 837 -23 594 -23 c 0,12,13
EndSplineSet
EndChar

StartChar: divide
Encoding: 247 247 184
Width: 1302
GlyphClass: 2
Flags: W
LayerCount: 2
UndoRedoHistory
Layer: 1
Undoes
EndUndoes
Redoes
EndRedoes
EndUndoRedoHistory
Fore
SplineSet
522 863 m 1,0,-1
 522 1091 l 1,1,-1
 764 1091 l 1,2,-1
 764 863 l 1,3,-1
 522 863 l 1,0,-1
153 474 m 1,4,-1
 153 633 l 1,5,-1
 1127 633 l 1,6,-1
 1127 474 l 1,7,-1
 153 474 l 1,4,-1
524 9 m 1,8,-1
 524 238 l 1,9,-1
 765 238 l 1,10,-1
 765 9 l 1,11,-1
 524 9 l 1,8,-1
EndSplineSet
EndChar

StartChar: oslash
Encoding: 248 248 185
Width: 1255
GlyphClass: 2
Flags: W
LayerCount: 2
UndoRedoHistory
Layer: 1
Undoes
EndUndoes
Redoes
EndRedoes
EndUndoRedoHistory
Fore
SplineSet
634 132 m 0,0,1
 792 132 792 132 875.5 235 c 128,-1,2
 959 338 959 338 959 512 c 0,3,4
 959 688 959 688 874 793 c 0,5,6
 854 818 854 818 830 837 c 1,7,-1
 517 148 l 1,8,9
 570 132 570 132 634 132 c 0,0,1
355 -210 m 1,10,-1
 258 -170 l 1,11,-1
 353 40 l 1,12,13
 291 72 291 72 242 124 c 0,14,15
 101 270 101 270 101 512 c 0,16,17
 101 756 101 756 243.5 904 c 128,-1,18
 386 1052 386 1052 635 1052 c 0,19,20
 726 1052 726 1052 802 1032 c 1,21,-1
 892 1231 l 1,22,-1
 990 1190 l 1,23,-1
 901 994 l 1,24,25
 968 958 968 958 1020 904 c 0,26,27
 1158 756 1158 756 1158 512 c 0,28,29
 1158 272 1158 272 1018 125 c 128,-1,30
 878 -22 878 -22 632 -22 c 0,31,32
 533 -22 533 -22 451 1 c 1,33,-1
 355 -210 l 1,10,-1
735 884 m 1,34,35
 688 898 688 898 631 898 c 0,36,37
 472 898 472 898 386 793 c 128,-1,38
 300 688 300 688 300 511 c 0,39,40
 300 336 300 336 386 234 c 0,41,42
 403 213 403 213 424 197 c 1,43,-1
 735 884 l 1,34,35
EndSplineSet
EndChar

StartChar: thorn
Encoding: 254 254 191
Width: 1235
GlyphClass: 2
Flags: W
LayerCount: 2
UndoRedoHistory
Layer: 1
Undoes
EndUndoes
Redoes
EndRedoes
EndUndoRedoHistory
Fore
SplineSet
636 129 m 0,0,1
 712 129 712 129 771 161 c 128,-1,2
 830 193 830 193 865 248 c 128,-1,3
 900 303 900 303 917.5 372 c 128,-1,4
 935 441 935 441 935 521 c 0,5,6
 935 598 935 598 919.5 662.5 c 128,-1,7
 904 727 904 727 871.5 781 c 128,-1,8
 839 835 839 835 780.5 866 c 128,-1,9
 722 897 722 897 643 897 c 0,10,11
 561 897 561 897 500 864 c 128,-1,12
 439 831 439 831 404.5 773.5 c 128,-1,13
 370 716 370 716 354 646.5 c 128,-1,14
 338 577 338 577 338 494 c 0,15,16
 338 332 338 332 416 230.5 c 128,-1,17
 494 129 494 129 636 129 c 0,0,1
153 -418 m 1,18,-1
 153 1458 l 1,19,-1
 341 1458 l 1,20,-1
 340 900 l 1,21,22
 395 972 395 972 481.5 1011.5 c 128,-1,23
 568 1051 568 1051 662 1051 c 0,24,25
 779 1051 779 1051 871 1009 c 128,-1,26
 963 967 963 967 1020 894.5 c 128,-1,27
 1077 822 1077 822 1106.5 728 c 128,-1,28
 1136 634 1136 634 1136 526 c 0,29,30
 1136 416 1136 416 1106 318.5 c 128,-1,31
 1076 221 1076 221 1018.5 144 c 128,-1,32
 961 67 961 67 869 22 c 128,-1,33
 777 -23 777 -23 662 -23 c 0,34,35
 460 -23 460 -23 338 115 c 1,36,-1
 338 -418 l 1,37,-1
 153 -418 l 1,18,-1
EndSplineSet
EndChar

StartChar: dcroat
Encoding: 273 273 210
Width: 1258
GlyphClass: 2
Flags: W
LayerCount: 2
UndoRedoHistory
Layer: 1
Undoes
EndUndoes
Redoes
EndRedoes
EndUndoRedoHistory
Fore
SplineSet
600 132 m 0,0,1
 747 132 747 132 827.5 237 c 128,-1,2
 908 342 908 342 908 525 c 0,3,4
 908 690 908 690 827.5 794 c 128,-1,5
 747 898 747 898 606 898 c 0,6,7
 462 898 462 898 380 792 c 128,-1,8
 298 686 298 686 298 510 c 0,9,10
 298 339 298 339 378 235.5 c 128,-1,11
 458 132 458 132 600 132 c 0,0,1
574 -22 m 0,12,13
 366 -22 366 -22 233.5 122.5 c 128,-1,14
 101 267 101 267 101 507 c 0,15,16
 101 751 101 751 230.5 901.5 c 128,-1,17
 360 1052 360 1052 583 1052 c 0,18,19
 700 1052 700 1052 786 1000.5 c 128,-1,20
 872 949 872 949 904 879 c 1,21,-1
 904 1213 l 1,22,-1
 588 1213 l 1,23,-1
 588 1355 l 1,24,-1
 904 1355 l 1,25,-1
 904 1482 l 1,26,-1
 1094 1482 l 1,27,-1
 1094 1355 l 1,28,-1
 1201 1355 l 1,29,-1
 1201 1213 l 1,30,-1
 1094 1213 l 1,31,-1
 1094 262 l 1,32,33
 1095 175 1095 175 1101 0 c 1,34,-1
 909 0 l 1,35,-1
 905 168 l 1,36,37
 873 90 873 90 787.5 34 c 128,-1,38
 702 -22 702 -22 574 -22 c 0,12,13
EndSplineSet
EndChar

StartChar: gcedilla
Encoding: 291 291 228
Width: 1241
GlyphClass: 2
Flags: W
LayerCount: 2
UndoRedoHistory
Layer: 1
Undoes
EndUndoes
Redoes
EndRedoes
EndUndoRedoHistory
Fore
SplineSet
594 179 m 0,0,1
 748 179 748 179 828 276 c 128,-1,2
 908 373 908 373 908 545 c 0,3,4
 908 707 908 707 828.5 802.5 c 128,-1,5
 749 898 749 898 609 898 c 0,6,7
 464 898 464 898 381 795 c 128,-1,8
 298 692 298 692 298 520 c 0,9,10
 298 354 298 354 375 266.5 c 128,-1,11
 452 179 452 179 594 179 c 0,0,1
480 1162 m 1,12,-1
 643 1625 l 1,13,-1
 774 1625 l 1,14,-1
 667 1162 l 1,15,-1
 480 1162 l 1,12,-1
905 877 m 1,16,-1
 908 1026 l 1,17,-1
 1102 1026 l 1,18,19
 1092 863 1092 863 1092 746 c 2,20,-1
 1092 147 l 2,21,22
 1092 23 1092 23 1061 -77.5 c 128,-1,23
 1030 -178 1030 -178 968 -253 c 128,-1,24
 906 -328 906 -328 806.5 -369 c 128,-1,25
 707 -410 707 -410 576 -410 c 0,26,27
 371 -410 371 -410 189 -319 c 1,28,-1
 219 -154 l 1,29,30
 311 -209 311 -209 392.5 -234.5 c 128,-1,31
 474 -260 474 -260 569 -260 c 0,32,33
 731 -260 731 -260 817.5 -170.5 c 128,-1,34
 904 -81 904 -81 904 95 c 2,35,-1
 904 202 l 1,36,37
 888 174 888 174 858 142 c 0,38,39
 828 109 828 109 790.5 85 c 128,-1,40
 753 61 753 61 698.5 45 c 128,-1,41
 644 29 644 29 581 29 c 0,42,43
 480 29 480 29 392.5 62.5 c 128,-1,44
 305 96 305 96 240.5 157 c 128,-1,45
 176 218 176 218 138.5 311 c 128,-1,46
 101 404 101 404 101 517 c 0,47,48
 101 759 101 759 228.5 905.5 c 128,-1,49
 356 1052 356 1052 582 1052 c 0,50,51
 796 1052 796 1052 905 877 c 1,16,-1
EndSplineSet
EndChar

StartChar: Hbar
Encoding: 294 294 231
Width: 1532
GlyphClass: 2
Flags: W
LayerCount: 2
UndoRedoHistory
Layer: 1
Undoes
EndUndoes
Redoes
EndRedoes
EndUndoRedoHistory
Fore
SplineSet
92 1149 m 1,0,-1
 91 1286 l 1,1,-1
 196 1286 l 1,2,-1
 196 1456 l 1,3,-1
 392 1456 l 1,4,-1
 392 1286 l 1,5,-1
 1158 1286 l 1,6,-1
 1158 1456 l 1,7,-1
 1354 1456 l 1,8,-1
 1354 1286 l 1,9,-1
 1442 1286 l 1,10,-1
 1442 1149 l 1,11,-1
 1354 1149 l 1,12,-1
 1354 0 l 1,13,-1
 1160 0 l 1,14,-1
 1160 663 l 1,15,-1
 394 663 l 1,16,-1
 394 0 l 1,17,-1
 196 0 l 1,18,-1
 196 1149 l 1,19,-1
 92 1149 l 1,0,-1
392 1149 m 1,20,-1
 392 829 l 1,21,-1
 1158 829 l 1,22,-1
 1158 1149 l 1,23,-1
 392 1149 l 1,20,-1
EndSplineSet
EndChar

StartChar: hbar
Encoding: 295 295 232
Width: 1205
GlyphClass: 2
Flags: W
LayerCount: 2
UndoRedoHistory
Layer: 1
Undoes
EndUndoes
Redoes
EndRedoes
EndUndoRedoHistory
Fore
SplineSet
-10 1181 m 1,0,-1
 -10 1321 l 1,1,-1
 168 1321 l 1,2,-1
 168 1482 l 1,3,-1
 358 1482 l 1,4,-1
 358 1321 l 1,5,-1
 577 1321 l 1,6,-1
 577 1181 l 1,7,-1
 358 1181 l 1,8,-1
 358 868 l 1,9,10
 403 951 403 951 499 1001.5 c 128,-1,11
 595 1052 595 1052 704 1052 c 0,12,13
 801 1052 801 1052 875.5 1017.5 c 128,-1,14
 950 983 950 983 994.5 922 c 128,-1,15
 1039 861 1039 861 1061.5 784 c 128,-1,16
 1084 707 1084 707 1084 616 c 2,17,-1
 1084 0 l 1,18,-1
 894 0 l 1,19,-1
 894 612 l 2,20,21
 894 762 894 762 841.5 830 c 128,-1,22
 789 898 789 898 673 898 c 0,23,24
 550 898 550 898 454 814 c 128,-1,25
 358 730 358 730 358 622 c 2,26,-1
 358 0 l 1,27,-1
 168 0 l 1,28,-1
 168 1181 l 1,29,-1
 -10 1181 l 1,0,-1
EndSplineSet
EndChar

StartChar: dotlessi
Encoding: 305 305 242
Width: 573
GlyphClass: 2
Flags: W
AnchorPoint: "Anchor-2" 297 1023 basechar 0
LayerCount: 2
UndoRedoHistory
Layer: 1
Undoes
EndUndoes
Redoes
EndRedoes
EndUndoRedoHistory
Fore
SplineSet
201 0 m 1,0,-1
 201 1026 l 1,1,-1
 391 1026 l 1,2,-1
 391 0 l 1,3,-1
 201 0 l 1,0,-1
EndSplineSet
EndChar

StartChar: kgreenlandic
Encoding: 312 312 249
Width: 1082
GlyphClass: 2
Flags: W
LayerCount: 2
UndoRedoHistory
Layer: 1
Undoes
EndUndoes
Redoes
EndRedoes
EndUndoRedoHistory
Fore
SplineSet
168 0 m 1,0,-1
 168 1026 l 1,1,-1
 358 1026 l 1,2,-1
 358 578 l 1,3,-1
 790 1026 l 1,4,-1
 1049 1026 l 1,5,-1
 525 511 l 1,6,7
 605 438 605 438 1086 0 c 1,8,-1
 834 0 l 1,9,-1
 358 446 l 1,10,-1
 358 0 l 1,11,-1
 168 0 l 1,0,-1
EndSplineSet
EndChar

StartChar: Lslash
Encoding: 321 321 258
Width: 1133
GlyphClass: 2
Flags: W
LayerCount: 2
UndoRedoHistory
Layer: 1
Undoes
EndUndoes
Redoes
EndRedoes
EndUndoRedoHistory
Fore
SplineSet
196 746 m 1,0,-1
 196 1456 l 1,1,-1
 392 1456 l 1,2,-1
 392 875 l 1,3,-1
 652 1047 l 1,4,-1
 652 884 l 1,5,-1
 392 712 l 1,6,-1
 392 169 l 1,7,-1
 1069 169 l 1,8,-1
 1069 0 l 1,9,-1
 196 0 l 1,10,-1
 196 583 l 1,11,-1
 23 469 l 1,12,-1
 23 632 l 1,13,-1
 196 746 l 1,0,-1
EndSplineSet
EndChar

StartChar: lslash
Encoding: 322 322 259
Width: 503
GlyphClass: 2
Flags: W
LayerCount: 2
UndoRedoHistory
Layer: 1
Undoes
EndUndoes
Redoes
EndRedoes
EndUndoRedoHistory
Fore
SplineSet
153 0 m 1,0,-1
 153 700 l 1,1,-1
 2 600 l 1,2,-1
 2 762 l 1,3,-1
 153 862 l 1,4,-1
 153 1482 l 1,5,-1
 343 1482 l 1,6,-1
 343 986 l 1,7,-1
 493 1086 l 1,8,-1
 493 924 l 1,9,-1
 343 823 l 1,10,-1
 343 0 l 1,11,-1
 153 0 l 1,0,-1
EndSplineSet
EndChar

StartChar: Eng
Encoding: 330 330 267
Width: 1574
GlyphClass: 2
Flags: W
LayerCount: 2
UndoRedoHistory
Layer: 1
Undoes
EndUndoes
Redoes
EndRedoes
EndUndoRedoHistory
Fore
SplineSet
548 -372 m 1,0,-1
 572 -216 l 1,1,2
 775 -270 775 -270 897 -270 c 0,3,4
 1042 -270 1042 -270 1112.5 -207 c 128,-1,5
 1183 -144 1183 -144 1190 -3 c 1,6,7
 1192 9 1192 9 1192 58 c 1,8,-1
 469 1049 l 1,9,-1
 380 1188 l 1,10,-1
 380 0 l 1,11,-1
 189 0 l 1,12,-1
 189 1456 l 1,13,-1
 407 1456 l 1,14,-1
 1100 483 l 1,15,-1
 1193 344 l 1,16,-1
 1193 1456 l 1,17,-1
 1385 1456 l 1,18,-1
 1385 96 l 2,19,20
 1385 -163 1385 -163 1270 -291 c 128,-1,21
 1155 -419 1155 -419 901 -419 c 0,22,23
 748 -419 748 -419 548 -372 c 1,0,-1
EndSplineSet
EndChar

StartChar: eng
Encoding: 331 331 268
Width: 1232
GlyphClass: 2
Flags: W
LayerCount: 2
UndoRedoHistory
Layer: 1
Undoes
EndUndoes
Redoes
EndRedoes
EndUndoRedoHistory
Fore
SplineSet
243 -350 m 1,0,-1
 267 -194 l 1,1,2
 470 -248 470 -248 592 -248 c 0,3,4
 750 -248 750 -248 820 -164 c 128,-1,5
 890 -80 890 -80 890 97 c 2,6,-1
 890 552 l 2,7,8
 890 622 890 622 885 672 c 128,-1,9
 880 722 880 722 866 767 c 128,-1,10
 852 812 852 812 827 839 c 128,-1,11
 802 866 802 866 762 881.5 c 128,-1,12
 722 897 722 897 666 897 c 0,13,14
 547 897 547 897 456 813 c 128,-1,15
 365 729 365 729 364 641 c 1,16,-1
 364 0 l 1,17,-1
 174 0 l 1,18,-1
 174 736 l 2,19,20
 174 807 174 807 171.5 879.5 c 128,-1,21
 169 952 169 952 166 989 c 2,22,-1
 164 1026 l 1,23,-1
 360 1026 l 1,24,-1
 362 882 l 1,25,26
 415 964 415 964 506 1007.5 c 128,-1,27
 597 1051 597 1051 702 1051 c 0,28,29
 903 1051 903 1051 991 927.5 c 128,-1,30
 1079 804 1079 804 1079 560 c 2,31,-1
 1079 129 l 2,32,33
 1079 -132 1079 -132 964 -264.5 c 128,-1,34
 849 -397 849 -397 596 -397 c 0,35,36
 443 -397 443 -397 243 -350 c 1,0,-1
EndSplineSet
EndChar

StartChar: OE
Encoding: 338 338 275
Width: 2049
GlyphClass: 2
Flags: W
LayerCount: 2
UndoRedoHistory
Layer: 1
Undoes
EndUndoes
Redoes
EndRedoes
EndUndoRedoHistory
Fore
SplineSet
814 140 m 0,0,1
 1024 144 1024 144 1126 261 c 1,2,-1
 1126 1211 l 1,3,4
 1015 1320 1015 1320 803 1314 c 1,5,6
 654 1311 654 1311 543.5 1235 c 128,-1,7
 433 1159 433 1159 375.5 1027 c 128,-1,8
 318 895 318 895 318 725 c 0,9,10
 318 460 318 460 448 298 c 128,-1,11
 578 136 578 136 814 140 c 0,0,1
806 -23 m 0,12,13
 485 -32 485 -32 296 170 c 128,-1,14
 107 372 107 372 107 730 c 0,15,16
 107 1065 107 1065 299.5 1274.5 c 128,-1,17
 492 1484 492 1484 802 1483 c 1,18,19
 920 1484 920 1484 1004 1453.5 c 128,-1,20
 1088 1423 1088 1423 1126 1386 c 1,21,-1
 1126 1456 l 1,22,-1
 1939 1456 l 1,23,-1
 1939 1287 l 1,24,-1
 1323 1287 l 1,25,-1
 1323 830 l 1,26,-1
 1901 830 l 1,27,-1
 1901 661 l 1,28,-1
 1323 661 l 1,29,-1
 1323 169 l 1,30,-1
 1969 169 l 1,31,-1
 1969 0 l 1,32,-1
 1126 0 l 1,33,-1
 1126 92 l 1,34,35
 1081 47 1081 47 998.5 13.5 c 128,-1,36
 916 -20 916 -20 806 -23 c 0,12,13
EndSplineSet
EndChar

StartChar: oe
Encoding: 339 339 276
Width: 1979
GlyphClass: 2
Flags: W
LayerCount: 2
UndoRedoHistory
Layer: 1
Undoes
EndUndoes
Redoes
EndRedoes
EndUndoRedoHistory
Fore
SplineSet
621 -22 m 0,0,1
 374 -22 374 -22 234.5 127.5 c 128,-1,2
 95 277 95 277 95 510 c 0,3,4
 95 662 95 662 154 783 c 128,-1,5
 213 904 213 904 334.5 978 c 128,-1,6
 456 1052 456 1052 624 1052 c 0,7,8
 896 1052 896 1052 1025 825 c 1,9,10
 1145 1053 1145 1053 1409 1053 c 0,11,12
 1625 1053 1625 1053 1744 908 c 128,-1,13
 1863 763 1863 763 1863 523 c 2,14,-1
 1863 474 l 1,15,-1
 1116 474 l 1,16,17
 1116 473 1116 473 1116.5 456 c 128,-1,18
 1117 439 1117 439 1117 438 c 0,19,20
 1125 302 1125 302 1217 217 c 128,-1,21
 1309 132 1309 132 1454 132 c 0,22,23
 1513 132 1513 132 1567.5 142.5 c 128,-1,24
 1622 153 1622 153 1658 168.5 c 128,-1,25
 1694 184 1694 184 1721.5 199.5 c 128,-1,26
 1749 215 1749 215 1762 226 c 2,27,-1
 1774 236 l 1,28,-1
 1831 95 l 1,29,30
 1826 90 1826 90 1816 82 c 128,-1,31
 1806 74 1806 74 1770.5 54 c 128,-1,32
 1735 34 1735 34 1693 18.5 c 128,-1,33
 1651 3 1651 3 1581.5 -9.5 c 128,-1,34
 1512 -22 1512 -22 1435 -22 c 0,35,36
 1302 -22 1302 -22 1187 41.5 c 128,-1,37
 1072 105 1072 105 1022 212 c 1,38,39
 973 102 973 102 864.5 40 c 128,-1,40
 756 -22 756 -22 621 -22 c 0,0,1
627 132 m 0,41,42
 703 132 703 132 762 162.5 c 128,-1,43
 821 193 821 193 857 246 c 128,-1,44
 893 299 893 299 911 366 c 128,-1,45
 929 433 929 433 929 511 c 0,46,47
 929 685 929 685 852 791.5 c 128,-1,48
 775 898 775 898 619 898 c 0,49,50
 465 898 465 898 380 788 c 128,-1,51
 295 678 295 678 294 507 c 0,52,53
 294 428 294 428 313.5 361.5 c 128,-1,54
 333 295 333 295 373 243 c 128,-1,55
 413 191 413 191 478 161.5 c 128,-1,56
 543 132 543 132 627 132 c 0,41,42
1117 618 m 1,57,-1
 1688 618 l 1,58,59
 1688 633 1688 633 1687 639 c 0,60,61
 1674 752 1674 752 1600.5 825 c 128,-1,62
 1527 898 1527 898 1413 898 c 0,63,64
 1293 898 1293 898 1211.5 815.5 c 128,-1,65
 1130 733 1130 733 1117 618 c 1,57,-1
EndSplineSet
EndChar

StartChar: Tbar
Encoding: 358 358 295
Width: 1147
GlyphClass: 2
Flags: W
LayerCount: 2
UndoRedoHistory
Layer: 1
Undoes
EndUndoes
Redoes
EndRedoes
EndUndoRedoHistory
Fore
SplineSet
174 617 m 1,0,-1
 174 766 l 1,1,-1
 473 766 l 1,2,-1
 473 1287 l 1,3,-1
 10 1287 l 1,4,-1
 10 1456 l 1,5,-1
 1137 1456 l 1,6,-1
 1137 1287 l 1,7,-1
 669 1287 l 1,8,-1
 669 766 l 1,9,-1
 956 766 l 1,10,-1
 956 617 l 1,11,-1
 669 617 l 1,12,-1
 669 0 l 1,13,-1
 473 0 l 1,14,-1
 473 617 l 1,15,-1
 174 617 l 1,0,-1
EndSplineSet
EndChar

StartChar: tbar
Encoding: 359 359 296
Width: 750
GlyphClass: 2
Flags: W
LayerCount: 2
UndoRedoHistory
Layer: 1
Undoes
EndUndoes
Redoes
EndRedoes
EndUndoRedoHistory
Fore
SplineSet
717 0 m 1,0,-1
 624 0 l 2,1,2
 399 0 399 0 315 75.5 c 128,-1,3
 231 151 231 151 231 356 c 2,4,-1
 231 576 l 1,5,-1
 45 576 l 1,6,-1
 45 710 l 1,7,-1
 231 710 l 1,8,-1
 231 901 l 1,9,-1
 43 901 l 1,10,-1
 43 1026 l 1,11,-1
 234 1026 l 1,12,-1
 234 1289 l 1,13,-1
 421 1343 l 1,14,-1
 421 1026 l 1,15,-1
 718 1026 l 1,16,-1
 718 901 l 1,17,-1
 421 901 l 1,18,-1
 421 710 l 1,19,-1
 670 710 l 1,20,-1
 670 576 l 1,21,-1
 421 576 l 1,22,-1
 421 346 l 2,23,24
 421 293 421 293 430.5 258.5 c 128,-1,25
 440 224 440 224 458 201 c 128,-1,26
 476 178 476 178 513.5 166.5 c 128,-1,27
 551 155 551 155 597 151 c 128,-1,28
 643 147 643 147 717 147 c 1,29,-1
 717 0 l 1,0,-1
EndSplineSet
EndChar

StartChar: florin
Encoding: 402 402 320
Width: 1073
GlyphClass: 2
Flags: W
LayerCount: 2
UndoRedoHistory
Layer: 1
Undoes
EndUndoes
Redoes
EndRedoes
EndUndoRedoHistory
Fore
SplineSet
201 -300 m 0,0,1
 158 -300 158 -300 96 -283 c 1,2,-1
 110 -131 l 1,3,4
 156 -142 156 -142 192 -142 c 0,5,6
 258 -142 258 -142 299.5 -100.5 c 128,-1,7
 341 -59 341 -59 359 37 c 2,8,-1
 495 799 l 1,9,-1
 343 799 l 1,10,-1
 368 926 l 1,11,-1
 518 926 l 1,12,-1
 555 1125 l 1,13,14
 564 1181 564 1181 576.5 1225 c 128,-1,15
 589 1269 589 1269 614.5 1316.5 c 128,-1,16
 640 1364 640 1364 675 1395.5 c 128,-1,17
 710 1427 710 1427 765.5 1447.5 c 128,-1,18
 821 1468 821 1468 892 1468 c 0,19,20
 932 1468 932 1468 972.5 1459 c 128,-1,21
 1013 1450 1013 1450 1033 1442 c 2,22,-1
 1053 1433 l 1,23,-1
 1037 1285 l 1,24,25
 978 1304 978 1304 927 1304 c 0,26,27
 855 1304 855 1304 815.5 1268.5 c 128,-1,28
 776 1233 776 1233 761 1153 c 1,29,-1
 715 926 l 1,30,-1
 907 926 l 1,31,-1
 882 799 l 1,32,-1
 691 799 l 1,33,-1
 563 83 l 2,34,35
 546 -16 546 -16 521 -83.5 c 128,-1,36
 496 -151 496 -151 454 -201.5 c 128,-1,37
 412 -252 412 -252 350 -276 c 128,-1,38
 288 -300 288 -300 201 -300 c 0,0,1
EndSplineSet
EndChar

StartChar: uni0237
Encoding: 567 567 363
Width: 503
GlyphClass: 2
Flags: W
AnchorPoint: "Anchor-2" 259 1026 basechar 0
LayerCount: 2
UndoRedoHistory
Layer: 1
Undoes
EndUndoes
Redoes
EndRedoes
EndUndoRedoHistory
Fore
SplineSet
22 -418 m 0,0,1
 -40 -418 -40 -418 -113 -404 c 1,2,-1
 -113 -242 l 1,3,4
 -53 -255 -53 -255 -18 -255 c 0,5,6
 159 -255 159 -255 159 42 c 2,7,-1
 159 1026 l 1,8,-1
 348 1026 l 1,9,-1
 348 102 l 2,10,11
 348 47 348 47 345.5 0.5 c 128,-1,12
 343 -46 343 -46 334.5 -101 c 128,-1,13
 326 -156 326 -156 312 -199.5 c 128,-1,14
 298 -243 298 -243 273 -285.5 c 128,-1,15
 248 -328 248 -328 214.5 -356 c 128,-1,16
 181 -384 181 -384 132 -401 c 128,-1,17
 83 -418 83 -418 22 -418 c 0,0,1
EndSplineSet
EndChar

StartChar: circumflex
Encoding: 710 710 364
Width: 699
GlyphClass: 4
Flags: W
AnchorPoint: "Anchor-2" 347 1000 mark 0
LayerCount: 2
UndoRedoHistory
Layer: 1
Undoes
EndUndoes
Redoes
EndRedoes
EndUndoRedoHistory
Fore
SplineSet
268 1516 m 1,0,-1
 431 1516 l 1,1,-1
 667 1151 l 1,2,-1
 509 1151 l 1,3,-1
 350 1404 l 1,4,-1
 190 1151 l 1,5,-1
 32 1151 l 1,6,-1
 268 1516 l 1,0,-1
EndSplineSet
EndChar

StartChar: caron
Encoding: 711 711 365
Width: 699
GlyphClass: 4
Flags: W
AnchorPoint: "Anchor-2" 347 1000 mark 0
LayerCount: 2
UndoRedoHistory
Layer: 1
Undoes
EndUndoes
Redoes
EndRedoes
EndUndoRedoHistory
Fore
SplineSet
268 1151 m 1,0,-1
 22 1526 l 1,1,-1
 180 1526 l 1,2,-1
 350 1258 l 1,3,-1
 519 1526 l 1,4,-1
 677 1526 l 1,5,-1
 431 1151 l 1,6,-1
 268 1151 l 1,0,-1
EndSplineSet
EndChar

StartChar: uni02C9
Encoding: 713 713 366
Width: 723
GlyphClass: 4
Flags: W
AnchorPoint: "Anchor-2" 373 1006 mark 0
LayerCount: 2
UndoRedoHistory
Layer: 1
Undoes
EndUndoes
Redoes
EndRedoes
EndUndoRedoHistory
Fore
SplineSet
68 1207 m 1,0,-1
 68 1354 l 1,1,-1
 655 1354 l 1,2,-1
 655 1207 l 1,3,-1
 68 1207 l 1,0,-1
EndSplineSet
EndChar

StartChar: breve
Encoding: 728 728 367
Width: 621
GlyphClass: 4
Flags: W
AnchorPoint: "Anchor-2" 316 1006 mark 0
LayerCount: 2
UndoRedoHistory
Layer: 1
Undoes
EndUndoes
Redoes
EndRedoes
EndUndoRedoHistory
Fore
SplineSet
313 1194 m 0,0,1
 182 1194 182 1194 111.5 1257.5 c 128,-1,2
 41 1321 41 1321 31 1456 c 1,3,-1
 166 1456 l 1,4,5
 171 1386 171 1386 208.5 1357 c 128,-1,6
 246 1328 246 1328 313 1328 c 0,7,8
 378 1328 378 1328 414 1357.5 c 128,-1,9
 450 1387 450 1387 458 1456 c 1,10,-1
 590 1456 l 1,11,12
 571 1194 571 1194 313 1194 c 0,0,1
EndSplineSet
EndChar

StartChar: dotaccent
Encoding: 729 729 368
Width: 524
GlyphClass: 4
Flags: W
AnchorPoint: "Anchor-2" 271 1030 mark 0
LayerCount: 2
UndoRedoHistory
Layer: 1
Undoes
EndUndoes
Redoes
EndRedoes
EndUndoRedoHistory
Fore
SplineSet
168 1273 m 1,0,-1
 168 1456 l 1,1,-1
 356 1456 l 1,2,-1
 356 1273 l 1,3,-1
 168 1273 l 1,0,-1
EndSplineSet
EndChar

StartChar: ring
Encoding: 730 730 369
Width: 633
GlyphClass: 4
Flags: W
AnchorPoint: "Anchor-2" 316 878 mark 0
LayerCount: 2
UndoRedoHistory
Layer: 1
Undoes
EndUndoes
Redoes
EndRedoes
EndUndoRedoHistory
Fore
SplineSet
318 1478 m 0,0,1
 402 1478 402 1478 461 1422 c 128,-1,2
 520 1366 520 1366 520 1281 c 128,-1,3
 520 1196 520 1196 461 1139.5 c 128,-1,4
 402 1083 402 1083 318 1083 c 0,5,6
 233 1083 233 1083 174 1139.5 c 128,-1,7
 115 1196 115 1196 115 1281 c 128,-1,8
 115 1366 115 1366 174 1422 c 128,-1,9
 233 1478 233 1478 318 1478 c 0,0,1
316 1390 m 128,-1,11
 272 1390 272 1390 241 1358 c 128,-1,12
 210 1326 210 1326 210 1281 c 0,13,14
 210 1235 210 1235 241 1203 c 128,-1,15
 272 1171 272 1171 316 1171 c 128,-1,16
 360 1171 360 1171 391.5 1203 c 128,-1,17
 423 1235 423 1235 423 1281 c 0,18,19
 423 1326 423 1326 391.5 1358 c 128,-1,10
 360 1390 360 1390 316 1390 c 128,-1,11
EndSplineSet
EndChar

StartChar: ogonek
Encoding: 731 731 370
Width: 508
GlyphClass: 4
Flags: W
AnchorPoint: "Anchor-0" 308 0 mark 0
LayerCount: 2
UndoRedoHistory
Layer: 1
Undoes
EndUndoes
Redoes
EndRedoes
EndUndoRedoHistory
Fore
SplineSet
40 -264 m 0,0,1
 40 -184 40 -184 109.5 -105.5 c 128,-1,2
 179 -27 179 -27 264 15 c 1,3,-1
 366 7 l 1,4,5
 300 -38 300 -38 246 -112.5 c 128,-1,6
 192 -187 192 -187 192 -244 c 0,7,8
 192 -329 192 -329 319 -329 c 0,9,10
 382 -329 382 -329 457 -309 c 1,11,-1
 457 -413 l 1,12,13
 372 -442 372 -442 281 -442 c 0,14,15
 215 -442 215 -442 162.5 -424.5 c 128,-1,16
 110 -407 110 -407 75 -365.5 c 128,-1,17
 40 -324 40 -324 40 -264 c 0,0,1
EndSplineSet
EndChar

StartChar: tilde
Encoding: 732 732 371
Width: 672
GlyphClass: 4
Flags: W
AnchorPoint: "Anchor-2" 339 1000 mark 0
LayerCount: 2
UndoRedoHistory
Layer: 1
Undoes
EndUndoes
Redoes
EndRedoes
EndUndoRedoHistory
Fore
SplineSet
6 1176 m 1,0,1
 6 1285 6 1285 56 1351.5 c 128,-1,2
 106 1418 106 1418 193 1418 c 0,3,4
 236 1418 236 1418 292 1393.5 c 128,-1,5
 348 1369 348 1369 398.5 1344 c 128,-1,6
 449 1319 449 1319 478 1318 c 0,7,8
 510 1317 510 1317 523.5 1339.5 c 128,-1,9
 537 1362 537 1362 541 1418 c 1,10,-1
 666 1418 l 1,11,12
 666 1301 666 1301 618 1234 c 128,-1,13
 570 1167 570 1167 481 1171 c 0,14,15
 438 1173 438 1173 337 1222 c 128,-1,16
 236 1271 236 1271 201 1271 c 0,17,18
 138 1271 138 1271 127 1176 c 1,19,-1
 6 1176 l 1,0,1
EndSplineSet
EndChar

StartChar: hungarumlaut
Encoding: 733 733 372
Width: 969
GlyphClass: 4
Flags: W
AnchorPoint: "Anchor-2" 316 1000 mark 0
LayerCount: 2
UndoRedoHistory
Layer: 1
Undoes
EndUndoes
Redoes
EndRedoes
EndUndoRedoHistory
Fore
SplineSet
416 1174 m 1,0,-1
 678 1587 l 1,1,-1
 882 1587 l 1,2,-1
 556 1174 l 1,3,-1
 416 1174 l 1,0,-1
63 1174 m 1,4,-1
 290 1587 l 1,5,-1
 488 1587 l 1,6,-1
 199 1174 l 1,7,-1
 63 1174 l 1,4,-1
EndSplineSet
EndChar

StartChar: uni0307
Encoding: 775 775 373
Width: 524
GlyphClass: 4
Flags: W
AnchorPoint: "Anchor-2" 271 1030 mark 0
LayerCount: 2
UndoRedoHistory
Layer: 1
Undoes
EndUndoes
Redoes
EndRedoes
EndUndoRedoHistory
Fore
SplineSet
168 1273 m 1,0,-1
 168 1456 l 1,1,-1
 356 1456 l 1,2,-1
 356 1273 l 1,3,-1
 168 1273 l 1,0,-1
EndSplineSet
EndChar

StartChar: uni030F
Encoding: 783 783 374
Width: 969
GlyphClass: 4
Flags: W
AnchorPoint: "Anchor-2" 612 1000 mark 0
LayerCount: 2
UndoRedoHistory
Layer: 1
Undoes
EndUndoes
Redoes
EndRedoes
EndUndoRedoHistory
Fore
SplineSet
708 1174 m 1,0,-1
 423 1587 l 1,1,-1
 619 1587 l 1,2,-1
 846 1174 l 1,3,-1
 708 1174 l 1,0,-1
348 1174 m 1,4,-1
 32 1587 l 1,5,-1
 228 1587 l 1,6,-1
 488 1174 l 1,7,-1
 348 1174 l 1,4,-1
EndSplineSet
EndChar

StartChar: uni0311
Encoding: 785 785 375
Width: 629
GlyphClass: 4
Flags: W
AnchorPoint: "Anchor-2" 318 1026 mark 0
LayerCount: 2
UndoRedoHistory
Layer: 1
Undoes
EndUndoes
Redoes
EndRedoes
EndUndoRedoHistory
Fore
SplineSet
42 1192 m 1,0,1
 48 1268 48 1268 89 1323 c 128,-1,2
 130 1378 130 1378 188.5 1404 c 128,-1,3
 247 1430 247 1430 314 1430 c 0,4,5
 418 1430 418 1430 496.5 1367.5 c 128,-1,6
 575 1305 575 1305 584 1192 c 1,7,-1
 478 1191 l 1,8,9
 468 1252 468 1252 422 1284.5 c 128,-1,10
 376 1317 376 1317 317 1317 c 0,11,12
 257 1317 257 1317 209 1283.5 c 128,-1,13
 161 1250 161 1250 150 1191 c 1,14,-1
 42 1192 l 1,0,1
EndSplineSet
EndChar

StartChar: endash
Encoding: 8211 8211 398
Width: 1127
GlyphClass: 2
Flags: W
LayerCount: 2
UndoRedoHistory
Layer: 1
Undoes
EndUndoes
Redoes
EndRedoes
EndUndoRedoHistory
Fore
SplineSet
16 478 m 1,0,-1
 16 635 l 1,1,-1
 1111 635 l 1,2,-1
 1111 478 l 1,3,-1
 16 478 l 1,0,-1
EndSplineSet
EndChar

StartChar: emdash
Encoding: 8212 8212 399
Width: 2171
GlyphClass: 2
Flags: W
LayerCount: 2
UndoRedoHistory
Layer: 1
Undoes
EndUndoes
Redoes
EndRedoes
EndUndoRedoHistory
Fore
SplineSet
32 478 m 1,0,-1
 32 635 l 1,1,-1
 2139 635 l 1,2,-1
 2139 478 l 1,3,-1
 32 478 l 1,0,-1
EndSplineSet
EndChar

StartChar: quoteleft
Encoding: 8216 8216 400
Width: 518
GlyphClass: 2
Flags: W
LayerCount: 2
UndoRedoHistory
Layer: 1
Undoes
EndUndoes
Redoes
EndRedoes
EndUndoRedoHistory
Fore
SplineSet
398 881 m 1,0,-1
 270 881 l 1,1,-1
 115 1456 l 1,2,-1
 348 1456 l 1,3,-1
 398 881 l 1,0,-1
EndSplineSet
EndChar

StartChar: quoteright
Encoding: 8217 8217 401
Width: 537
GlyphClass: 2
Flags: W
LayerCount: 2
UndoRedoHistory
Layer: 1
Undoes
EndUndoes
Redoes
EndRedoes
EndUndoRedoHistory
Fore
SplineSet
120 881 m 1,0,-1
 190 1456 l 1,1,-1
 422 1456 l 1,2,-1
 260 881 l 1,3,-1
 120 881 l 1,0,-1
EndSplineSet
EndChar

StartChar: quotesinglbase
Encoding: 8218 8218 402
Width: 595
GlyphClass: 2
Flags: W
LayerCount: 2
UndoRedoHistory
Layer: 1
Undoes
EndUndoes
Redoes
EndRedoes
EndUndoRedoHistory
Fore
SplineSet
135 -313 m 1,0,-1
 244 219 l 1,1,-1
 443 219 l 1,2,-1
 291 -313 l 1,3,-1
 135 -313 l 1,0,-1
EndSplineSet
EndChar

StartChar: quotedblleft
Encoding: 8220 8220 403
Width: 1024
GlyphClass: 2
Flags: W
LayerCount: 2
UndoRedoHistory
Layer: 1
Undoes
EndUndoes
Redoes
EndRedoes
EndUndoRedoHistory
Fore
SplineSet
547 881 m 1,0,-1
 709 1456 l 1,1,-1
 865 1456 l 1,2,-1
 758 881 l 1,3,-1
 547 881 l 1,0,-1
163 881 m 1,4,-1
 330 1456 l 1,5,-1
 485 1456 l 1,6,-1
 377 881 l 1,7,-1
 163 881 l 1,4,-1
EndSplineSet
EndChar

StartChar: quotedblright
Encoding: 8221 8221 404
Width: 1024
GlyphClass: 2
Flags: W
LayerCount: 2
UndoRedoHistory
Layer: 1
Undoes
EndUndoes
Redoes
EndRedoes
EndUndoRedoHistory
Fore
SplineSet
552 881 m 1,0,-1
 659 1456 l 1,1,-1
 868 1456 l 1,2,-1
 709 881 l 1,3,-1
 552 881 l 1,0,-1
199 881 m 1,4,-1
 304 1456 l 1,5,-1
 514 1456 l 1,6,-1
 352 881 l 1,7,-1
 199 881 l 1,4,-1
EndSplineSet
EndChar

StartChar: quotedblbase
Encoding: 8222 8222 405
Width: 1024
GlyphClass: 2
Flags: W
LayerCount: 2
UndoRedoHistory
Layer: 1
Undoes
EndUndoes
Redoes
EndRedoes
EndUndoRedoHistory
Fore
SplineSet
522 -233 m 1,0,-1
 628 219 l 1,1,-1
 838 219 l 1,2,-1
 680 -233 l 1,3,-1
 522 -233 l 1,0,-1
151 -233 m 1,4,-1
 257 219 l 1,5,-1
 467 219 l 1,6,-1
 311 -233 l 1,7,-1
 151 -233 l 1,4,-1
EndSplineSet
EndChar

StartChar: dagger
Encoding: 8224 8224 406
Width: 1022
GlyphClass: 2
Flags: W
LayerCount: 2
UndoRedoHistory
Layer: 1
Undoes
EndUndoes
Redoes
EndRedoes
EndUndoRedoHistory
Fore
SplineSet
421 111 m 1,0,-1
 421 913 l 1,1,-1
 95 913 l 1,2,-1
 95 1065 l 1,3,-1
 421 1065 l 1,4,-1
 421 1442 l 1,5,-1
 580 1442 l 1,6,-1
 580 1065 l 1,7,-1
 919 1065 l 1,8,-1
 919 913 l 1,9,-1
 570 913 l 1,10,-1
 570 111 l 1,11,-1
 421 111 l 1,0,-1
EndSplineSet
EndChar

StartChar: daggerdbl
Encoding: 8225 8225 407
Width: 1092
GlyphClass: 2
Flags: W
LayerCount: 2
UndoRedoHistory
Layer: 1
Undoes
EndUndoes
Redoes
EndRedoes
EndUndoRedoHistory
Fore
SplineSet
467 -54 m 1,0,-1
 467 416 l 1,1,-1
 127 416 l 1,2,-1
 127 542 l 1,3,-1
 467 542 l 1,4,-1
 467 932 l 1,5,-1
 132 932 l 1,6,-1
 132 1064 l 1,7,-1
 467 1064 l 1,8,-1
 467 1456 l 1,9,-1
 629 1456 l 1,10,-1
 629 1064 l 1,11,-1
 966 1064 l 1,12,-1
 966 932 l 1,13,-1
 629 932 l 1,14,-1
 629 542 l 1,15,-1
 958 542 l 1,16,-1
 958 416 l 1,17,-1
 629 416 l 1,18,-1
 629 -54 l 1,19,-1
 467 -54 l 1,0,-1
EndSplineSet
EndChar

StartChar: bullet
Encoding: 8226 8226 408
Width: 989
GlyphClass: 2
Flags: W
LayerCount: 2
UndoRedoHistory
Layer: 1
Undoes
EndUndoes
Redoes
EndRedoes
EndUndoRedoHistory
Fore
SplineSet
493 377 m 0,0,1
 351 377 351 377 258.5 468.5 c 128,-1,2
 166 560 166 560 166 690 c 0,3,4
 166 821 166 821 261 915.5 c 128,-1,5
 356 1010 356 1010 493 1010 c 0,6,7
 633 1010 633 1010 728 915 c 128,-1,8
 823 820 823 820 823 690 c 128,-1,9
 823 560 823 560 727.5 468.5 c 128,-1,10
 632 377 632 377 493 377 c 0,0,1
EndSplineSet
EndChar

StartChar: ellipsis
Encoding: 8230 8230 409
Width: 1620
GlyphClass: 2
Flags: W
LayerCount: 2
UndoRedoHistory
Layer: 1
Undoes
EndUndoes
Redoes
EndRedoes
EndUndoRedoHistory
Fore
SplineSet
1214 -11 m 1,0,-1
 1214 217 l 1,1,-1
 1456 217 l 1,2,-1
 1456 -11 l 1,3,-1
 1214 -11 l 1,0,-1
680 -11 m 1,4,-1
 680 217 l 1,5,-1
 922 217 l 1,6,-1
 923 -11 l 1,7,-1
 680 -11 l 1,4,-1
146 -11 m 1,8,-1
 146 217 l 1,9,-1
 388 217 l 1,10,-1
 388 -11 l 1,11,-1
 146 -11 l 1,8,-1
EndSplineSet
EndChar

StartChar: perthousand
Encoding: 8240 8240 410
Width: 2581
GlyphClass: 2
Flags: W
LayerCount: 2
UndoRedoHistory
Layer: 1
Undoes
EndUndoes
Redoes
EndRedoes
EndUndoRedoHistory
Fore
SplineSet
1332 -25 m 128,-1,1
 1171 -25 1171 -25 1080.5 79.5 c 128,-1,2
 990 184 990 184 990 347 c 0,3,4
 990 508 990 508 1082.5 615 c 128,-1,5
 1175 722 1175 722 1336 722 c 0,6,7
 1499 722 1499 722 1588.5 617.5 c 128,-1,8
 1678 513 1678 513 1678 350 c 128,-1,9
 1678 187 1678 187 1585.5 81 c 128,-1,0
 1493 -25 1493 -25 1332 -25 c 128,-1,1
1334 101 m 0,10,11
 1515 101 1515 101 1515 350 c 0,12,13
 1515 596 1515 596 1336 596 c 0,14,15
 1154 596 1154 596 1154 346 c 0,16,17
 1154 101 1154 101 1334 101 c 0,10,11
351 0 m 1,18,-1
 1270 1456 l 1,19,-1
 1432 1456 l 1,20,-1
 513 0 l 1,21,-1
 351 0 l 1,18,-1
434 736 m 0,22,23
 271 736 271 736 181 837.5 c 128,-1,24
 91 939 91 939 91 1107 c 0,25,26
 91 1272 91 1272 183.5 1377 c 128,-1,27
 276 1482 276 1482 438 1482 c 0,28,29
 602 1482 602 1482 691 1379.5 c 128,-1,30
 780 1277 780 1277 780 1110 c 0,31,32
 780 944 780 944 688 840 c 128,-1,33
 596 736 596 736 434 736 c 0,22,23
436 862 m 0,34,35
 616 862 616 862 616 1111 c 0,36,37
 616 1357 616 1357 437 1357 c 0,38,39
 255 1357 255 1357 255 1108 c 0,40,41
 255 862 255 862 436 862 c 0,34,35
2146 101 m 0,42,43
 2326 101 2326 101 2326 350 c 0,44,45
 2326 596 2326 596 2148 596 c 0,46,47
 1965 596 1965 596 1965 346 c 0,48,49
 1965 101 1965 101 2146 101 c 0,42,43
2144 -25 m 0,50,51
 1982 -25 1982 -25 1891.5 79.5 c 128,-1,52
 1801 184 1801 184 1801 347 c 0,53,54
 1801 508 1801 508 1894 615 c 128,-1,55
 1987 722 1987 722 2148 722 c 0,56,57
 2311 722 2311 722 2400.5 617.5 c 128,-1,58
 2490 513 2490 513 2490 350 c 128,-1,59
 2490 187 2490 187 2397.5 81 c 128,-1,60
 2305 -25 2305 -25 2144 -25 c 0,50,51
EndSplineSet
EndChar

StartChar: guilsinglleft
Encoding: 8249 8249 411
Width: 688
GlyphClass: 2
Flags: W
LayerCount: 2
UndoRedoHistory
Layer: 1
Undoes
EndUndoes
Redoes
EndRedoes
EndUndoRedoHistory
Fore
SplineSet
409 167 m 1,0,-1
 138 541 l 1,1,-1
 415 916 l 1,2,-1
 580 916 l 1,3,-1
 333 541 l 1,4,-1
 572 167 l 1,5,-1
 409 167 l 1,0,-1
EndSplineSet
EndChar

StartChar: guilsinglright
Encoding: 8250 8250 412
Width: 688
GlyphClass: 2
Flags: W
LayerCount: 2
UndoRedoHistory
Layer: 1
Undoes
EndUndoes
Redoes
EndRedoes
EndUndoRedoHistory
Fore
SplineSet
279 916 m 1,0,-1
 550 542 l 1,1,-1
 274 167 l 1,2,-1
 108 167 l 1,3,-1
 355 543 l 1,4,-1
 116 916 l 1,5,-1
 279 916 l 1,0,-1
EndSplineSet
EndChar

StartChar: fraction
Encoding: 8260 8260 413
Width: 1077
GlyphClass: 2
Flags: W
LayerCount: 2
UndoRedoHistory
Layer: 1
Undoes
EndUndoes
Redoes
EndRedoes
EndUndoRedoHistory
Fore
SplineSet
0 0 m 1,0,-1
 899 1456 l 1,1,-1
 1078 1456 l 1,2,-1
 180 0 l 1,3,-1
 0 0 l 1,0,-1
EndSplineSet
EndChar

StartChar: uni2074
Encoding: 8308 8308 414
Width: 1234
GlyphClass: 2
Flags: W
LayerCount: 2
UndoRedoHistory
Layer: 1
Undoes
EndUndoes
Redoes
EndRedoes
EndUndoRedoHistory
Fore
SplineSet
422 959 m 1,0,-1
 644 959 l 1,1,-1
 644 1272 l 1,2,-1
 422 959 l 1,0,-1
646 655 m 1,3,-1
 646 844 l 1,4,-1
 270 844 l 1,5,-1
 270 942 l 1,6,-1
 637 1456 l 1,7,-1
 785 1456 l 1,8,-1
 785 959 l 1,9,-1
 897 959 l 1,10,-1
 897 844 l 1,11,-1
 784 844 l 1,12,-1
 784 655 l 1,13,-1
 646 655 l 1,3,-1
EndSplineSet
EndChar

StartChar: Euro
Encoding: 8364 8364 415
Width: 1190
GlyphClass: 2
Flags: W
LayerCount: 2
UndoRedoHistory
Layer: 1
Undoes
EndUndoes
Redoes
EndRedoes
EndUndoRedoHistory
Fore
SplineSet
741 -21 m 0,0,1
 505 -21 505 -21 370.5 120.5 c 128,-1,2
 236 262 236 262 201 508 c 1,3,-1
 66 508 l 1,4,-1
 88 636 l 1,5,-1
 186 636 l 1,6,7
 177 696 177 696 186 796 c 1,8,-1
 62 796 l 1,9,-1
 87 924 l 1,10,-1
 206 924 l 1,11,12
 251 1158 251 1158 397 1298.5 c 128,-1,13
 543 1439 543 1439 771 1439 c 0,14,15
 978 1439 978 1439 1104 1314 c 1,16,-1
 1064 1134 l 1,17,18
 1004 1203 1004 1203 926.5 1239 c 128,-1,19
 849 1275 849 1275 766 1275 c 0,20,21
 694 1275 694 1275 633.5 1248 c 128,-1,22
 573 1221 573 1221 530.5 1172 c 128,-1,23
 488 1123 488 1123 458 1061.5 c 128,-1,24
 428 1000 428 1000 410 924 c 1,25,-1
 987 924 l 1,26,-1
 965 796 l 1,27,-1
 389 796 l 1,28,29
 386 762 386 762 386.5 706.5 c 128,-1,30
 387 651 387 651 391 636 c 1,31,-1
 954 636 l 1,32,-1
 933 508 l 1,33,-1
 405 508 l 1,34,35
 430 339 430 339 516 242 c 128,-1,36
 602 145 602 145 756 145 c 0,37,38
 904 145 904 145 1081 256 c 1,39,-1
 1080 79 l 1,40,41
 932 -21 932 -21 741 -21 c 0,0,1
EndSplineSet
EndChar

StartChar: trademark
Encoding: 8482 8482 416
Width: 1869
GlyphClass: 2
Flags: W
LayerCount: 2
UndoRedoHistory
Layer: 1
Undoes
EndUndoes
Redoes
EndRedoes
EndUndoRedoHistory
Fore
SplineSet
314 674 m 1,0,-1
 314 1323 l 1,1,-1
 71 1323 l 1,2,-1
 71 1445 l 1,3,-1
 708 1445 l 1,4,-1
 708 1323 l 1,5,-1
 459 1323 l 1,6,-1
 459 674 l 1,7,-1
 314 674 l 1,0,-1
817 674 m 1,8,-1
 817 1445 l 1,9,-1
 993 1445 l 1,10,-1
 1250 882 l 1,11,-1
 1514 1445 l 1,12,-1
 1684 1445 l 1,13,-1
 1684 674 l 1,14,-1
 1545 674 l 1,15,-1
 1545 1225 l 1,16,-1
 1293 674 l 1,17,-1
 1202 674 l 1,18,-1
 954 1221 l 1,19,-1
 954 674 l 1,20,-1
 817 674 l 1,8,-1
EndSplineSet
EndChar

StartChar: uni2206
Encoding: 8710 8710 417
Width: 1312
GlyphClass: 2
Flags: W
LayerCount: 2
UndoRedoHistory
Layer: 1
Undoes
EndUndoes
Redoes
EndRedoes
EndUndoRedoHistory
Fore
SplineSet
271 157 m 1,0,1
 1031 157 l 1,2,3
 1014 202 1014 202 842.5 641 c 128,-1,4
 671 1080 671 1080 652 1131 c 1,5,6
 635 1082 635 1082 461 642.5 c 128,-1,7
 287 203 287 203 271 157 c 1,0,1
40 0 m 1,8,-1
 40 88 l 1,9,-1
 574 1420 l 1,10,-1
 732 1420 l 1,11,-1
 1265 88 l 1,12,-1
 1265 0 l 1,13,-1
 40 0 l 1,8,-1
EndSplineSet
EndChar

StartChar: product
Encoding: 8719 8719 418
Width: 1568
GlyphClass: 2
Flags: W
LayerCount: 2
UndoRedoHistory
Layer: 1
Undoes
EndUndoes
Redoes
EndRedoes
EndUndoRedoHistory
Fore
SplineSet
239 -100 m 1,0,-1
 239 1294 l 1,1,-1
 93 1294 l 1,2,-1
 92 1456 l 1,3,-1
 1452 1456 l 1,4,-1
 1453 1294 l 1,5,-1
 1324 1294 l 1,6,-1
 1324 -100 l 1,7,-1
 1115 -100 l 1,8,-1
 1115 1294 l 1,9,-1
 444 1294 l 1,10,-1
 444 -100 l 1,11,-1
 239 -100 l 1,0,-1
EndSplineSet
EndChar

StartChar: minus
Encoding: 8722 8722 419
Width: 1302
GlyphClass: 2
Flags: W
LayerCount: 2
UndoRedoHistory
Layer: 1
Undoes
EndUndoes
Redoes
EndRedoes
EndUndoRedoHistory
Fore
SplineSet
176 433 m 1,0,-1
 176 589 l 1,1,-1
 1127 589 l 1,2,-1
 1127 433 l 1,3,-1
 176 433 l 1,0,-1
EndSplineSet
EndChar

StartChar: infinity
Encoding: 8734 8734 422
Width: 1729
GlyphClass: 2
Flags: W
LayerCount: 2
UndoRedoHistory
Layer: 1
Undoes
EndUndoes
Redoes
EndRedoes
EndUndoRedoHistory
Fore
SplineSet
1268 364 m 0,0,1
 1375 364 1375 364 1428 435 c 128,-1,2
 1481 506 1481 506 1481 621 c 0,3,4
 1481 706 1481 706 1420 766 c 128,-1,5
 1359 826 1359 826 1263 826 c 0,6,7
 1096 826 1096 826 937 595 c 1,8,9
 1031 474 1031 474 1106 419 c 128,-1,10
 1181 364 1181 364 1268 364 c 0,0,1
469 364 m 0,11,12
 629 364 629 364 794 592 c 1,13,14
 633 826 633 826 459 826 c 0,15,16
 356 826 356 826 297 759.5 c 128,-1,17
 238 693 238 693 238 595 c 0,18,19
 238 502 238 502 302.5 433 c 128,-1,20
 367 364 367 364 469 364 c 0,11,12
462 235 m 0,21,22
 303 235 303 235 199.5 346.5 c 128,-1,23
 96 458 96 458 96 616 c 0,24,25
 96 755 96 755 204.5 854 c 128,-1,26
 313 953 313 953 457 953 c 0,27,28
 574 953 574 953 673.5 888 c 128,-1,29
 773 823 773 823 866 700 c 1,30,31
 957 823 957 823 1053 888 c 128,-1,32
 1149 953 1149 953 1268 953 c 0,33,34
 1431 953 1431 953 1530 853.5 c 128,-1,35
 1629 754 1629 754 1629 598 c 0,36,37
 1629 440 1629 440 1522 337.5 c 128,-1,38
 1415 235 1415 235 1266 235 c 0,39,40
 1156 235 1156 235 1061 296 c 128,-1,41
 966 357 966 357 864 487 c 1,42,43
 770 366 770 366 673 300.5 c 128,-1,44
 576 235 576 235 462 235 c 0,21,22
EndSplineSet
EndChar

StartChar: integral
Encoding: 8747 8747 423
Width: 754
GlyphClass: 2
Flags: W
LayerCount: 2
UndoRedoHistory
Layer: 1
Undoes
EndUndoes
Redoes
EndRedoes
EndUndoRedoHistory
Fore
SplineSet
167 -306 m 0,0,1
 126 -306 126 -306 89.5 -300.5 c 128,-1,2
 53 -295 53 -295 36 -290 c 1,3,-1
 20 -284 l 1,4,-1
 20 -137 l 1,5,6
 84 -152 84 -152 139 -152 c 0,7,8
 225 -152 225 -152 253.5 -105 c 128,-1,9
 282 -58 282 -58 282 49 c 2,10,-1
 282 1187 l 2,11,12
 282 1566 282 1566 584 1566 c 0,13,14
 623 1566 623 1566 658.5 1560 c 128,-1,15
 694 1554 694 1554 710 1548 c 2,16,-1
 726 1543 l 1,17,-1
 726 1394 l 1,18,19
 671 1412 671 1412 615 1412 c 0,20,21
 529 1412 529 1412 500.5 1364.5 c 128,-1,22
 472 1317 472 1317 472 1210 c 2,23,-1
 472 72 l 2,24,25
 472 -306 472 -306 167 -306 c 0,0,1
EndSplineSet
EndChar

StartChar: approxequal
Encoding: 8776 8776 424
Width: 1351
GlyphClass: 2
Flags: W
LayerCount: 2
UndoRedoHistory
Layer: 1
Undoes
EndUndoes
Redoes
EndRedoes
EndUndoRedoHistory
Fore
SplineSet
280 618 m 1,0,1
 138 649 l 1,2,3
 166 775 166 775 247 847 c 128,-1,4
 328 919 328 919 446 919 c 0,5,6
 507 919 507 919 565 897.5 c 128,-1,7
 623 876 623 876 698 832 c 0,8,9
 825 758 825 758 889 758 c 0,10,11
 944 758 944 758 982 799.5 c 128,-1,12
 1020 841 1020 841 1049 923 c 1,13,-1
 1184 890 l 1,14,15
 1156 763 1156 763 1081 692 c 128,-1,16
 1006 621 1006 621 884 621 c 0,17,18
 821 621 821 621 759.5 643.5 c 128,-1,19
 698 666 698 666 613 716 c 0,20,21
 501 782 501 782 443 782 c 0,22,23
 329 782 329 782 280 618 c 1,0,1
280 251 m 1,24,-1
 140 287 l 1,25,26
 172 413 172 413 252.5 485 c 128,-1,27
 333 557 333 557 448 557 c 0,28,29
 491 557 491 557 540.5 543 c 128,-1,30
 590 529 590 529 624 513 c 128,-1,31
 658 497 658 497 707 470 c 1,32,33
 725 462 725 462 758.5 444.5 c 128,-1,34
 792 427 792 427 809.5 418.5 c 128,-1,35
 827 410 827 410 850.5 402.5 c 128,-1,36
 874 395 874 395 891 395 c 0,37,38
 945 395 945 395 982.5 436 c 128,-1,39
 1020 477 1020 477 1050 560 c 1,40,-1
 1186 526 l 1,41,42
 1122 256 1122 256 885 256 c 0,43,44
 827 256 827 256 764.5 279.5 c 128,-1,45
 702 303 702 303 617 353 c 1,46,47
 504 417 504 417 447 417 c 0,48,49
 326 417 326 417 280 251 c 1,24,-1
EndSplineSet
EndChar

StartChar: notequal
Encoding: 8800 8800 425
Width: 1362
GlyphClass: 2
Flags: W
LayerCount: 2
UndoRedoHistory
Layer: 1
Undoes
EndUndoes
Redoes
EndRedoes
EndUndoRedoHistory
Fore
SplineSet
476 43 m 1,0,-1
 332 65 l 1,1,-1
 455 318 l 1,2,-1
 163 318 l 1,3,-1
 163 458 l 1,4,-1
 527 458 l 1,5,-1
 658 712 l 1,6,-1
 163 712 l 1,7,-1
 163 853 l 1,8,-1
 726 853 l 1,9,-1
 859 1123 l 1,10,-1
 1007 1101 l 1,11,-1
 883 853 l 1,12,-1
 1199 853 l 1,13,-1
 1199 712 l 1,14,-1
 816 712 l 1,15,-1
 682 458 l 1,16,-1
 1199 458 l 1,17,-1
 1199 318 l 1,18,-1
 613 318 l 1,19,-1
 476 43 l 1,0,-1
EndSplineSet
EndChar

StartChar: lessequal
Encoding: 8804 8804 426
Width: 1350
GlyphClass: 2
Flags: W
LayerCount: 2
UndoRedoHistory
Layer: 1
Undoes
EndUndoes
Redoes
EndRedoes
EndUndoRedoHistory
Fore
SplineSet
163 0 m 1,0,-1
 163 141 l 1,1,-1
 1145 141 l 1,2,-1
 1145 0 l 1,3,-1
 163 0 l 1,0,-1
1124 217 m 1,4,-1
 183 684 l 1,5,-1
 183 781 l 1,6,-1
 1129 1227 l 1,7,-1
 1129 1051 l 1,8,-1
 422 730 l 1,9,-1
 1124 391 l 1,10,-1
 1124 217 l 1,4,-1
EndSplineSet
EndChar

StartChar: greaterequal
Encoding: 8805 8805 427
Width: 1350
GlyphClass: 2
Flags: W
LayerCount: 2
UndoRedoHistory
Layer: 1
Undoes
EndUndoes
Redoes
EndRedoes
EndUndoRedoHistory
Fore
SplineSet
196 1227 m 1,0,-1
 1137 760 l 1,1,-1
 1137 663 l 1,2,-1
 191 217 l 1,3,-1
 191 393 l 1,4,-1
 898 714 l 1,5,-1
 196 1053 l 1,6,-1
 196 1227 l 1,0,-1
182 0 m 1,7,-1
 182 141 l 1,8,-1
 1163 141 l 1,9,-1
 1163 0 l 1,10,-1
 182 0 l 1,7,-1
EndSplineSet
EndChar

StartChar: lozenge
Encoding: 9674 9674 428
Width: 1248
GlyphClass: 2
Flags: W
LayerCount: 2
UndoRedoHistory
Layer: 1
Undoes
EndUndoes
Redoes
EndRedoes
EndUndoRedoHistory
Fore
SplineSet
547 -43 m 1,0,-1
 100 707 l 1,1,-1
 554 1460 l 1,2,-1
 678 1460 l 1,3,-1
 1128 708 l 1,4,-1
 669 -43 l 1,5,-1
 547 -43 l 1,0,-1
608 136 m 1,6,-1
 948 707 l 1,7,-1
 617 1273 l 1,8,-1
 277 708 l 1,9,-1
 608 136 l 1,6,-1
EndSplineSet
EndChar

StartChar: uniFB00
Encoding: 64256 64256 429
Width: 1385
GlyphClass: 3
Flags: W
LayerCount: 2
UndoRedoHistory
Layer: 1
Undoes
EndUndoes
Redoes
EndRedoes
EndUndoRedoHistory
Fore
SplineSet
904 0 m 1,0,-1
 904 901 l 1,1,-1
 441 901 l 1,2,-1
 441 0 l 1,3,-1
 252 0 l 1,4,-1
 252 901 l 1,5,-1
 69 901 l 1,6,-1
 69 1026 l 1,7,-1
 252 1026 l 1,8,-1
 252 1108 l 2,9,10
 252 1180 252 1180 257 1228 c 128,-1,11
 262 1276 262 1276 276.5 1323 c 128,-1,12
 291 1370 291 1370 318 1398 c 128,-1,13
 345 1426 345 1426 389 1448 c 128,-1,14
 433 1470 433 1470 497 1479.5 c 128,-1,15
 561 1489 561 1489 649 1489 c 2,16,-1
 697 1489 l 1,17,-1
 694 1342 l 1,18,19
 634 1342 634 1342 593.5 1338.5 c 128,-1,20
 553 1335 553 1335 524 1323.5 c 128,-1,21
 495 1312 495 1312 479 1298.5 c 128,-1,22
 463 1285 463 1285 454.5 1257.5 c 128,-1,23
 446 1230 446 1230 443.5 1201.5 c 128,-1,24
 441 1173 441 1173 441 1125 c 2,25,-1
 441 1026 l 1,26,-1
 904 1026 l 1,27,-1
 904 1108 l 2,28,29
 904 1180 904 1180 909 1228 c 128,-1,30
 914 1276 914 1276 928.5 1323 c 128,-1,31
 943 1370 943 1370 970 1398 c 128,-1,32
 997 1426 997 1426 1041 1448 c 128,-1,33
 1085 1470 1085 1470 1149 1479.5 c 128,-1,34
 1213 1489 1213 1489 1301 1489 c 2,35,-1
 1349 1489 l 1,36,-1
 1346 1342 l 1,37,38
 1286 1342 1286 1342 1245.5 1338.5 c 128,-1,39
 1205 1335 1205 1335 1176 1323.5 c 128,-1,40
 1147 1312 1147 1312 1131 1298.5 c 128,-1,41
 1115 1285 1115 1285 1106.5 1257.5 c 128,-1,42
 1098 1230 1098 1230 1095.5 1201.5 c 128,-1,43
 1093 1173 1093 1173 1093 1125 c 2,44,-1
 1093 1026 l 1,45,-1
 1337 1026 l 1,46,-1
 1337 901 l 1,47,-1
 1093 901 l 1,48,-1
 1093 0 l 1,49,-1
 904 0 l 1,0,-1
EndSplineSet
Ligature2: "'liga' Standard Ligatures lookup 0 subtable" f f
EndChar

StartChar: uniFB01
Encoding: 64257 64257 430
Width: 1237
GlyphClass: 3
Flags: W
LayerCount: 2
UndoRedoHistory
Layer: 1
Undoes
EndUndoes
Redoes
EndRedoes
EndUndoRedoHistory
Fore
SplineSet
919 1282 m 1,0,-1
 919 1456 l 1,1,-1
 1106 1456 l 1,2,-1
 1106 1282 l 1,3,-1
 919 1282 l 1,0,-1
252 0 m 1,4,-1
 252 901 l 1,5,-1
 69 901 l 1,6,-1
 69 1026 l 1,7,-1
 252 1026 l 1,8,-1
 252 1108 l 2,9,10
 252 1180 252 1180 257 1228 c 128,-1,11
 262 1276 262 1276 276.5 1323 c 128,-1,12
 291 1370 291 1370 318 1398 c 128,-1,13
 345 1426 345 1426 389 1448 c 128,-1,14
 433 1470 433 1470 497 1479.5 c 128,-1,15
 561 1489 561 1489 649 1489 c 2,16,-1
 697 1489 l 1,17,-1
 694 1342 l 1,18,19
 634 1342 634 1342 593.5 1338.5 c 128,-1,20
 553 1335 553 1335 524 1323.5 c 128,-1,21
 495 1312 495 1312 479 1298.5 c 128,-1,22
 463 1285 463 1285 454.5 1257.5 c 128,-1,23
 446 1230 446 1230 443.5 1201.5 c 128,-1,24
 441 1173 441 1173 441 1125 c 2,25,-1
 441 1026 l 1,26,-1
 916 1026 l 1,27,-1
 1106 1026 l 1,28,-1
 1106 0 l 1,29,-1
 916 0 l 1,30,-1
 916 901 l 1,31,-1
 441 901 l 1,32,-1
 441 0 l 1,33,-1
 252 0 l 1,4,-1
EndSplineSet
Ligature2: "'liga' Standard Ligatures lookup 0 subtable" f i
EndChar

StartChar: uniFB02
Encoding: 64258 64258 431
Width: 1274
GlyphClass: 3
Flags: W
LayerCount: 2
UndoRedoHistory
Layer: 1
Undoes
EndUndoes
Redoes
EndRedoes
EndUndoRedoHistory
Fore
SplineSet
454 901 m 1,0,-1
 454 0 l 1,1,-1
 266 0 l 1,2,-1
 266 901 l 1,3,-1
 69 901 l 1,4,-1
 69 1026 l 1,5,-1
 266 1026 l 1,6,-1
 266 1093 l 2,7,8
 266 1197 266 1197 285 1263.5 c 128,-1,9
 304 1330 304 1330 355 1377.5 c 128,-1,10
 406 1425 406 1425 494.5 1445 c 128,-1,11
 583 1465 583 1465 723 1465 c 2,12,-1
 1110 1465 l 1,13,-1
 1110 0 l 1,14,-1
 921 0 l 1,15,-1
 921 1319 l 1,16,-1
 738 1319 l 2,17,18
 646 1319 646 1319 591.5 1310 c 128,-1,19
 537 1301 537 1301 506 1277 c 128,-1,20
 475 1253 475 1253 464.5 1218.5 c 128,-1,21
 454 1184 454 1184 454 1125 c 2,22,-1
 454 1026 l 1,23,-1
 698 1026 l 1,24,-1
 698 901 l 1,25,-1
 454 901 l 1,0,-1
EndSplineSet
Ligature2: "'liga' Standard Ligatures lookup 0 subtable" f l
EndChar

StartChar: uniFB03
Encoding: 64259 64259 432
Width: 1863
GlyphClass: 3
Flags: W
LayerCount: 2
UndoRedoHistory
Layer: 1
Undoes
EndUndoes
Redoes
EndRedoes
EndUndoRedoHistory
Fore
SplineSet
1510 1282 m 1,0,-1
 1510 1456 l 1,1,-1
 1697 1456 l 1,2,-1
 1697 1282 l 1,3,-1
 1510 1282 l 1,0,-1
882 0 m 1,4,-1
 882 901 l 1,5,-1
 441 901 l 1,6,-1
 441 0 l 1,7,-1
 252 0 l 1,8,-1
 252 901 l 1,9,-1
 69 901 l 1,10,-1
 69 1026 l 1,11,-1
 252 1026 l 1,12,-1
 252 1108 l 2,13,14
 252 1180 252 1180 257 1228 c 128,-1,15
 262 1276 262 1276 276.5 1323 c 128,-1,16
 291 1370 291 1370 318 1398 c 128,-1,17
 345 1426 345 1426 389 1448 c 128,-1,18
 433 1470 433 1470 497 1479.5 c 128,-1,19
 561 1489 561 1489 649 1489 c 2,20,-1
 697 1489 l 1,21,-1
 694 1342 l 1,22,23
 634 1342 634 1342 593.5 1338.5 c 128,-1,24
 553 1335 553 1335 524 1323.5 c 128,-1,25
 495 1312 495 1312 479 1298.5 c 128,-1,26
 463 1285 463 1285 454.5 1257.5 c 128,-1,27
 446 1230 446 1230 443.5 1201.5 c 128,-1,28
 441 1173 441 1173 441 1125 c 2,29,-1
 441 1026 l 1,30,-1
 882 1026 l 1,31,-1
 882 1108 l 2,32,33
 882 1169 882 1169 885.5 1212 c 128,-1,34
 889 1255 889 1255 898.5 1298 c 128,-1,35
 908 1341 908 1341 926 1369 c 128,-1,36
 944 1397 944 1397 973 1421.5 c 128,-1,37
 1002 1446 1002 1446 1044.5 1460 c 128,-1,38
 1087 1474 1087 1474 1144.5 1481.5 c 128,-1,39
 1202 1489 1202 1489 1278 1489 c 2,40,-1
 1326 1489 l 1,41,-1
 1324 1342 l 1,42,43
 1264 1342 1264 1342 1223.5 1338.5 c 128,-1,44
 1183 1335 1183 1335 1154 1323.5 c 128,-1,45
 1125 1312 1125 1312 1109 1298.5 c 128,-1,46
 1093 1285 1093 1285 1084.5 1257.5 c 128,-1,47
 1076 1230 1076 1230 1073.5 1201.5 c 128,-1,48
 1071 1173 1071 1173 1071 1125 c 2,49,-1
 1071 1026 l 1,50,-1
 1697 1026 l 1,51,-1
 1697 0 l 1,52,-1
 1510 0 l 1,53,-1
 1510 901 l 1,54,-1
 1071 901 l 1,55,-1
 1071 0 l 1,56,-1
 882 0 l 1,4,-1
EndSplineSet
Ligature2: "'liga' Standard Ligatures lookup 0 subtable" f f i
EndChar

StartChar: uniFB04
Encoding: 64260 64260 433
Width: 1942
GlyphClass: 3
Flags: W
LayerCount: 2
UndoRedoHistory
Layer: 1
Undoes
EndUndoes
Redoes
EndRedoes
EndUndoRedoHistory
Fore
SplineSet
1125 901 m 1,0,-1
 1125 0 l 1,1,-1
 937 0 l 1,2,-1
 937 901 l 1,3,-1
 441 901 l 1,4,-1
 441 0 l 1,5,-1
 252 0 l 1,6,-1
 252 901 l 1,7,-1
 68 901 l 1,8,-1
 68 1026 l 1,9,-1
 252 1026 l 1,10,-1
 252 1108 l 2,11,12
 252 1169 252 1169 255.5 1212 c 128,-1,13
 259 1255 259 1255 268.5 1298 c 128,-1,14
 278 1341 278 1341 296 1369 c 128,-1,15
 314 1397 314 1397 343 1421.5 c 128,-1,16
 372 1446 372 1446 414.5 1460 c 128,-1,17
 457 1474 457 1474 514.5 1481.5 c 128,-1,18
 572 1489 572 1489 648 1489 c 2,19,-1
 696 1489 l 1,20,-1
 694 1342 l 1,21,22
 634 1342 634 1342 593.5 1338.5 c 128,-1,23
 553 1335 553 1335 524 1323.5 c 128,-1,24
 495 1312 495 1312 479 1298.5 c 128,-1,25
 463 1285 463 1285 454.5 1257.5 c 128,-1,26
 446 1230 446 1230 443.5 1201.5 c 128,-1,27
 441 1173 441 1173 441 1125 c 2,28,-1
 441 1026 l 1,29,-1
 937 1026 l 1,30,-1
 937 1093 l 2,31,32
 937 1197 937 1197 956 1263.5 c 128,-1,33
 975 1330 975 1330 1026 1377.5 c 128,-1,34
 1077 1425 1077 1425 1165.5 1445 c 128,-1,35
 1254 1465 1254 1465 1394 1465 c 2,36,-1
 1778 1465 l 1,37,-1
 1778 0 l 1,38,-1
 1589 0 l 1,39,-1
 1589 1319 l 1,40,-1
 1409 1319 l 2,41,42
 1317 1319 1317 1319 1262.5 1310 c 128,-1,43
 1208 1301 1208 1301 1177 1277 c 128,-1,44
 1146 1253 1146 1253 1135.5 1218.5 c 128,-1,45
 1125 1184 1125 1184 1125 1125 c 2,46,-1
 1125 1026 l 1,47,-1
 1369 1026 l 1,48,-1
 1369 901 l 1,49,-1
 1125 901 l 1,0,-1
EndSplineSet
Ligature2: "'liga' Standard Ligatures lookup 0 subtable" f f l
EndChar

StartChar: Omega
Encoding: 937 937 434
Width: 1603
GlyphClass: 2
Flags: W
LayerCount: 2
UndoRedoHistory
Layer: 1
Undoes
EndUndoes
Redoes
EndRedoes
EndUndoRedoHistory
Fore
SplineSet
96 0 m 1,0,-1
 73 158 l 1,1,-1
 399 157 l 1,2,3
 263 265 263 265 183.5 429.5 c 128,-1,4
 104 594 104 594 104 788 c 0,5,6
 104 989 104 989 195 1142.5 c 128,-1,7
 286 1296 286 1296 444 1378 c 128,-1,8
 602 1460 602 1460 801 1460 c 0,9,10
 1004 1460 1004 1460 1158.5 1370.5 c 128,-1,11
 1313 1281 1313 1281 1394 1128 c 128,-1,12
 1475 975 1475 975 1475 782 c 0,13,14
 1475 591 1475 591 1390 429 c 128,-1,15
 1305 267 1305 267 1174 157 c 1,16,17
 1189 157 1189 157 1325.5 157.5 c 128,-1,18
 1462 158 1462 158 1475 158 c 1,19,-1
 1461 0 l 1,20,-1
 928 0 l 1,21,-1
 924 136 l 1,22,23
 1079 241 1079 241 1175 408.5 c 128,-1,24
 1271 576 1271 576 1271 766 c 0,25,26
 1271 874 1271 874 1240.5 969.5 c 128,-1,27
 1210 1065 1210 1065 1152.5 1139.5 c 128,-1,28
 1095 1214 1095 1214 1003.5 1257 c 128,-1,29
 912 1300 912 1300 797 1300 c 0,30,31
 581 1300 581 1300 445 1153 c 128,-1,32
 309 1006 309 1006 309 771 c 0,33,34
 309 578 309 578 402.5 407.5 c 128,-1,35
 496 237 496 237 651 136 c 1,36,-1
 655 0 l 1,37,-1
 96 0 l 1,0,-1
EndSplineSet
EndChar

StartChar: commaaccent
Encoding: 65538 -1 435
Width: 540
GlyphClass: 4
Flags: W
AnchorPoint: "Anchor-1" 288 0 mark 0
LayerCount: 2
UndoRedoHistory
Layer: 1
Undoes
EndUndoes
Redoes
EndRedoes
EndUndoRedoHistory
Fore
SplineSet
108 -610 m 1,0,-1
 217 -134 l 1,1,-1
 432 -134 l 1,2,-1
 263 -610 l 1,3,-1
 108 -610 l 1,0,-1
EndSplineSet
EndChar

StartChar: partialdiff
Encoding: 8706 8706 437
Width: 1163
GlyphClass: 2
Flags: W
LayerCount: 2
UndoRedoHistory
Layer: 1
Undoes
EndUndoes
Redoes
EndRedoes
EndUndoRedoHistory
Fore
SplineSet
489 131 m 0,0,1
 640 131 640 131 732.5 268 c 128,-1,2
 825 405 825 405 856 652 c 1,3,4
 825 735 825 735 757 792.5 c 128,-1,5
 689 850 689 850 601 850 c 0,6,7
 461 850 461 850 363.5 722 c 128,-1,8
 266 594 266 594 266 419 c 0,9,10
 266 288 266 288 326.5 209.5 c 128,-1,11
 387 131 387 131 489 131 c 0,0,1
487 -24 m 0,12,13
 354 -24 354 -24 258.5 35.5 c 128,-1,14
 163 95 163 95 117.5 194.5 c 128,-1,15
 72 294 72 294 72 422 c 0,16,17
 72 582 72 582 140 715.5 c 128,-1,18
 208 849 208 849 325 925.5 c 128,-1,19
 442 1002 442 1002 581 1002 c 0,20,21
 691 1002 691 1002 767 951.5 c 128,-1,22
 843 901 843 901 873 837 c 1,23,-1
 873 929 l 1,24,25
 870 1133 870 1133 785.5 1251 c 128,-1,26
 701 1369 701 1369 558 1369 c 0,27,28
 409 1369 409 1369 276 1283 c 1,29,-1
 264 1427 l 1,30,31
 327 1470 327 1470 410.5 1496 c 128,-1,32
 494 1522 494 1522 579 1522 c 0,33,34
 814 1522 814 1522 942 1354 c 128,-1,35
 1070 1186 1070 1186 1070 844 c 0,36,37
 1070 713 1070 713 1047.5 589 c 128,-1,38
 1025 465 1025 465 977 353.5 c 128,-1,39
 929 242 929 242 861.5 158 c 128,-1,40
 794 74 794 74 697.5 25 c 128,-1,41
 601 -24 601 -24 487 -24 c 0,12,13
EndSplineSet
EndChar

StartChar: pi
Encoding: 960 960 438
Width: 1288
GlyphClass: 2
Flags: W
LayerCount: 2
UndoRedoHistory
Layer: 1
Undoes
EndUndoes
Redoes
EndRedoes
EndUndoRedoHistory
Fore
SplineSet
1060 -12 m 0,0,1
 944 -12 944 -12 890 55 c 128,-1,2
 836 122 836 122 836 273 c 2,3,-1
 836 880 l 1,4,-1
 522 880 l 1,5,6
 520 850 520 850 516.5 798.5 c 128,-1,7
 513 747 513 747 500 611 c 128,-1,8
 487 475 487 475 472 364.5 c 128,-1,9
 457 254 457 254 431.5 145.5 c 128,-1,10
 406 37 406 37 378 0 c 1,11,-1
 187 0 l 1,12,13
 311 183 311 183 348 880 c 1,14,15
 170 875 170 875 77 819 c 1,16,-1
 60 963 l 1,17,18
 137 1026 137 1026 378 1026 c 2,19,-1
 1214 1026 l 1,20,-1
 1214 880 l 1,21,-1
 1013 880 l 1,22,-1
 1013 281 l 2,23,24
 1013 257 1013 257 1014 243 c 128,-1,25
 1015 229 1015 229 1020 206.5 c 128,-1,26
 1025 184 1025 184 1034.5 171.5 c 128,-1,27
 1044 159 1044 159 1063 149 c 128,-1,28
 1082 139 1082 139 1110 139 c 0,29,30
 1144 139 1144 139 1189 152 c 1,31,32
 1186 92 1186 92 1186 83 c 0,33,34
 1186 43 1186 43 1198 2 c 1,35,36
 1119 -12 1119 -12 1060 -12 c 0,0,1
EndSplineSet
EndChar

StartChar: radical
Encoding: 8730 8730 439
Width: 1314
GlyphClass: 2
Flags: W
LayerCount: 2
UndoRedoHistory
Layer: 1
Undoes
EndUndoes
Redoes
EndRedoes
EndUndoRedoHistory
Fore
SplineSet
594 -150 m 1,0,-1
 270 674 l 1,1,-1
 101 645 l 1,2,-1
 74 777 l 1,3,-1
 391 831 l 1,4,-1
 658 108 l 1,5,-1
 1052 1583 l 1,6,-1
 1211 1583 l 1,7,-1
 750 -150 l 1,8,-1
 594 -150 l 1,0,-1
EndSplineSet
EndChar

StartChar: summation
Encoding: 8721 8721 440
Width: 1198
GlyphClass: 2
Flags: W
LayerCount: 2
UndoRedoHistory
Layer: 1
Undoes
EndUndoes
Redoes
EndRedoes
EndUndoRedoHistory
Fore
SplineSet
99 -179 m 1,0,-1
 99 -80 l 1,1,-1
 611 650 l 1,2,-1
 120 1355 l 1,3,-1
 120 1455 l 1,4,-1
 1097 1455 l 1,5,-1
 1097 1304 l 1,6,-1
 388 1304 l 1,7,-1
 831 656 l 1,8,-1
 363 -24 l 1,9,-1
 1139 -24 l 1,10,-1
 1139 -179 l 1,11,-1
 99 -179 l 1,0,-1
EndSplineSet
EndChar

StartChar: uni007F
Encoding: 127 127 441
Width: 1521
GlyphClass: 2
Flags: W
LayerCount: 2
UndoRedoHistory
Layer: 1
Undoes
EndUndoes
Redoes
EndRedoes
EndUndoRedoHistory
Fore
SplineSet
360 1330 m 1,0,-1
 360 124 l 1,1,-1
 1161 124 l 1,2,-1
 1161 1330 l 1,3,-1
 360 1330 l 1,0,-1
188 0 m 1,4,-1
 188 1456 l 1,5,-1
 1333 1456 l 1,6,-1
 1333 0 l 1,7,-1
 188 0 l 1,4,-1
EndSplineSet
EndChar

StartChar: uni2015
Encoding: 8213 8213 442
Width: 4098
GlyphClass: 2
Flags: W
LayerCount: 2
UndoRedoHistory
Layer: 1
Undoes
EndUndoes
Redoes
EndRedoes
EndUndoRedoHistory
Fore
SplineSet
62 478 m 1,0,-1
 62 631 l 1,1,-1
 4036 631 l 1,2,-1
 4036 478 l 1,3,-1
 62 478 l 1,0,-1
EndSplineSet
EndChar

StartChar: middot
Encoding: 65540 -1 444
Width: 509
GlyphClass: 2
Flags: W
LayerCount: 2
UndoRedoHistory
Layer: 1
Undoes
EndUndoes
Redoes
EndRedoes
EndUndoRedoHistory
Fore
SplineSet
146 513 m 1,0,-1
 146 723 l 1,1,-1
 363 723 l 1,2,-1
 363 513 l 1,3,-1
 146 513 l 1,0,-1
EndSplineSet
EndChar

